<?xml version="1.0" encoding="UTF-8"?>
<!DOCTYPE svg PUBLIC "-//W3C//DTD SVG 1.1//EN" "http://www.w3.org/Graphics/SVG/1.1/DTD/svg11.dtd">
<svg xmlns="http://www.w3.org/2000/svg" version="1.1" width="559px" height="447px" style="shape-rendering:geometricPrecision; text-rendering:geometricPrecision; image-rendering:optimizeQuality; fill-rule:evenodd; clip-rule:evenodd" xmlns:xlink="http://www.w3.org/1999/xlink">
<g><path style="opacity:0.004" fill="#fefffe" d="M 441.5,1.5 C 442.833,2.16667 442.833,2.16667 441.5,1.5 Z"/></g>
<g><path style="opacity:0.004" fill="#fefffe" d="M 535.5,9.5 C 536.833,10.1667 536.833,10.1667 535.5,9.5 Z"/></g>
<g><path style="opacity:0.004" fill="#fefffe" d="M 267.5,10.5 C 268.833,11.1667 268.833,11.1667 267.5,10.5 Z"/></g>
<g><path style="opacity:0.004" fill="#fefffe" d="M 89.5,23.5 C 90.8333,24.1667 90.8333,24.1667 89.5,23.5 Z"/></g>
<g><path style="opacity:0.004" fill="#fefffe" d="M 88.5,36.5 C 89.8333,37.1667 89.8333,37.1667 88.5,36.5 Z"/></g>
<g><path style="opacity:0.004" fill="#fefffe" d="M 467.5,41.5 C 468.833,42.1667 468.833,42.1667 467.5,41.5 Z"/></g>
<g><path style="opacity:0.004" fill="#fefffe" d="M 506.5,44.5 C 507.833,45.1667 507.833,45.1667 506.5,44.5 Z"/></g>
<g><path style="opacity:0.004" fill="#fefffe" d="M 33.5,46.5 C 34.8333,47.1667 34.8333,47.1667 33.5,46.5 Z"/></g>
<g><path style="opacity:0.004" fill="#fefffe" d="M 179.5,47.5 C 180.833,48.1667 180.833,48.1667 179.5,47.5 Z"/></g>
<g><path style="opacity:1" fill="#0e0e0e" d="M 318.5,84.5 C 318.5,85.8333 318.5,87.1667 318.5,88.5C 319.791,88.7373 320.791,88.404 321.5,87.5C 331.643,84.5033 341.976,83.0033 352.5,83C 360.24,87.5523 362.406,94.0523 359,102.5C 357.833,103.667 356.667,104.833 355.5,106C 344.883,109.32 334.217,112.32 323.5,115C 326.654,132.076 329.154,149.242 331,166.5C 327.841,175.505 321.674,178.505 312.5,175.5C 312.027,174.094 311.027,173.427 309.5,173.5C 307.016,171.88 305.516,169.547 305,166.5C 302.378,151.892 300.211,137.226 298.5,122.5C 298.5,121.5 298.5,120.5 298.5,119.5C 296.901,119.232 295.568,119.566 294.5,120.5C 280.922,123.877 267.256,127.043 253.5,130C 237.708,131.537 232.208,124.703 237,109.5C 238.731,107.383 240.898,105.883 243.5,105C 249.453,103.509 255.453,102.343 261.5,101.5C 264.152,101.59 266.485,100.924 268.5,99.5C 276.67,97.5655 284.837,95.5655 293,93.5C 291.591,83.2394 290.091,72.9061 288.5,62.5C 288.361,60.1175 289.028,58.1175 290.5,56.5C 291.906,56.0269 292.573,55.0269 292.5,53.5C 298.888,48.1817 305.388,48.1817 312,53.5C 313.439,55.2746 314.439,57.2746 315,59.5C 316.577,67.7828 317.744,76.1162 318.5,84.5 Z"/></g>
<g><path style="opacity:0.004" fill="#fefffe" d="M 168.5,52.5 C 169.833,53.1667 169.833,53.1667 168.5,52.5 Z"/></g>
<g><path style="opacity:0.51" fill="#8b8b8b" d="M 292.5,53.5 C 292.573,55.0269 291.906,56.0269 290.5,56.5C 290.427,54.9731 291.094,53.9731 292.5,53.5 Z"/></g>
<g><path style="opacity:0.188" fill="#b2b2b2" d="M 318.5,84.5 C 319.1,85.9002 320.1,86.9002 321.5,87.5C 320.791,88.404 319.791,88.7373 318.5,88.5C 318.5,87.1667 318.5,85.8333 318.5,84.5 Z"/></g>
<g><path style="opacity:0.004" fill="#fefffe" d="M 123.5,91.5 C 124.833,92.1667 124.833,92.1667 123.5,91.5 Z"/></g>
<g><path style="opacity:0.969" fill="#626262" d="M 268.5,99.5 C 266.485,100.924 264.152,101.59 261.5,101.5C 263.515,100.076 265.848,99.4095 268.5,99.5 Z"/></g>
<g><path style="opacity:0.004" fill="#fefffe" d="M 527.5,101.5 C 528.833,102.167 528.833,102.167 527.5,101.5 Z"/></g>
<g><path style="opacity:0.004" fill="#fefffe" d="M 72.5,103.5 C 73.8333,104.167 73.8333,104.167 72.5,103.5 Z"/></g>
<g><path style="opacity:0.004" fill="#fefffe" d="M 213.5,103.5 C 214.833,104.167 214.833,104.167 213.5,103.5 Z"/></g>
<g><path style="opacity:0.004" fill="#fefffe" d="M 338.5,113.5 C 339.833,114.167 339.833,114.167 338.5,113.5 Z"/></g>
<g><path style="opacity:0.349" fill="#b6b6b6" d="M 294.5,120.5 C 295.568,119.566 296.901,119.232 298.5,119.5C 298.5,120.5 298.5,121.5 298.5,122.5C 297.533,121.194 296.199,120.527 294.5,120.5 Z"/></g>
<g><path style="opacity:1" fill="#1e7280" d="M 457.5,116.5 C 450.095,117.773 442.595,117.44 435,115.5C 432.855,115.396 431.021,116.063 429.5,117.5C 419.127,115.482 416.794,118.982 422.5,128C 421.852,129.44 421.519,130.94 421.5,132.5C 423.167,132.5 424.833,132.5 426.5,132.5C 426.863,130.089 425.863,128.589 423.5,128C 423.377,125.544 423.377,123.044 423.5,120.5C 428.634,120.379 433.801,119.712 439,118.5C 440.648,119.717 442.481,120.55 444.5,121C 440.534,121.855 436.534,122.355 432.5,122.5C 432.354,124.942 433.187,125.609 435,124.5C 436.509,125.09 438.009,125.756 439.5,126.5C 436.956,127.937 436.956,129.437 439.5,131C 435.199,130.717 431.866,132.217 429.5,135.5C 432.785,136.324 436.118,136.824 439.5,137C 440.167,137.667 440.833,138.333 441.5,139C 444.379,139.546 447.046,140.379 449.5,141.5C 439.446,140.735 429.78,138.568 420.5,135C 418.951,133.786 417.785,132.286 417,130.5C 414.192,119.772 418.192,113.438 429,111.5C 438.649,113.135 448.149,114.801 457.5,116.5 Z"/></g>
<g><path style="opacity:1" fill="#106d7f" d="M 457.5,116.5 C 482.409,119.403 507.409,120.903 532.5,121C 537.266,123.429 540.1,127.263 541,132.5C 538.833,167.834 529.5,201.168 513,232.5C 509.891,237.94 506.391,243.107 502.5,248C 500.134,249.233 497.634,250.066 495,250.5C 491.314,249.873 487.814,248.873 484.5,247.5C 483.951,245.099 483.118,242.765 482,240.5C 481.333,237.833 481.333,235.167 482,232.5C 495.548,210.419 504.881,186.752 510,161.5C 508.961,162.71 507.794,163.71 506.5,164.5C 502.582,164.342 500.582,162.342 500.5,158.5C 499.5,158.5 498.5,158.5 497.5,158.5C 497.97,161.346 497.137,163.679 495,165.5C 494.941,162.178 493.774,159.344 491.5,157C 498.251,154.076 497.918,152.742 490.5,153C 489.289,154.113 489.289,155.28 490.5,156.5C 488.772,158.226 486.772,159.559 484.5,160.5C 482.429,159.214 482.096,157.547 483.5,155.5C 484.736,154.754 486.07,154.421 487.5,154.5C 487.472,152.418 488.139,150.584 489.5,149C 497.357,147.127 497.024,145.794 488.5,145C 486.699,144.683 486.366,144.016 487.5,143C 481.5,142.667 475.5,142.333 469.5,142C 468.167,141 468.167,140 469.5,139C 467.945,137.711 466.279,137.044 464.5,137C 467.249,139.19 466.915,140.857 463.5,142C 459.209,141.804 454.876,141.637 450.5,141.5C 450.167,141.5 449.833,141.5 449.5,141.5C 447.046,140.379 444.379,139.546 441.5,139C 440.833,138.333 440.167,137.667 439.5,137C 436.118,136.824 432.785,136.324 429.5,135.5C 431.866,132.217 435.199,130.717 439.5,131C 436.956,129.437 436.956,127.937 439.5,126.5C 438.009,125.756 436.509,125.09 435,124.5C 433.187,125.609 432.354,124.942 432.5,122.5C 436.534,122.355 440.534,121.855 444.5,121C 442.481,120.55 440.648,119.717 439,118.5C 433.801,119.712 428.634,120.379 423.5,120.5C 423.377,123.044 423.377,125.544 423.5,128C 425.863,128.589 426.863,130.089 426.5,132.5C 424.833,132.5 423.167,132.5 421.5,132.5C 421.519,130.94 421.852,129.44 422.5,128C 416.794,118.982 419.127,115.482 429.5,117.5C 431.021,116.063 432.855,115.396 435,115.5C 442.595,117.44 450.095,117.773 457.5,116.5 Z"/></g>
<g><path style="opacity:0.004" fill="#fefffe" d="M 124.5,138.5 C 125.833,139.167 125.833,139.167 124.5,138.5 Z"/></g>
<g><path style="opacity:1" fill="#116e7e" d="M 242.5,167.5 C 240.319,167.914 237.985,168.081 235.5,168C 232.158,169.006 229.158,170.673 226.5,173C 231.177,172.204 235.51,173.204 239.5,176C 234.779,176.961 230.445,178.795 226.5,181.5C 227.443,183.47 226.776,184.97 224.5,186C 225.056,186.383 225.389,186.883 225.5,187.5C 206.941,178.105 187.275,171.938 166.5,169C 159.444,168.212 152.444,168.545 145.5,170C 141.002,171.172 139.168,174.006 140,178.5C 141.467,181.266 143.3,183.766 145.5,186C 159.991,196.122 175.657,204.122 192.5,210C 206.749,214.922 221.082,219.088 235.5,222.5C 234.608,224.813 235.442,225.147 238,223.5C 239.301,223.639 240.134,224.305 240.5,225.5C 239.733,226.172 239.066,227.005 238.5,228C 243.792,229.162 249.125,230.162 254.5,231C 250.129,231.172 245.796,231.672 241.5,232.5C 240.5,233.167 239.5,233.833 238.5,234.5C 243.658,235.642 248.492,235.642 253,234.5C 253.925,235.047 254.758,235.713 255.5,236.5C 252.553,237.321 249.553,237.821 246.5,238C 246.5,239 246.5,240 246.5,241C 243.009,242.121 240.176,241.287 238,238.5C 235.808,240.462 233.141,241.462 230,241.5C 226.804,241.087 223.638,240.92 220.5,241C 221.833,241.667 221.833,242.333 220.5,243C 226.745,244.895 233.078,246.562 239.5,248C 240.858,248.934 242.192,249.768 243.5,250.5C 205.371,244.756 169.704,232.256 136.5,213C 122.466,204.602 114.466,192.269 112.5,176C 114.78,156.386 125.78,145.386 145.5,143C 180.422,141.314 212.755,149.48 242.5,167.5 Z"/></g>
<g><path style="opacity:0.004" fill="#fefffe" d="M 536.5,173.5 C 537.833,174.167 537.833,174.167 536.5,173.5 Z"/></g>
<g><path style="opacity:1" fill="#0e6d7e" d="M 242.5,167.5 C 269.58,180.577 290.58,200.243 305.5,226.5C 310.104,227.016 314.771,227.016 319.5,226.5C 317.856,227.316 316.69,228.65 316,230.5C 315.086,229.346 314.253,229.513 313.5,231C 314.5,231.333 315.5,231.667 316.5,232C 315.234,232.309 314.067,232.809 313,233.5C 312.333,232.167 311.667,232.167 311,233.5C 309.632,232.007 309.465,230.507 310.5,229C 309.5,228.333 308.5,228.333 307.5,229C 307.185,231.098 307.185,233.098 307.5,235C 318.231,235.527 328.897,234.861 339.5,233C 340.931,232.535 342.097,231.701 343,230.5C 344.011,231.337 345.178,231.67 346.5,231.5C 346.421,232.93 346.754,234.264 347.5,235.5C 350.07,236.223 352.403,237.39 354.5,239C 351.49,240.921 348.156,241.921 344.5,242C 346.744,242.906 349.077,243.406 351.5,243.5C 356.356,241.96 361.356,241.293 366.5,241.5C 366.5,242.5 366.5,243.5 366.5,244.5C 366.167,244.5 365.833,244.5 365.5,244.5C 364.033,244.106 362.533,243.773 361,243.5C 356.01,245.331 350.844,246.331 345.5,246.5C 338.178,245.584 330.845,245.417 323.5,246C 323.167,246.333 322.833,246.667 322.5,247C 327.897,247.864 333.231,248.197 338.5,248C 339.167,248.333 339.833,248.667 340.5,249C 339.263,249.232 338.263,249.732 337.5,250.5C 337.167,250.5 336.833,250.5 336.5,250.5C 329.825,250.334 323.158,250.5 316.5,251C 315.272,251.779 314.272,252.779 313.5,254C 313.57,254.765 313.903,255.265 314.5,255.5C 316.475,282.774 306.142,303.94 283.5,319C 267.946,329.108 250.946,335.275 232.5,337.5C 232.97,336.307 233.97,335.64 235.5,335.5C 239.213,335.078 242.88,334.411 246.5,333.5C 244.345,333.162 242.011,333.162 239.5,333.5C 239.5,332.5 239.5,331.5 239.5,330.5C 241.429,330.769 243.095,330.269 244.5,329C 242.423,328.808 240.423,328.308 238.5,327.5C 238.709,326.914 239.043,326.414 239.5,326C 242.5,325.667 245.5,325.333 248.5,325C 249.5,324.167 250.5,323.333 251.5,322.5C 247.5,321.833 243.5,321.167 239.5,320.5C 241.624,319.851 243.624,319.017 245.5,318C 241.814,317.441 238.147,316.774 234.5,316C 235.167,315.667 235.833,315.333 236.5,315C 234.567,314.749 232.734,314.249 231,313.5C 229.004,315.059 226.671,315.726 224,315.5C 219.84,315.024 215.673,314.691 211.5,314.5C 231.806,313.233 250.806,307.4 268.5,297C 282.228,287.377 288.895,274.21 288.5,257.5C 288.5,256.167 288.5,254.833 288.5,253.5C 283.833,253.5 279.167,253.5 274.5,253.5C 270.102,253.706 265.768,253.373 261.5,252.5C 256.384,251.194 251.051,250.527 245.5,250.5C 244.833,250.5 244.167,250.5 243.5,250.5C 242.192,249.768 240.858,248.934 239.5,248C 233.078,246.562 226.745,244.895 220.5,243C 221.833,242.333 221.833,241.667 220.5,241C 223.638,240.92 226.804,241.087 230,241.5C 233.141,241.462 235.808,240.462 238,238.5C 240.176,241.287 243.009,242.121 246.5,241C 246.5,240 246.5,239 246.5,238C 249.553,237.821 252.553,237.321 255.5,236.5C 254.758,235.713 253.925,235.047 253,234.5C 248.492,235.642 243.658,235.642 238.5,234.5C 239.5,233.833 240.5,233.167 241.5,232.5C 245.796,231.672 250.129,231.172 254.5,231C 249.125,230.162 243.792,229.162 238.5,228C 239.066,227.005 239.733,226.172 240.5,225.5C 244.833,225.5 249.167,225.5 253.5,225.5C 257.881,225.372 262.215,225.705 266.5,226.5C 269.304,227.638 272.304,227.805 275.5,227C 274.956,226.283 274.289,225.783 273.5,225.5C 259.801,209.977 243.801,197.31 225.5,187.5C 225.389,186.883 225.056,186.383 224.5,186C 226.776,184.97 227.443,183.47 226.5,181.5C 230.445,178.795 234.779,176.961 239.5,176C 235.51,173.204 231.177,172.204 226.5,173C 229.158,170.673 232.158,169.006 235.5,168C 237.985,168.081 240.319,167.914 242.5,167.5 Z"/></g>
<g><path style="opacity:0.404" fill="#9c9c9c" d="M 309.5,173.5 C 311.027,173.427 312.027,174.094 312.5,175.5C 310.973,175.573 309.973,174.906 309.5,173.5 Z"/></g>
<g><path style="opacity:0.004" fill="#fefffe" d="M 44.5,185.5 C 45.8333,186.167 45.8333,186.167 44.5,185.5 Z"/></g>
<g><path style="opacity:0.004" fill="#fefffe" d="M 467.5,203.5 C 468.833,204.167 468.833,204.167 467.5,203.5 Z"/></g>
<g><path style="opacity:0.004" fill="#fefffe" d="M 455.5,209.5 C 456.833,210.167 456.833,210.167 455.5,209.5 Z"/></g>
<g><path style="opacity:1" fill="#559197" d="M 451.5,207.5 C 443.495,213.507 434.828,218.507 425.5,222.5C 426.953,221.175 426.619,220.342 424.5,220C 428.729,218.742 432.729,217.075 436.5,215C 439.131,211.853 442.464,210.353 446.5,210.5C 446.5,209.5 446.5,208.5 446.5,207.5C 448.167,207.5 449.833,207.5 451.5,207.5 Z"/></g>
<g><path style="opacity:1" fill="#106d7e" d="M 506.5,164.5 C 490.169,181.486 471.836,195.82 451.5,207.5C 449.833,207.5 448.167,207.5 446.5,207.5C 446.5,208.5 446.5,209.5 446.5,210.5C 442.464,210.353 439.131,211.853 436.5,215C 432.729,217.075 428.729,218.742 424.5,220C 426.619,220.342 426.953,221.175 425.5,222.5C 406.803,232.18 387.136,239.513 366.5,244.5C 366.5,243.5 366.5,242.5 366.5,241.5C 361.356,241.293 356.356,241.96 351.5,243.5C 349.077,243.406 346.744,242.906 344.5,242C 348.156,241.921 351.49,240.921 354.5,239C 352.403,237.39 350.07,236.223 347.5,235.5C 346.754,234.264 346.421,232.93 346.5,231.5C 345.178,231.67 344.011,231.337 343,230.5C 342.097,231.701 340.931,232.535 339.5,233C 328.897,234.861 318.231,235.527 307.5,235C 307.185,233.098 307.185,231.098 307.5,229C 308.5,228.333 309.5,228.333 310.5,229C 309.465,230.507 309.632,232.007 311,233.5C 311.667,232.167 312.333,232.167 313,233.5C 314.067,232.809 315.234,232.309 316.5,232C 315.5,231.667 314.5,231.333 313.5,231C 314.253,229.513 315.086,229.346 316,230.5C 316.69,228.65 317.856,227.316 319.5,226.5C 384.682,218.571 440.682,191.904 487.5,146.5C 474.97,145.246 462.637,143.579 450.5,141.5C 454.876,141.637 459.209,141.804 463.5,142C 466.915,140.857 467.249,139.19 464.5,137C 466.279,137.044 467.945,137.711 469.5,139C 468.167,140 468.167,141 469.5,142C 475.5,142.333 481.5,142.667 487.5,143C 486.366,144.016 486.699,144.683 488.5,145C 497.024,145.794 497.357,147.127 489.5,149C 488.139,150.584 487.472,152.418 487.5,154.5C 486.07,154.421 484.736,154.754 483.5,155.5C 482.096,157.547 482.429,159.214 484.5,160.5C 486.772,159.559 488.772,158.226 490.5,156.5C 489.289,155.28 489.289,154.113 490.5,153C 497.918,152.742 498.251,154.076 491.5,157C 493.774,159.344 494.941,162.178 495,165.5C 497.137,163.679 497.97,161.346 497.5,158.5C 498.5,158.5 499.5,158.5 500.5,158.5C 500.582,162.342 502.582,164.342 506.5,164.5 Z"/></g>
<g><path style="opacity:1" fill="#58949c" d="M 235.5,222.5 C 241.709,223.013 247.709,224.013 253.5,225.5C 249.167,225.5 244.833,225.5 240.5,225.5C 240.134,224.305 239.301,223.639 238,223.5C 235.442,225.147 234.608,224.813 235.5,222.5 Z"/></g>
<g><path style="opacity:0.008" fill="#c3e3ee" d="M 273.5,225.5 C 274.289,225.783 274.956,226.283 275.5,227C 272.304,227.805 269.304,227.638 266.5,226.5C 269.059,226.802 271.393,226.468 273.5,225.5 Z"/></g>
<g><path style="opacity:1" fill="#357e8a" d="M 365.5,244.5 C 356.478,247.373 347.144,249.373 337.5,250.5C 338.263,249.732 339.263,249.232 340.5,249C 339.833,248.667 339.167,248.333 338.5,248C 333.231,248.197 327.897,247.864 322.5,247C 322.833,246.667 323.167,246.333 323.5,246C 330.845,245.417 338.178,245.584 345.5,246.5C 350.844,246.331 356.01,245.331 361,243.5C 362.533,243.773 364.033,244.106 365.5,244.5 Z"/></g>
<g><path style="opacity:0.004" fill="#fefffe" d="M 401.5,245.5 C 402.833,246.167 402.833,246.167 401.5,245.5 Z"/></g>
<g><path style="opacity:0.004" fill="#fefffe" d="M 16.5,246.5 C 17.8333,247.167 17.8333,247.167 16.5,246.5 Z"/></g>
<g><path style="opacity:1" fill="#6fa6af" d="M 245.5,250.5 C 251.051,250.527 256.384,251.194 261.5,252.5C 255.931,252.624 250.598,251.957 245.5,250.5 Z"/></g>
<g><path style="opacity:1" fill="#58949b" d="M 336.5,250.5 C 330.377,251.835 324.044,252.669 317.5,253C 315.881,253.236 314.881,254.069 314.5,255.5C 313.903,255.265 313.57,254.765 313.5,254C 314.272,252.779 315.272,251.779 316.5,251C 323.158,250.5 329.825,250.334 336.5,250.5 Z"/></g>
<g><path style="opacity:0.275" fill="#b8e1e8" d="M 274.5,253.5 C 279.167,253.5 283.833,253.5 288.5,253.5C 288.5,254.833 288.5,256.167 288.5,257.5C 287.596,256.791 287.263,255.791 287.5,254.5C 282.968,254.818 278.634,254.485 274.5,253.5 Z"/></g>
<g><path style="opacity:0.004" fill="#fefffe" d="M 268.5,255.5 C 269.833,256.167 269.833,256.167 268.5,255.5 Z"/></g>
<g><path style="opacity:0.004" fill="#fefffe" d="M 474.5,259.5 C 475.833,260.167 475.833,260.167 474.5,259.5 Z"/></g>
<g><path style="opacity:0.004" fill="#fefffe" d="M 315.5,274.5 C 316.833,275.167 316.833,275.167 315.5,274.5 Z"/></g>
<g><path style="opacity:1" fill="#111111" d="M 425.5,276.5 C 425.821,278.048 426.821,278.715 428.5,278.5C 435.523,283.2 442.523,287.867 449.5,292.5C 449.821,294.048 450.821,294.715 452.5,294.5C 460.538,300.597 461.538,307.764 455.5,316C 449.851,320.398 444.185,320.564 438.5,316.5C 438.027,315.094 437.027,314.427 435.5,314.5C 433.973,314.573 432.973,313.906 432.5,312.5C 432.027,311.094 431.027,310.427 429.5,310.5C 429.027,309.094 428.027,308.427 426.5,308.5C 422.561,306.554 418.894,304.221 415.5,301.5C 415.027,300.094 414.027,299.427 412.5,299.5C 404.007,295.198 401.507,288.531 405,279.5C 411.054,272.807 417.887,271.807 425.5,276.5 Z"/></g>
<g><path style="opacity:0.918" fill="#848484" d="M 425.5,276.5 C 426.71,276.932 427.71,277.599 428.5,278.5C 426.821,278.715 425.821,278.048 425.5,276.5 Z"/></g>
<g><path style="opacity:0.004" fill="#fefffe" d="M 2.5,281.5 C 3.83333,282.167 3.83333,282.167 2.5,281.5 Z"/></g>
<g><path style="opacity:1" fill="#176f80" d="M 168.5,313.5 C 164.465,313.393 160.465,313.726 156.5,314.5C 146.916,311.975 137.249,309.642 127.5,307.5C 127.5,308.833 127.5,310.167 127.5,311.5C 133.391,311.605 133.725,312.605 128.5,314.5C 127.614,315.325 127.281,316.325 127.5,317.5C 124.762,316.965 122.928,317.965 122,320.5C 120.512,319.804 119.012,320.138 117.5,321.5C 118.167,321.833 118.833,322.167 119.5,322.5C 117.222,323.215 115.889,324.382 115.5,326C 119.27,327.372 123.103,328.538 127,329.5C 129.671,329.726 132.004,329.059 134,327.5C 136.175,328.255 138.341,329.088 140.5,330C 139.167,330.667 139.167,331.333 140.5,332C 143.176,330.928 145.509,331.595 147.5,334C 146.833,334.333 146.167,334.667 145.5,335C 146.737,335.232 147.737,335.732 148.5,336.5C 102.201,328.357 61.0347,309.357 25,279.5C 18.2241,267.388 21.5574,259.721 35,256.5C 36.8882,256.796 38.7216,257.296 40.5,258C 77.9242,288.425 120.591,306.925 168.5,313.5 Z"/></g>
<g><path style="opacity:0.004" fill="#fefffe" d="M 458.5,287.5 C 459.833,288.167 459.833,288.167 458.5,287.5 Z"/></g>
<g><path style="opacity:0.922" fill="#838383" d="M 449.5,292.5 C 450.71,292.932 451.71,293.599 452.5,294.5C 450.821,294.715 449.821,294.048 449.5,292.5 Z"/></g>
<g><path style="opacity:0.004" fill="#fefffe" d="M 180.5,295.5 C 181.833,296.167 181.833,296.167 180.5,295.5 Z"/></g>
<g><path style="opacity:0.392" fill="#a3a3a3" d="M 412.5,299.5 C 414.027,299.427 415.027,300.094 415.5,301.5C 413.973,301.573 412.973,300.906 412.5,299.5 Z"/></g>
<g><path style="opacity:0.545" fill="#888888" d="M 426.5,308.5 C 428.027,308.427 429.027,309.094 429.5,310.5C 427.973,310.573 426.973,309.906 426.5,308.5 Z"/></g>
<g><path style="opacity:0.624" fill="#7f7f7f" d="M 429.5,310.5 C 431.027,310.427 432.027,311.094 432.5,312.5C 430.973,312.573 429.973,311.906 429.5,310.5 Z"/></g>
<g><path style="opacity:0.004" fill="#fefffe" d="M 316.5,312.5 C 317.833,313.167 317.833,313.167 316.5,312.5 Z"/></g>
<g><path style="opacity:1" fill="#0c6c7e" d="M 168.5,313.5 C 182.821,314.242 197.154,314.575 211.5,314.5C 215.673,314.691 219.84,315.024 224,315.5C 226.671,315.726 229.004,315.059 231,313.5C 232.734,314.249 234.567,314.749 236.5,315C 235.833,315.333 235.167,315.667 234.5,316C 238.147,316.774 241.814,317.441 245.5,318C 243.624,319.017 241.624,319.851 239.5,320.5C 243.5,321.167 247.5,321.833 251.5,322.5C 250.5,323.333 249.5,324.167 248.5,325C 245.5,325.333 242.5,325.667 239.5,326C 239.043,326.414 238.709,326.914 238.5,327.5C 240.423,328.308 242.423,328.808 244.5,329C 243.095,330.269 241.429,330.769 239.5,330.5C 239.5,331.5 239.5,332.5 239.5,333.5C 242.011,333.162 244.345,333.162 246.5,333.5C 242.88,334.411 239.213,335.078 235.5,335.5C 233.97,335.64 232.97,336.307 232.5,337.5C 228.079,338.945 223.412,339.778 218.5,340C 203.167,340.667 187.833,340.667 172.5,340C 164.254,339.567 156.254,338.401 148.5,336.5C 147.737,335.732 146.737,335.232 145.5,335C 146.167,334.667 146.833,334.333 147.5,334C 145.509,331.595 143.176,330.928 140.5,332C 139.167,331.333 139.167,330.667 140.5,330C 138.341,329.088 136.175,328.255 134,327.5C 132.004,329.059 129.671,329.726 127,329.5C 123.103,328.538 119.27,327.372 115.5,326C 115.889,324.382 117.222,323.215 119.5,322.5C 118.833,322.167 118.167,321.833 117.5,321.5C 119.012,320.138 120.512,319.804 122,320.5C 122.928,317.965 124.762,316.965 127.5,317.5C 127.281,316.325 127.614,315.325 128.5,314.5C 133.725,312.605 133.391,311.605 127.5,311.5C 127.5,310.167 127.5,308.833 127.5,307.5C 137.249,309.642 146.916,311.975 156.5,314.5C 160.465,313.726 164.465,313.393 168.5,313.5 Z"/></g>
<g><path style="opacity:0.004" fill="#fefffe" d="M 331.5,314.5 C 330.833,313.167 330.833,313.167 331.5,314.5 Z"/></g>
<g><path style="opacity:1" fill="#0e0e0e" d="M 349.5,316.5 C 349.427,318.027 350.094,319.027 351.5,319.5C 363.366,354.435 368.199,390.435 366,427.5C 361.983,434.138 356.15,436.304 348.5,434C 344.942,432.108 342.442,429.275 341,425.5C 341.11,391.273 336.277,357.773 326.5,325C 326.97,320.895 328.636,317.395 331.5,314.5C 338.062,311.303 344.062,311.969 349.5,316.5 Z"/></g>
<g><path style="opacity:1" fill="#0f0f0f" d="M 409.5,328.5 C 409.427,330.027 410.094,331.027 411.5,331.5C 411.427,333.027 412.094,334.027 413.5,334.5C 413.427,336.027 414.094,337.027 415.5,337.5C 416.974,338.436 417.974,339.77 418.5,341.5C 418.427,343.027 419.094,344.027 420.5,344.5C 425.601,349.936 429.934,355.936 433.5,362.5C 433.427,364.027 434.094,365.027 435.5,365.5C 438.981,372.587 437.648,378.754 431.5,384C 424.832,386.773 418.998,385.607 414,380.5C 402.277,364.442 390.943,348.109 380,331.5C 378.43,321.563 382.596,315.563 392.5,313.5C 395.691,314.175 398.691,315.342 401.5,317C 404.3,320.775 406.966,324.608 409.5,328.5 Z"/></g>
<g><path style="opacity:0.004" fill="#fefffe" d="M 558.5,314.5 C 558.5,314.833 558.5,315.167 558.5,315.5C 557.83,315.019 557.83,314.685 558.5,314.5 Z"/></g>
<g><path style="opacity:0.498" fill="#8e8e8e" d="M 435.5,314.5 C 437.027,314.427 438.027,315.094 438.5,316.5C 436.973,316.573 435.973,315.906 435.5,314.5 Z"/></g>
<g><path style="opacity:0.467" fill="#999999" d="M 349.5,316.5 C 350.906,316.973 351.573,317.973 351.5,319.5C 350.094,319.027 349.427,318.027 349.5,316.5 Z"/></g>
<g><path style="opacity:0.004" fill="#fefffe" d="M 319.5,321.5 C 320.833,322.167 320.833,322.167 319.5,321.5 Z"/></g>
<g><path style="opacity:0.004" fill="#fefffe" d="M 293.5,326.5 C 294.833,327.167 294.833,327.167 293.5,326.5 Z"/></g>
<g><path style="opacity:0.435" fill="#9f9f9f" d="M 409.5,328.5 C 410.906,328.973 411.573,329.973 411.5,331.5C 410.094,331.027 409.427,330.027 409.5,328.5 Z"/></g>
<g><path style="opacity:0.514" fill="#959595" d="M 411.5,331.5 C 412.906,331.973 413.573,332.973 413.5,334.5C 412.094,334.027 411.427,333.027 411.5,331.5 Z"/></g>
<g><path style="opacity:0.655" fill="#7c7c7c" d="M 413.5,334.5 C 414.906,334.973 415.573,335.973 415.5,337.5C 414.094,337.027 413.427,336.027 413.5,334.5 Z"/></g>
<g><path style="opacity:0.004" fill="#fefffe" d="M 318.5,340.5 C 319.833,341.167 319.833,341.167 318.5,340.5 Z"/></g>
<g><path style="opacity:0.58" fill="#868686" d="M 418.5,341.5 C 419.906,341.973 420.573,342.973 420.5,344.5C 419.094,344.027 418.427,343.027 418.5,341.5 Z"/></g>
<g><path style="opacity:0.004" fill="#fefffe" d="M 67.5,348.5 C 68.8333,349.167 68.8333,349.167 67.5,348.5 Z"/></g>
<g><path style="opacity:0.004" fill="#fefffe" d="M 235.5,351.5 C 236.833,352.167 236.833,352.167 235.5,351.5 Z"/></g>
<g><path style="opacity:0.004" fill="#fefffe" d="M 322.5,351.5 C 323.833,352.167 323.833,352.167 322.5,351.5 Z"/></g>
<g><path style="opacity:0.004" fill="#fefffe" d="M 0.5,361.5 C 1.83333,362.167 1.83333,362.167 0.5,361.5 Z"/></g>
<g><path style="opacity:0.557" fill="#848484" d="M 433.5,362.5 C 434.906,362.973 435.573,363.973 435.5,365.5C 434.094,365.027 433.427,364.027 433.5,362.5 Z"/></g>
<g><path style="opacity:0.004" fill="#fefffe" d="M 369.5,370.5 C 370.833,371.167 370.833,371.167 369.5,370.5 Z"/></g>
<g><path style="opacity:0.004" fill="#fefffe" d="M 141.5,373.5 C 142.833,374.167 142.833,374.167 141.5,373.5 Z"/></g>
<g><path style="opacity:0.004" fill="#fefffe" d="M 226.5,375.5 C 227.833,376.167 227.833,376.167 226.5,375.5 Z"/></g>
<g><path style="opacity:0.004" fill="#fefffe" d="M 474.5,379.5 C 475.833,380.167 475.833,380.167 474.5,379.5 Z"/></g>
<g><path style="opacity:0.004" fill="#fefffe" d="M 195.5,382.5 C 196.833,383.167 196.833,383.167 195.5,382.5 Z"/></g>
<g><path style="opacity:0.004" fill="#fefffe" d="M 330.5,382.5 C 331.833,383.167 331.833,383.167 330.5,382.5 Z"/></g>
<g><path style="opacity:0.004" fill="#fefffe" d="M 113.5,386.5 C 114.833,387.167 114.833,387.167 113.5,386.5 Z"/></g>
<g><path style="opacity:0.004" fill="#fefffe" d="M 94.5,399.5 C 95.8333,400.167 95.8333,400.167 94.5,399.5 Z"/></g>
<g><path style="opacity:0.004" fill="#fefffe" d="M 136.5,408.5 C 137.833,409.167 137.833,409.167 136.5,408.5 Z"/></g>
<g><path style="opacity:0.004" fill="#fefffe" d="M 376.5,408.5 C 377.833,409.167 377.833,409.167 376.5,408.5 Z"/></g>
<g><path style="opacity:0.004" fill="#fefffe" d="M 334.5,414.5 C 335.833,415.167 335.833,415.167 334.5,414.5 Z"/></g>
<g><path style="opacity:0.004" fill="#fefffe" d="M 56.5,416.5 C 57.8333,417.167 57.8333,417.167 56.5,416.5 Z"/></g>
<g><path style="opacity:0.004" fill="#fefffe" d="M 303.5,427.5 C 304.833,428.167 304.833,428.167 303.5,427.5 Z"/></g>
<g><path style="opacity:0.004" fill="#fefffe" d="M 287.5,431.5 C 288.833,432.167 288.833,432.167 287.5,431.5 Z"/></g>
<g><path style="opacity:0.004" fill="#fefffe" d="M 328.5,435.5 C 329.833,436.167 329.833,436.167 328.5,435.5 Z"/></g>
<g><path style="opacity:0.004" fill="#fefffe" d="M 328.5,438.5 C 329.833,439.167 329.833,439.167 328.5,438.5 Z"/></g>
</svg>
