<?xml version="1.0" encoding="UTF-8"?>
<svg version="1.1" xmlns="http://www.w3.org/2000/svg" width="960" height="132">
<path d="M0 0 C3.38798714 2.63254514 6.42138873 5.54563594 9.44921875 8.58203125 C11.85363109 11.05134478 11.85363109 11.05134478 14.59375 12.48828125 C17.59161783 14.37168198 18.93523414 16.38937019 20.8125 19.375 C21.41707031 20.31085937 22.02164063 21.24671875 22.64453125 22.2109375 C24.05652855 25.11631524 24.29475482 26.82127159 24 30 C24.66 30 25.32 30 26 30 C29.53081183 46.14085408 29.80139865 64.15289669 25 80 C24.85304688 80.84691406 24.70609375 81.69382812 24.5546875 82.56640625 C23.95186755 85.21117264 23.02473705 86.97637325 21.5625 89.25 C21.13066406 89.93578125 20.69882812 90.6215625 20.25390625 91.328125 C19 93 19 93 17 94 C16.505 95.485 16.505 95.485 16 97 C14.67891985 97.69062975 13.34320306 98.35344933 12 99 C10.55724392 100.26073861 9.16223341 101.57763726 7.8125 102.9375 C7.11769531 103.62714844 6.42289063 104.31679687 5.70703125 105.02734375 C3.79261254 106.98607133 3.79261254 106.98607133 3 110 C2.31035156 110.09539062 1.62070312 110.19078125 0.91015625 110.2890625 C-2.61179308 111.14945817 -5.37236131 112.65472043 -8.5625 114.375 C-23.50516825 122.03046271 -40.59287471 123.5367364 -56.8828125 119.1015625 C-67.18921914 115.45944888 -75.75582015 110.15282151 -84 103 C-87.31990295 100.22334934 -87.31990295 100.22334934 -91 98 C-91.33 97.01 -91.66 96.02 -92 95 C-92.60457031 94.41089844 -93.20914063 93.82179688 -93.83203125 93.21484375 C-101.66527756 85.21222995 -104.05942547 74.80355036 -104 64 C-104.02252626 62.53512054 -104.04740234 61.07027595 -104.07421875 59.60546875 C-104.13823827 55.06772722 -104.09084717 50.53701448 -104 46 C-103.97486328 44.31970703 -103.97486328 44.31970703 -103.94921875 42.60546875 C-103.47144421 32.18998372 -99.60278237 23.03041099 -93 15 C-92.34 14.67 -91.68 14.34 -91 14 C-90.71125 13.360625 -90.4225 12.72125 -90.125 12.0625 C-89 10 -89 10 -87.2421875 9.13671875 C-84.43071304 7.71138936 -82.37141025 5.82498397 -80 3.75 C-56.9664363 -15.23136268 -24.78656251 -16.17535787 0 0 Z M-100 29 C-99 31 -99 31 -99 31 Z M-101 31 C-100 33 -100 33 -100 33 Z M25 33 C26 35 26 35 26 35 Z M-102 34 C-101 36 -101 36 -101 36 Z M-52.875 40.875 C-54.13528667 43.11473679 -54.13528667 43.11473679 -55.0625 46.1875 C-56 49 -56 49 -58 50 C-58 53.3 -58 56.6 -58 60 C-57.01 60.33 -56.02 60.66 -55 61 C-54.938125 62.5778125 -54.938125 62.5778125 -54.875 64.1875 C-53.76456318 69.02583184 -52.0264441 70.23675405 -48 73 C-43.02600622 76.00974146 -37.63279288 75.61788289 -32 75 C-29.00219497 73.94894031 -26.72582077 72.67742817 -24 71 C-24 70.01 -24 69.02 -24 68 C-22.125 64.8125 -22.125 64.8125 -20 62 C-19.34 62 -18.68 62 -18 62 C-17.7763663 60.58566794 -17.57173524 59.16832382 -17.375 57.75 C-17.25898437 56.96109375 -17.14296875 56.1721875 -17.0234375 55.359375 C-16.96016204 48.98964499 -23.17123602 42.09001598 -27.1875 37.5 C-31.02215136 34.32649542 -35.39312143 34.67086338 -40.13671875 34.71484375 C-45.29655036 35.22871511 -49.22739554 37.22739554 -52.875 40.875 Z M-102 74 C-101 76 -101 76 -101 76 Z M-101 77 C-100 79 -100 79 -100 79 Z M-100 79 C-99 81 -99 81 -99 81 Z M23 80 C24 82 24 82 24 82 Z " fill="#055B9B" transform="translate(932,11)"/>
<path d="M0 0 C1.00401855 0.00829834 2.00803711 0.01659668 3.04248047 0.02514648 C15.44278329 0.30574602 25.06927933 3.62647217 35.84765625 9.8515625 C38.62180524 11.4857463 38.62180524 11.4857463 41.5 12.53515625 C44.31692903 13.69713948 44.38245704 14.75064685 45.6875 17.4375 C47.14617561 18.70168553 48.60884951 19.9625013 50.11328125 21.171875 C56.51651219 26.31988201 61.86993327 32.97804513 63.375 41.1875 C63.40851563 41.82945313 63.44203125 42.47140625 63.4765625 43.1328125 C63.75696162 46.19643247 64.524459 49.07380357 65.25 52.0625 C67.80009028 63.77541468 66.81814121 74.74230156 64.6875 86.4375 C64.543125 87.47132812 64.39875 88.50515625 64.25 89.5703125 C63.47648779 93.51307614 61.79320052 96.04120884 59.6875 99.4375 C59.0275 99.4375 58.3675 99.4375 57.6875 99.4375 C57.56375 100.241875 57.44 101.04625 57.3125 101.875 C57.10625 102.720625 56.9 103.56625 56.6875 104.4375 C55.6975 104.9325 55.6975 104.9325 54.6875 105.4375 C54.1925 106.9225 54.1925 106.9225 53.6875 108.4375 C52.37084712 109.13653319 51.03461397 109.79913789 49.6875 110.4375 C47.76933157 112.04198949 47.76933157 112.04198949 46 113.875 C45.39800781 114.47183594 44.79601562 115.06867188 44.17578125 115.68359375 C42.4677312 117.47566214 42.4677312 117.47566214 41.6875 120.4375 C41.0275 120.499375 40.3675 120.56125 39.6875 120.625 C36.87548347 121.38658781 35.43045547 122.16161835 33.0625 123.75 C19.46549026 132.56004751 2.7365158 134.05588092 -12.875 131.1875 C-26.95082936 128.09110161 -39.15212883 121.72619232 -48.84765625 110.84765625 C-50.25049149 109.32791327 -50.25049149 109.32791327 -52.234375 108.62890625 C-57.20166146 105.78111984 -61.33378283 97.75426374 -62.9453125 92.29296875 C-63.125 90.5 -63.125 90.5 -63.171875 88.640625 C-63.36734825 85.57821069 -64.15287217 82.73041851 -64.875 79.75 C-67.99320875 65.32636443 -65.55332113 52.37162657 -61.3125 38.4375 C-60.97114073 37.10619885 -60.63324044 35.77391852 -60.3125 34.4375 C-59.6525 34.4375 -58.9925 34.4375 -58.3125 34.4375 C-58.209375 33.674375 -58.10625 32.91125 -58 32.125 C-57.2434017 29.16738846 -56.49477175 28.44519001 -54.3125 26.4375 C-54.003125 25.756875 -53.69375 25.07625 -53.375 24.375 C-52.3125 22.4375 -52.3125 22.4375 -50.51171875 21.57421875 C-47.84476897 20.19574204 -46.18074342 18.43814987 -44.0625 16.3125 C-39.79606211 12.40527476 -35.50782127 9.63621887 -30.375 7.0625 C-29.74368164 6.7413623 -29.11236328 6.42022461 -28.46191406 6.08935547 C-19.26490923 1.67264889 -10.16495967 -0.10949532 0 0 Z M-14.1875 51.25 C-16.2355585 54.32208776 -17.27428716 56.92354885 -18.3125 60.4375 C-18.9725 61.0975 -19.6325 61.7575 -20.3125 62.4375 C-20.966396 67.55182021 -20.966396 67.55182021 -19.0625 72 C-18.485 72.474375 -17.9075 72.94875 -17.3125 73.4375 C-16.31978893 75.19876158 -15.3275017 76.96028103 -14.34375 78.7265625 C-11.85108706 82.86211692 -8.96044792 85.19804722 -4.3125 86.4375 C1.14124508 87.12705398 5.96301096 86.71758483 10.83203125 84.0546875 C14.04433551 81.25491074 15.65727239 77.60460013 17.4609375 73.80078125 C18.6875 71.4375 18.6875 71.4375 20.6875 70.4375 C21.11808266 64.19405138 20.54324209 61.57848945 16.6875 56.4375 C16.56375 55.756875 16.44 55.07625 16.3125 54.375 C15.24257975 51.05824722 12.48944927 49.29019076 9.6875 47.4375 C1.65488925 43.84846116 -8.09391751 44.42160315 -14.1875 51.25 Z M62.6875 87.4375 C63.6875 89.4375 63.6875 89.4375 63.6875 89.4375 Z M61.6875 89.4375 C62.6875 91.4375 62.6875 91.4375 62.6875 91.4375 Z " fill="#8CD544" transform="translate(514.3125,-0.4375)"/>
<path d="M0 0 C0.68341965 -0.0065712 1.36683929 -0.0131424 2.07096863 -0.01991272 C4.3345044 -0.03962982 6.59797355 -0.05131056 8.86157227 -0.0612793 C9.63818773 -0.06535482 10.4148032 -0.06943035 11.21495247 -0.07362938 C15.33307757 -0.09449277 19.45116942 -0.10878799 23.56933594 -0.11816406 C27.79560994 -0.12917235 32.02134925 -0.16350577 36.24743557 -0.20333576 C39.51885356 -0.2296702 42.79014805 -0.23787114 46.06166267 -0.24144554 C47.61758051 -0.24627566 49.17349419 -0.25778583 50.72930717 -0.27648354 C62.33513523 -0.40718598 72.84006053 0.80684528 82.80297852 7.36450195 C85.37026149 9.02965265 87.31936832 10.20329855 90.24047852 11.17700195 C90.73547852 12.16700195 90.73547852 12.16700195 91.24047852 13.17700195 C92.23047852 13.88856445 92.23047852 13.88856445 93.24047852 14.61450195 C95.24047852 16.17700195 95.24047852 16.17700195 96.24047852 19.17700195 C96.69422852 19.63075195 97.14797852 20.08450195 97.61547852 20.55200195 C102.05260981 24.98913325 102.73022552 29.15601658 103.24047852 35.17700195 C103.90047852 35.17700195 104.56047852 35.17700195 105.24047852 35.17700195 C105.09935983 38.6355441 104.95169543 42.09377886 104.80297852 45.55200195 C104.76366211 46.51750977 104.7243457 47.48301758 104.68383789 48.4777832 C104.41067029 54.73962507 103.93724724 60.94797505 103.24047852 67.17700195 C102.58047852 67.17700195 101.92047852 67.17700195 101.24047852 67.17700195 C101.01360352 68.39387695 100.78672852 69.61075195 100.55297852 70.86450195 C99.45162419 75.21638119 97.71003359 77.24715545 94.24047852 80.17700195 C93.74676758 80.6359082 93.25305664 81.09481445 92.74438477 81.56762695 C83.96528542 89.56776545 74.72046785 94.23856271 63.24047852 97.17700195 C63.24047852 97.83700195 63.24047852 98.49700195 63.24047852 99.17700195 C50.37047852 99.17700195 37.50047852 99.17700195 24.24047852 99.17700195 C24.24047852 104.45700195 24.24047852 109.73700195 24.24047852 115.17700195 C23.58047852 115.17700195 22.92047852 115.17700195 22.24047852 115.17700195 C22.14766602 116.81668945 22.14766602 116.81668945 22.05297852 118.48950195 C21.24047852 122.17700195 21.24047852 122.17700195 18.99047852 123.86450195 C18.08297852 124.29762695 17.17547852 124.73075195 16.24047852 125.17700195 C15.47735352 125.83700195 14.71422852 126.49700195 13.92797852 127.17700195 C8.5710207 131.16357521 2.93643993 132.98513523 -3.75952148 132.17700195 C-9.45038934 130.43216039 -14.3813477 128.29763611 -18.75952148 124.17700195 C-19.50202148 123.55825195 -20.24452148 122.93950195 -21.00952148 122.30200195 C-24.98710562 117.47207837 -23.88721895 110.06985123 -23.84472656 104.10424805 C-23.84154419 103.10517929 -23.83836182 102.10611053 -23.83508301 101.07676697 C-23.82252802 97.78459557 -23.80164985 94.49255647 -23.77905273 91.20043945 C-23.7720957 90.07458057 -23.76513866 88.94872169 -23.75797081 87.78874588 C-23.72063746 81.8383528 -23.67664747 75.88805037 -23.62744141 69.93774414 C-23.5779435 63.78625462 -23.55186038 57.63489531 -23.53101063 51.48325157 C-23.51067476 46.75457307 -23.47281359 42.0261514 -23.43015099 37.2976265 C-23.41278681 35.02902934 -23.40211055 32.7603709 -23.3982029 30.49171066 C-23.3911444 27.32432467 -23.35928589 24.15811162 -23.32128906 20.9909668 C-23.32474838 20.0516481 -23.3282077 19.11232941 -23.33177185 18.14454651 C-23.21866413 11.78518537 -23.21866413 11.78518537 -20.86528015 8.6678772 C-20.17037979 8.17588837 -19.47547943 7.68389954 -18.75952148 7.17700195 C-18.01573242 6.62657227 -17.27194336 6.07614258 -16.50561523 5.5090332 C-15.7437793 5.00758789 -14.98194336 4.50614258 -14.19702148 3.98950195 C-13.43260742 3.48032227 -12.66819336 2.97114258 -11.88061523 2.4465332 C-7.88197448 0.05323993 -4.57469076 0.03642908 0 0 Z M26.24047852 42.17700195 C26.24047852 42.50700195 26.24047852 42.83700195 26.24047852 43.17700195 C36.47047852 43.17700195 46.70047852 43.17700195 57.24047852 43.17700195 C57.24047852 42.84700195 57.24047852 42.51700195 57.24047852 42.17700195 C47.01047852 42.17700195 36.78047852 42.17700195 26.24047852 42.17700195 Z M50.48266602 43.39575195 C49.48808884 43.42904602 49.48808884 43.42904602 48.47341919 43.4630127 C46.35409502 43.53403023 44.23478675 43.60551069 42.11547852 43.67700195 C40.67928162 43.72520951 39.24308372 43.77338697 37.80688477 43.8215332 C34.28473755 43.93967346 30.76260445 44.05822892 27.24047852 44.17700195 C27.04641374 45.82207413 26.86039916 47.4680979 26.67797852 49.11450195 C26.57356445 50.03102539 26.46915039 50.94754883 26.36157227 51.8918457 C26.32161133 52.64594727 26.28165039 53.40004883 26.24047852 54.17700195 C28.8586696 56.79519303 36.21079927 55.40686309 39.96850586 55.41723633 C42.09992655 55.42693121 44.2303786 55.45793602 46.36157227 55.48950195 C47.71443111 55.49603295 49.06729687 55.50128305 50.42016602 55.50512695 C51.65492676 55.51447266 52.8896875 55.52381836 54.16186523 55.53344727 C57.21248614 55.44195937 57.21248614 55.44195937 59.10424805 53.78149414 C60.86229096 51.29892902 61.24047852 50.31511755 61.24047852 47.17700195 C60.29068955 45.02671892 60.29068955 45.02671892 59.24047852 43.17700195 C56.31863778 43.17700195 53.4028415 43.29759479 50.48266602 43.39575195 Z M25.24047852 46.17700195 C25.24047852 47.82700195 25.24047852 49.47700195 25.24047852 51.17700195 C25.57047852 51.17700195 25.90047852 51.17700195 26.24047852 51.17700195 C26.24047852 49.52700195 26.24047852 47.87700195 26.24047852 46.17700195 C25.91047852 46.17700195 25.58047852 46.17700195 25.24047852 46.17700195 Z M-22.75952148 115.17700195 C-21.75952148 117.17700195 -21.75952148 117.17700195 -21.75952148 117.17700195 Z " fill="#FEDD08" transform="translate(186.759521484375,-0.177001953125)"/>
<path d="M0 0 C3.5801385 3.14353624 5.58534283 5.16233301 6 10 C6.66 10 7.32 10 8 10 C8.90522939 13.09870984 9.12925515 15.87733186 9.1418457 19.10058594 C9.14888016 20.11554138 9.15591461 21.13049683 9.16316223 22.1762085 C9.16732651 23.26790344 9.17149078 24.35959839 9.17578125 25.484375 C9.19898198 27.80469655 9.22309942 30.12500908 9.24804688 32.4453125 C9.28312846 36.09674092 9.31249204 39.74783777 9.32592773 43.39941406 C9.34144649 46.92814115 9.38168399 50.45590415 9.42578125 53.984375 C9.42387283 55.06797302 9.42196442 56.15157104 9.41999817 57.26800537 C9.52622118 63.88685026 10.55714539 68.36684732 14 74 C14.46488579 75.04411041 14.46488579 75.04411041 14.93916321 76.10931396 C16.37053222 78.66038443 18.26295292 79.44746867 20.94140625 80.4609375 C27.51846648 82.18320375 33.02747851 81.21597311 39 78 C41.93043871 76.38962805 41.93043871 76.38962805 44 74 C44.89055736 70.35817665 44.89055736 70.35817665 45 67 C45.66 67 46.32 67 47 67 C47.33 50.17 47.66 33.34 48 16 C47.67 16 47.34 16 47 16 C47.46420255 11.26513401 48.0609895 7.80982842 51 4 C52.875 2.9375 52.875 2.9375 55 2 C55.721875 1.360625 56.44375 0.72125 57.1875 0.0625 C62.14402742 -3.57228677 67.38074451 -5.3859175 73.5625 -4.9375 C78.21109936 -4.19924076 81.95997799 -2.33756732 86 0 C86.94875 0.474375 87.8975 0.94875 88.875 1.4375 C92.75562884 4.29090356 93.21776296 8.46804494 94 13 C94.09763549 14.85221021 94.14788931 16.70727725 94.16113281 18.56201172 C94.17074036 19.65440155 94.1803479 20.74679138 94.19024658 21.87228394 C94.1966214 23.6331987 94.1966214 23.6331987 94.203125 25.4296875 C94.20882507 26.65221222 94.21452515 27.87473694 94.22039795 29.13430786 C94.22984117 31.72494647 94.23637924 34.31559705 94.24023438 36.90625 C94.24987879 40.82574174 94.28088423 44.74469512 94.3125 48.6640625 C94.36476275 61.15226619 94.28346222 72.90110874 91 85 C90.74851196 86.33091675 90.74851196 86.33091675 90.49194336 87.6887207 C89.17381861 93.88161748 85.03885878 100.43832094 80.0625 104.25 C79.051875 104.8275 78.04125 105.405 77 106 C75.78924741 107.22749111 74.60431084 108.48066603 73.4375 109.75 C61.79062053 121.57301376 46.9355903 127.05223825 30.61889648 127.53857422 C14.93957198 127.65203311 3.84344623 124.43656202 -10 117 C-10.66 116.67 -11.32 116.34 -12 116 C-13.66666667 114.33333333 -15.33333333 112.66666667 -17 111 C-19.87491227 108.46458742 -22.80622283 106.12918478 -26 104 C-26.33 103.01 -26.66 102.02 -27 101 C-27.639375 100.443125 -28.27875 99.88625 -28.9375 99.3125 C-31.81485339 96.0863765 -32.05160536 93.20003342 -33 89 C-33.66 88.34 -34.32 87.68 -35 87 C-38.35071204 81.97393194 -38.12855532 76.76003471 -38.16113281 70.84887695 C-38.16609772 70.16031616 -38.17106262 69.47175537 -38.17617798 68.7623291 C-38.19068205 66.50430273 -38.19757828 64.24634637 -38.203125 61.98828125 C-38.20888183 60.41220601 -38.21463949 58.83613078 -38.22039795 57.26005554 C-38.23087137 53.96592891 -38.23673935 50.67182646 -38.24023438 47.37768555 C-38.24574157 43.15407483 -38.26983182 38.93078283 -38.29820633 34.70727253 C-38.31680346 31.45681305 -38.32203652 28.20643127 -38.32357025 24.95592308 C-38.32659896 23.39816718 -38.33463488 21.84041271 -38.34775543 20.28270912 C-38.36477125 18.10920157 -38.36294833 15.93648619 -38.35644531 13.76293945 C-38.36009094 12.52639114 -38.36373657 11.28984283 -38.36749268 10.01582336 C-38 7 -38 7 -36.58563232 5.17106628 C-36.06237366 4.78461441 -35.53911499 4.39816254 -35 4 C-34.43023437 3.505 -33.86046875 3.01 -33.2734375 2.5 C-22.00837953 -6.40078655 -12.49523849 -6.24761925 0 0 Z M49 9 C50 11 50 11 50 11 Z M7 14 C7 30.83 7 47.66 7 65 C7.33 65 7.66 65 8 65 C8 48.17 8 31.34 8 14 C7.67 14 7.34 14 7 14 Z M-37 78 C-36 81 -36 81 -36 81 Z M-36 82 C-35 84 -35 84 -35 84 Z M89 86 C90 88 90 88 90 88 Z " fill="#035D9C" transform="translate(38,5)"/>
<path d="M0 0 C1.71196193 -0.00456911 3.42392203 -0.00987684 5.13587952 -0.0158844 C8.71232587 -0.02478531 12.28854857 -0.02242691 15.86499023 -0.01245117 C20.42539911 -0.000964 24.98503333 -0.0211843 29.54534054 -0.05036831 C33.0774874 -0.06880229 36.60945105 -0.06842361 40.14163399 -0.06273079 C41.8219874 -0.06257846 43.50235393 -0.06854888 45.18266106 -0.08102226 C56.51724296 -0.15332413 66.70162759 0.23733148 75.41015625 8.43359375 C76.10625 8.97628906 76.80234375 9.51898438 77.51953125 10.078125 C80.1141856 13.31072123 79.93467988 16.15940764 79.78515625 20.12109375 C79.76864014 20.83354248 79.75212402 21.54599121 79.73510742 22.2800293 C79.56000381 27.56863961 79.19690423 32.41368276 77.41015625 37.43359375 C75.28515625 39.18359375 75.28515625 39.18359375 72.41015625 40.43359375 C71.06917011 41.29681965 69.73634374 42.17280059 68.41015625 43.05859375 C65.42828118 44.93920814 62.98252979 46.09868373 59.41015625 46.43359375 C59.41015625 47.09359375 59.41015625 47.75359375 59.41015625 48.43359375 C42.91015625 48.43359375 26.41015625 48.43359375 9.41015625 48.43359375 C9.41015625 50.08359375 9.41015625 51.73359375 9.41015625 53.43359375 C13.70015625 53.43359375 17.99015625 53.43359375 22.41015625 53.43359375 C22.41015625 54.09359375 22.41015625 54.75359375 22.41015625 55.43359375 C22.94125 55.68753906 23.47234375 55.94148438 24.01953125 56.203125 C31.25300333 59.72746267 31.25300333 59.72746267 34.41015625 62.43359375 C35.13203125 63.03171875 35.85390625 63.62984375 36.59765625 64.24609375 C39.50427052 67.75407649 39.50894309 71.24099316 39.140625 75.6875 C38.96144531 76.77933594 38.78226562 77.87117188 38.59765625 78.99609375 C38.34048828 80.63771484 38.34048828 80.63771484 38.078125 82.3125 C36.50480403 89.66386523 36.50480403 89.66386523 32.94921875 92.1640625 C31.98757813 92.64488281 31.0259375 93.12570313 30.03515625 93.62109375 C28.60042969 94.35392578 28.60042969 94.35392578 27.13671875 95.1015625 C26.23695313 95.54113281 25.3371875 95.98070313 24.41015625 96.43359375 C23.63414062 96.82160156 22.858125 97.20960937 22.05859375 97.609375 C21.51460938 97.88136719 20.970625 98.15335937 20.41015625 98.43359375 C20.41015625 98.76359375 20.41015625 99.09359375 20.41015625 99.43359375 C16.78015625 99.43359375 13.15015625 99.43359375 9.41015625 99.43359375 C9.41015625 104.71359375 9.41015625 109.99359375 9.41015625 115.43359375 C8.75015625 115.43359375 8.09015625 115.43359375 7.41015625 115.43359375 C7.36890625 116.44421875 7.32765625 117.45484375 7.28515625 118.49609375 C6.60728335 123.25088797 4.01332025 126.37873731 0.41015625 129.43359375 C-2.21484375 130.24609375 -2.21484375 130.24609375 -4.58984375 130.43359375 C-5.15960938 130.75972656 -5.729375 131.08585938 -6.31640625 131.421875 C-11.78087896 133.85365925 -19.51096424 133.38927042 -25.14453125 131.640625 C-27.07885043 130.68806405 -28.82335454 129.66654942 -30.58984375 128.43359375 C-31.33234375 127.93859375 -32.07484375 127.44359375 -32.83984375 126.93359375 C-33.41734375 126.43859375 -33.99484375 125.94359375 -34.58984375 125.43359375 C-35.27526245 124.95519043 -35.96068115 124.47678711 -36.66687012 123.98388672 C-39.68433601 119.98205232 -39.14739009 116.01188867 -39.10742188 111.12890625 C-39.11443115 110.08136169 -39.12144043 109.03381714 -39.12866211 107.95452881 C-39.1462793 104.48894814 -39.13460554 101.02418285 -39.12109375 97.55859375 C-39.12378758 95.15250491 -39.12766908 92.74641714 -39.13269043 90.34033203 C-39.13859055 85.2964441 -39.1300056 80.25283941 -39.11132812 75.20898438 C-39.08853874 68.73883519 -39.10165901 62.26934968 -39.12561798 55.79922485 C-39.14006179 50.83043402 -39.13547638 45.86180092 -39.12510681 40.89300537 C-39.12243563 38.50714032 -39.12572297 36.12126101 -39.13502502 33.7354126 C-39.14516685 30.40264878 -39.12972136 27.07096452 -39.10742188 23.73828125 C-39.1155188 22.74906677 -39.12361572 21.75985229 -39.13195801 20.74066162 C-39.04879062 14.0422715 -39.04879062 14.0422715 -36.67150879 10.8894043 C-35.98455933 10.40898682 -35.29760986 9.92856934 -34.58984375 9.43359375 C-33.98785156 8.90636719 -33.38585937 8.37914062 -32.765625 7.8359375 C-31.84330078 7.11083984 -31.84330078 7.11083984 -30.90234375 6.37109375 C-30.30035156 5.88511719 -29.69835937 5.39914063 -29.078125 4.8984375 C-19.89321927 -0.50868911 -10.28671476 -0.02411472 0 0 Z M-37.58984375 14.43359375 C-36.58984375 16.43359375 -36.58984375 16.43359375 -36.58984375 16.43359375 Z M7.41015625 48.43359375 C7.41015625 50.08359375 7.41015625 51.73359375 7.41015625 53.43359375 C7.74015625 53.43359375 8.07015625 53.43359375 8.41015625 53.43359375 C8.41015625 51.78359375 8.41015625 50.13359375 8.41015625 48.43359375 C8.08015625 48.43359375 7.75015625 48.43359375 7.41015625 48.43359375 Z M37.41015625 69.43359375 C38.41015625 72.43359375 38.41015625 72.43359375 38.41015625 72.43359375 Z M-37.58984375 118.43359375 C-36.58984375 120.43359375 -36.58984375 120.43359375 -36.58984375 120.43359375 Z " fill="#FD1A8F" transform="translate(355.58984375,-0.43359375)"/>
<path d="M0 0 C3.05320701 1.7824749 5.48064333 3.80261747 8.07421875 6.2109375 C9.00234375 6.9534375 9.00234375 6.9534375 9.94921875 7.7109375 C11.56386345 9.8637971 11.28594107 11.5996956 11.07421875 14.2109375 C11.73421875 14.2109375 12.39421875 14.2109375 13.07421875 14.2109375 C13.07421875 36.6509375 13.07421875 59.0909375 13.07421875 82.2109375 C30.23421875 82.2109375 47.39421875 82.2109375 65.07421875 82.2109375 C65.07421875 82.8709375 65.07421875 83.5309375 65.07421875 84.2109375 C66.27046875 84.7678125 67.46671875 85.3246875 68.69921875 85.8984375 C72.71271422 87.90163347 75.75558844 90.20101698 79.07421875 93.2109375 C79.88427368 93.88636597 79.88427368 93.88636597 80.71069336 94.57543945 C83.42151224 97.82696599 82.62839155 102.34864192 82.63671875 106.3984375 C82.67345703 107.31947266 82.71019531 108.24050781 82.74804688 109.18945312 C82.78717984 115.31593624 81.63363616 118.87999627 77.77587891 123.65185547 C74.84328331 126.33873574 71.88399162 127.14919752 68.07421875 128.2109375 C67.08421875 128.5409375 66.09421875 128.8709375 65.07421875 129.2109375 C62.44942684 129.31733486 59.85079657 129.36817994 57.22558594 129.37207031 C56.02747536 129.37951767 56.02747536 129.37951767 54.80516052 129.38711548 C52.16046285 129.40172978 49.51582519 129.40853858 46.87109375 129.4140625 C45.03127033 129.41981542 43.19144693 129.42557314 41.35162354 129.43133545 C37.49141155 129.44184395 33.63122037 129.44768732 29.77099609 129.45117188 C24.83363313 129.45665028 19.89654681 129.48066495 14.95927048 129.50914383 C11.15705574 129.52780462 7.35490711 129.53297769 3.55265045 129.53450775 C1.73304994 129.53752803 -0.08654959 129.54553543 -1.90610504 129.55869293 C-4.45747147 129.57582231 -7.00816909 129.57385631 -9.55957031 129.56738281 C-10.30580154 129.5765976 -11.05203278 129.58581238 -11.82087708 129.5953064 C-18.18094321 129.54496947 -24.33626823 127.80045052 -28.92578125 123.2109375 C-29.58578125 122.5921875 -30.24578125 121.9734375 -30.92578125 121.3359375 C-34.08754341 117.97656521 -35.18013712 115.32607536 -35.14851379 110.72593689 C-35.14718445 109.83287338 -35.1458551 108.93980988 -35.14448547 108.01968384 C-35.13265732 107.04759979 -35.12082916 106.07551575 -35.10864258 105.07397461 C-35.10399994 104.0443309 -35.0993573 103.01468719 -35.09457397 101.95384216 C-35.07618441 98.54849374 -35.04266206 95.14349831 -35.0078125 91.73828125 C-34.98925742 89.37464247 -34.97117185 87.01099995 -34.95353699 84.64735413 C-34.91402362 79.69344268 -34.86665002 74.73967947 -34.81420898 69.78588867 C-34.7478423 63.42802177 -34.70425656 57.07022977 -34.66695118 50.71213436 C-34.63525735 45.83167571 -34.58986991 40.95141654 -34.54047203 36.07110786 C-34.51871848 33.72632225 -34.50165196 31.38148842 -34.48929787 29.03663445 C-34.47032912 25.76359903 -34.43257159 22.49130608 -34.38989258 19.21850586 C-34.38818558 18.24439758 -34.38647858 17.27028931 -34.38471985 16.2666626 C-34.36929138 15.37641891 -34.35386292 14.48617523 -34.33796692 13.56895447 C-34.33076032 12.79523467 -34.32355371 12.02151487 -34.31612873 11.22434902 C-33.82392009 8.68553782 -32.88571533 7.84329519 -30.92578125 6.2109375 C-30.3328125 5.7159375 -29.73984375 5.2209375 -29.12890625 4.7109375 C-19.59052891 -2.6145363 -11.14708481 -5.48599986 0 0 Z M-33.92578125 113.2109375 C-32.92578125 115.2109375 -32.92578125 115.2109375 -32.92578125 115.2109375 Z " fill="#0DAFB2" transform="translate(643.92578125,2.7890625)"/>
<path d="M0 0 C-0.86625 0.40992188 -0.86625 0.40992188 -1.75 0.828125 C-8.90000882 4.55208793 -14.40326673 9.20980018 -17 17 C-17.9070839 24.90458828 -16.83516438 30.61544593 -12 37 C-8.27528521 40.72471479 -3.7283325 42.79422702 1 45 C0.40445313 45.29003906 -0.19109375 45.58007812 -0.8046875 45.87890625 C-5.01726904 48.0301712 -8.35704189 50.03556283 -11 54 C-11.66158043 56.04584079 -11.66158043 56.04584079 -12.125 58.1875 C-12.558125 60.0746875 -12.558125 60.0746875 -13 62 C-13.66 62 -14.32 62 -15 62 C-15 64.64 -15 67.28 -15 70 C-14.34 70 -13.68 70 -13 70 C-9 78 -9 78 -8.0390625 80.16796875 C-6.27321204 83.28144193 -3.2705965 84.03648548 0 85 C2.31020993 85.44943586 4.62298015 85.88581467 6.9375 86.3125 C14.35164568 87.84727538 18.8803265 90.06783168 23.58984375 96.00390625 C27.32496802 101.78765824 28.0515905 107.23977537 27 114 C25.14908459 120.56442669 20.68861564 125.36941784 15 129 C12.50786299 129.78847273 10.64247781 129.94494838 8 130 C8 130.66 8 131.32 8 132 C-9.89639706 132.94191563 -25.09671791 126.7813963 -39 116 C-40.94681734 114.20241604 -42.77317202 112.3871306 -44.53515625 110.41015625 C-45.93799149 108.89041327 -45.93799149 108.89041327 -47.921875 108.19140625 C-52.88916146 105.34361984 -57.02128283 97.31676374 -58.6328125 91.85546875 C-58.8125 90.0625 -58.8125 90.0625 -58.859375 88.203125 C-59.05484825 85.14071069 -59.84037217 82.29291851 -60.5625 79.3125 C-63.68070875 64.88886443 -61.24082113 51.93412657 -57 38 C-56.65864073 36.66869885 -56.32074044 35.33641852 -56 34 C-55.34 34 -54.68 34 -54 34 C-53.896875 33.236875 -53.79375 32.47375 -53.6875 31.6875 C-52.9309017 28.72988846 -52.18227175 28.00769001 -50 26 C-49.690625 25.319375 -49.38125 24.63875 -49.0625 23.9375 C-48 22 -48 22 -46.19921875 21.13671875 C-43.53226897 19.75824204 -41.86824342 18.00064987 -39.75 15.875 C-29.48904946 6.47796996 -14.13833989 -0.94255599 0 0 Z " fill="#EC6D00" transform="translate(510,0)"/>
<path d="M0 0 C-1.051875 0.7425 -1.051875 0.7425 -2.125 1.5 C-6.57185886 5.36683379 -11.71182812 10.66476479 -12.23828125 16.7578125 C-12.46604104 26.5763612 -12.46604104 26.5763612 -8 35 C-3.14871942 39.89725579 -3.14871942 39.89725579 3 42 C3 42.99 3 43.98 3 45 C1.35546875 46.0703125 1.35546875 46.0703125 -0.8125 47.125 C-4.43852065 49.21076409 -5.71731108 50.82677882 -7 54.8125 C-7.36243067 56.2010625 -7.70620902 57.5953119 -8 59 C-8.66 59 -9.32 59 -10 59 C-10.08121924 60.60332791 -10.13929134 62.20784026 -10.1875 63.8125 C-10.23970703 65.15248047 -10.23970703 65.15248047 -10.29296875 66.51953125 C-9.94329235 69.48012474 -9.17055534 70.07861556 -7 72 C-6.773125 72.94875 -6.54625 73.8975 -6.3125 74.875 C-4.39369916 79.44357343 -1.48405832 81.0967984 3 83 C5.85672958 83.7161284 8.66661165 84.22942336 11.58203125 84.640625 C17.57732196 85.53168598 22.89310129 88.40604602 26.8125 93 C31.5927186 99.55572836 31.760405 104.96280793 31 113 C29.33468522 119.17263382 25.34037923 123.59506022 20 127 C17.125 127.75 17.125 127.75 15 128 C14.67 128.66 14.34 129.32 14 130 C-6.13722466 130.81515002 -21.73673966 125.24272141 -37 112 C-40.31990295 109.22334934 -40.31990295 109.22334934 -44 107 C-44.33 106.01 -44.66 105.02 -45 104 C-45.60457031 103.41089844 -46.20914063 102.82179688 -46.83203125 102.21484375 C-54.66527756 94.21222995 -57.05942547 83.80355036 -57 73 C-57.02252626 71.53512054 -57.04740234 70.07027595 -57.07421875 68.60546875 C-57.13823827 64.06772722 -57.09084717 59.53701448 -57 55 C-56.97486328 53.31970703 -56.97486328 53.31970703 -56.94921875 51.60546875 C-56.47144421 41.18998372 -52.60278237 32.03041099 -46 24 C-45.34 23.67 -44.68 23.34 -44 23 C-43.71125 22.360625 -43.4225 21.72125 -43.125 21.0625 C-42 19 -42 19 -40.2421875 18.13671875 C-37.43071304 16.71138936 -35.37141025 14.82498397 -33 12.75 C-24.55701331 5.75727334 -11.4443092 -2.92667519 0 0 Z M-53 38 C-52 40 -52 40 -52 40 Z M-54 40 C-53 42 -53 42 -53 42 Z M-55 43 C-54 45 -54 45 -54 45 Z M-55 83 C-54 85 -54 85 -54 85 Z M-54 86 C-53 88 -53 88 -53 88 Z M-53 88 C-52 90 -52 90 -52 90 Z " fill="#FE1A8F" transform="translate(885,2)"/>
<path d="M0 0 C2.91878719 1.48016788 5.6063955 3.004296 8.0625 5.1875 C8.784375 5.80625 9.50625 6.425 10.25 7.0625 C14.24430906 11.74548304 13.18241999 18.41875882 13.13183594 24.25439453 C13.12465294 25.76981842 13.12465294 25.76981842 13.11732483 27.31585693 C13.09965961 30.6507401 13.07391375 33.98549291 13.046875 37.3203125 C13.03018183 39.63768492 13.01351966 41.95505756 12.99688721 44.27243042 C12.96043726 49.12616057 12.91920917 53.97982635 12.87548828 58.83349609 C12.8203893 65.06243099 12.7839204 71.29132803 12.75185776 77.52041817 C12.72404584 82.30392662 12.68299549 87.08725488 12.63825226 91.87063217 C12.61902124 94.16797198 12.60474364 96.46535866 12.59545135 98.76276016 C12.58117686 101.96860823 12.54830762 105.17374668 12.51074219 108.37939453 C12.51060623 109.33323029 12.51047028 110.28706604 12.5103302 111.26980591 C12.49634689 112.14177612 12.48236359 113.01374634 12.46795654 113.91213989 C12.46204876 114.66981218 12.45614098 115.42748447 12.45005417 116.20811653 C11.95863438 118.71798041 10.98984499 119.56243576 9.0625 121.1875 C8.54171875 121.6825 8.0209375 122.1775 7.484375 122.6875 C1.13142587 128.38734221 -4.55474026 130.7754779 -13.15234375 130.55078125 C-17.53620107 129.97897377 -21.08662914 128.2768834 -24.9375 126.1875 C-25.64648438 125.85234375 -26.35546875 125.5171875 -27.0859375 125.171875 C-29.48501583 123.89641563 -30.5172165 122.48700662 -31.9375 120.1875 C-32.5625 118.125 -32.5625 118.125 -32.9375 116.1875 C-33.2675 115.1975 -33.5975 114.2075 -33.9375 113.1875 C-34.02477179 111.76452979 -34.05682701 110.33777978 -34.05343628 108.91213989 C-34.05362259 108.04016968 -34.0538089 107.16819946 -34.05400085 106.26980591 C-34.04891006 105.31597015 -34.04381927 104.3621344 -34.03857422 103.37939453 C-34.0362101 101.8692276 -34.0362101 101.8692276 -34.03379822 100.32855225 C-34.02629519 96.99241614 -34.01028355 93.65640726 -33.9921875 90.3203125 C-33.98647861 89.18191799 -33.98076973 88.04352348 -33.97488785 86.87063217 C-33.94334193 80.84777923 -33.90439329 74.82501986 -33.86035156 68.80224609 C-33.81655214 62.57561391 -33.80077601 56.34923391 -33.79112053 50.12246895 C-33.77826619 45.33881337 -33.74357915 40.55549269 -33.70300674 35.77199936 C-33.68749736 33.47631802 -33.68042532 31.18056372 -33.68191147 28.88483047 C-33.68209055 25.67402747 -33.65121334 22.46493551 -33.61279297 19.25439453 C-33.61984756 18.30460724 -33.62690216 17.35481995 -33.63417053 16.37625122 C-33.54761162 11.83632348 -33.44861327 9.83757315 -30.56570435 6.17086792 C-21.09363812 -0.97720347 -11.39814401 -4.78647551 0 0 Z M11.0625 12.1875 C12.0625 14.1875 12.0625 14.1875 12.0625 14.1875 Z " fill="#FEDD08" transform="translate(788.9375,1.8125)"/>
<path d="M0 0 C3.5801385 3.14353624 5.58534283 5.16233301 6 10 C6.66 10 7.32 10 8 10 C7.98667633 11.72981865 7.98667633 11.72981865 7.9730835 13.49458313 C7.89177632 24.39576451 7.83192859 35.29688385 7.79275131 46.19830036 C7.77193232 51.80200717 7.74371885 57.40546795 7.69824219 63.0090332 C7.65458131 68.42312709 7.63082017 73.83698525 7.62049103 79.25124168 C7.61313589 81.31038304 7.5987735 83.36951241 7.57707977 85.42855263 C7.34549616 104.9910724 7.34549616 104.9910724 17.18359375 121.40625 C19.57413568 123.50375776 22.04582514 124.84715127 25 126 C25 126.33 25 126.66 25 127 C12.07092097 128.05067008 1.17132745 123.00112632 -10 117 C-10.66 116.67 -11.32 116.34 -12 116 C-13.66666667 114.33333333 -15.33333333 112.66666667 -17 111 C-19.87491227 108.46458742 -22.80622283 106.12918478 -26 104 C-26.33 103.01 -26.66 102.02 -27 101 C-27.639375 100.443125 -28.27875 99.88625 -28.9375 99.3125 C-31.81485339 96.0863765 -32.05160536 93.20003342 -33 89 C-33.66 88.34 -34.32 87.68 -35 87 C-38.35071204 81.97393194 -38.12855532 76.76003471 -38.16113281 70.84887695 C-38.16609772 70.16031616 -38.17106262 69.47175537 -38.17617798 68.7623291 C-38.19068205 66.50430273 -38.19757828 64.24634637 -38.203125 61.98828125 C-38.20888183 60.41220601 -38.21463949 58.83613078 -38.22039795 57.26005554 C-38.23087137 53.96592891 -38.23673935 50.67182646 -38.24023438 47.37768555 C-38.24574157 43.15407483 -38.26983182 38.93078283 -38.29820633 34.70727253 C-38.31680346 31.45681305 -38.32203652 28.20643127 -38.32357025 24.95592308 C-38.32659896 23.39816718 -38.33463488 21.84041271 -38.34775543 20.28270912 C-38.36477125 18.10920157 -38.36294833 15.93648619 -38.35644531 13.76293945 C-38.36009094 12.52639114 -38.36373657 11.28984283 -38.36749268 10.01582336 C-38 7 -38 7 -36.58563232 5.17106628 C-36.06237366 4.78461441 -35.53911499 4.39816254 -35 4 C-34.43023437 3.505 -33.86046875 3.01 -33.2734375 2.5 C-22.00837953 -6.40078655 -12.49523849 -6.24761925 0 0 Z M-37 78 C-36 81 -36 81 -36 81 Z M-36 82 C-35 84 -35 84 -35 84 Z " fill="#11C8F7" transform="translate(38,5)"/>
<path d="M0 0 C1.80152779 0.0001133 1.80152779 0.0001133 3.63945007 0.00022888 C5.58486443 0.00797081 5.58486443 0.00797081 7.56958008 0.01586914 C8.91050667 0.01773462 10.25143394 0.01915791 11.59236145 0.02015686 C15.11870206 0.02397183 18.64500137 0.0337934 22.17132568 0.04486084 C25.77086834 0.05509689 29.37041768 0.05965918 32.9699707 0.06469727 C40.03053446 0.07541659 47.09107019 0.09248077 54.15161133 0.11352539 C54.15161133 0.77352539 54.15161133 1.43352539 54.15161133 2.11352539 C55.00625977 2.2662793 55.00625977 2.2662793 55.87817383 2.42211914 C63.35622537 4.69637193 69.12560589 11.71151674 73.15161133 18.11352539 C73.52415039 18.67426758 73.89668945 19.23500977 74.28051758 19.81274414 C76.85302136 26.60738418 76.4207541 36.63162395 73.94848633 43.41430664 C71.55484916 47.49436999 69.15019519 50.52094764 65.15161133 53.11352539 C64.49161133 53.11352539 63.83161133 53.11352539 63.15161133 53.11352539 C62.82161133 54.10352539 62.49161133 55.09352539 62.15161133 56.11352539 C60.83161133 55.45352539 59.51161133 54.79352539 58.15161133 54.11352539 C59.14161133 53.12352539 59.14161133 53.12352539 60.15161133 52.11352539 C60.48161133 51.12352539 60.81161133 50.13352539 61.15161133 49.11352539 C60.82161133 48.78352539 60.49161133 48.45352539 60.15161133 48.11352539 C60.15161133 46.79352539 60.15161133 45.47352539 60.15161133 44.11352539 C49.59161133 44.11352539 39.03161133 44.11352539 28.15161133 44.11352539 C28.15161133 47.74352539 28.15161133 51.37352539 28.15161133 55.11352539 C27.29519043 55.12287109 26.43876953 55.1322168 25.55639648 55.1418457 C22.33163714 55.18626508 19.10777463 55.24805769 15.88354492 55.32104492 C14.49694657 55.34900183 13.11019633 55.3703401 11.72338867 55.38452148 C0.4181944 55.50696041 -8.75669367 56.75788961 -17.37573242 64.55102539 C-19.02678135 66.30280144 -20.41731177 68.17994619 -21.84838867 70.11352539 C-21.94111381 62.49008923 -22.01216622 54.86671162 -22.05563736 47.24283981 C-22.07650279 43.70262467 -22.10479993 40.16279565 -22.15014648 36.62280273 C-22.20196606 32.55196448 -22.22134236 28.48153112 -22.23901367 24.41040039 C-22.25965881 23.14049255 -22.28030396 21.87058472 -22.30157471 20.56219482 C-22.30187683 19.38127258 -22.30217896 18.20035034 -22.30249023 16.98364258 C-22.31137268 15.94439636 -22.32025513 14.90515015 -22.32940674 13.83441162 C-21.5735579 9.55894082 -18.94638401 7.92608 -15.59448242 5.44555664 C-14.45172852 4.69338867 -14.45172852 4.69338867 -13.28588867 3.92602539 C-12.52147461 3.4168457 -11.75706055 2.90766602 -10.96948242 2.38305664 C-7.23175497 0.14592695 -4.26775687 -0.00894708 0 0 Z M27.15161133 42.11352539 C27.15161133 42.44352539 27.15161133 42.77352539 27.15161133 43.11352539 C37.38161133 43.11352539 47.61161133 43.11352539 58.15161133 43.11352539 C58.15161133 42.78352539 58.15161133 42.45352539 58.15161133 42.11352539 C47.92161133 42.11352539 37.69161133 42.11352539 27.15161133 42.11352539 Z M26.15161133 46.11352539 C26.15161133 47.76352539 26.15161133 49.41352539 26.15161133 51.11352539 C26.48161133 51.11352539 26.81161133 51.11352539 27.15161133 51.11352539 C27.15161133 49.46352539 27.15161133 47.81352539 27.15161133 46.11352539 C26.82161133 46.11352539 26.49161133 46.11352539 26.15161133 46.11352539 Z " fill="#7DBE07" transform="translate(185.848388671875,-0.113525390625)"/>
<path d="M0 0 C2.04062185 -0.04197759 4.08094526 -0.06982664 6.12185669 -0.09317017 C7.31246704 -0.11025024 8.50307739 -0.12733032 9.72976685 -0.14492798 C15.77537124 0.2224896 20.34761107 3.14944073 24.89529419 7.04745483 C25.97810669 7.94464233 25.97810669 7.94464233 27.08279419 8.85995483 C29.98940846 12.36793757 29.99408103 15.85485424 29.62576294 20.30136108 C29.44658325 21.39319702 29.26740356 22.48503296 29.08279419 23.60995483 C28.91134888 24.7043689 28.73990356 25.79878296 28.56326294 26.92636108 C26.98994197 34.27772632 26.98994197 34.27772632 23.43435669 36.77792358 C22.47271606 37.2587439 21.51107544 37.73956421 20.52029419 38.23495483 C19.08556763 38.96778687 19.08556763 38.96778687 17.62185669 39.71542358 C16.72209106 40.1549939 15.82232544 40.59456421 14.89529419 41.04745483 C14.11927856 41.43546265 13.34326294 41.82347046 12.54373169 42.22323608 C11.99974731 42.49522827 11.45576294 42.76722046 10.89529419 43.04745483 C10.89529419 43.37745483 10.89529419 43.70745483 10.89529419 44.04745483 C7.26529419 44.04745483 3.63529419 44.04745483 -0.10470581 44.04745483 C-0.10470581 49.32745483 -0.10470581 54.60745483 -0.10470581 60.04745483 C-0.76470581 60.04745483 -1.42470581 60.04745483 -2.10470581 60.04745483 C-2.14595581 61.05807983 -2.18720581 62.06870483 -2.22970581 63.10995483 C-2.90757871 67.86474906 -5.50154181 70.9925984 -9.10470581 74.04745483 C-11.72970581 74.85995483 -11.72970581 74.85995483 -14.10470581 75.04745483 C-14.67447144 75.37358765 -15.24423706 75.69972046 -15.83126831 76.03573608 C-21.29574102 78.46752033 -29.0258263 78.0031315 -34.65939331 76.25448608 C-36.59371249 75.30192513 -38.3382166 74.2804105 -40.10470581 73.04745483 C-40.84720581 72.55245483 -41.58970581 72.05745483 -42.35470581 71.54745483 C-42.93220581 71.05245483 -43.50970581 70.55745483 -44.10470581 70.04745483 C-44.78911743 69.5738855 -45.47352905 69.10031616 -46.17868042 68.61239624 C-49.22252672 64.55882174 -48.69566137 60.44771277 -48.67111206 55.50839233 C-48.67731064 54.4723587 -48.68350922 53.43632507 -48.68989563 52.36889648 C-48.69699863 50.17500751 -48.69381148 47.9810647 -48.68112183 45.78720093 C-48.66734021 42.4549514 -48.70122071 39.12555728 -48.73947144 35.79354858 C-48.74042351 33.65682915 -48.73855907 31.52010625 -48.73361206 29.38339233 C-48.74687027 28.397612 -48.76012848 27.41183167 -48.77378845 26.3961792 C-48.68106383 19.38747967 -47.13037335 13.85758287 -43.10470581 8.04745483 C-37.80405232 3.14136209 -33.8885049 0.95333991 -26.65548706 0.73104858 C-26.00581467 0.71026749 -25.35614227 0.68948639 -24.68678284 0.66807556 C-23.30231357 0.62476021 -21.91777141 0.58372465 -20.53317261 0.54476929 C-18.47022957 0.48645372 -16.40762192 0.42095428 -14.34494019 0.35409546 C-9.56384525 0.20460432 -4.78213616 0.1078229 0 0 Z M27.89529419 14.04745483 C28.89529419 17.04745483 28.89529419 17.04745483 28.89529419 17.04745483 Z M-47.10470581 63.04745483 C-46.10470581 65.04745483 -46.10470581 65.04745483 -46.10470581 65.04745483 Z " fill="#FE1A8F" transform="translate(365.1047058105469,54.952545166015625)"/>
<path d="M0 0 C7.54382769 -0.1017192 15.0874774 -0.17159975 22.63183594 -0.21972656 C25.1963563 -0.23979728 27.76083115 -0.26706001 30.32519531 -0.30175781 C34.01899471 -0.35047355 37.71218709 -0.37301513 41.40625 -0.390625 C43.1160907 -0.42159271 43.1160907 -0.42159271 44.86047363 -0.45318604 C54.84831277 -0.45597874 60.71500436 2.39267837 68 9 C68.54003662 9.45028564 69.08007324 9.90057129 69.63647461 10.36450195 C72.34729349 13.61602849 71.5541728 18.13770442 71.5625 22.1875 C71.59923828 23.10853516 71.63597656 24.02957031 71.67382812 24.97851562 C71.71296109 31.10499874 70.55941741 34.66905877 66.70166016 39.44091797 C63.76906456 42.12779824 60.80977287 42.93826002 57 44 C56.01 44.33 55.02 44.66 54 45 C38.95590162 46.04998856 22.16388484 44.87726308 10 35 C3.81970219 29.1498463 0.26078076 22.64214319 -0.07788086 14.01635742 C-0.09792998 11.88496228 -0.08755177 9.75632719 -0.0625 7.625 C-0.05798828 6.88894531 -0.05347656 6.15289062 -0.04882812 5.39453125 C-0.03715142 3.59631842 -0.01922011 1.79814803 0 0 Z " fill="#00549E" transform="translate(655,87)"/>
<path d="M0 0 C2.91878719 1.48016788 5.6063955 3.004296 8.0625 5.1875 C8.784375 5.80625 9.50625 6.425 10.25 7.0625 C13.63160912 11.02714517 13.26573137 15.84807542 13.125 20.875 C12.41095999 28.75406214 10.04438957 33.05782483 4.0625 38.1875 C-0.12778166 41.22561189 -4.48834627 43.96562264 -8.9140625 46.64453125 C-15.04468585 50.42944353 -19.63423122 54.58746549 -23.6875 60.625 C-24.07292969 61.17220703 -24.45835937 61.71941406 -24.85546875 62.28320312 C-27.26335818 65.8033875 -28.63114836 69.15562379 -29.9375 73.1875 C-30.9275 73.6825 -30.9275 73.6825 -31.9375 74.1875 C-32.2675 75.1775 -32.5975 76.1675 -32.9375 77.1875 C-33.05343729 68.40786618 -33.14223657 59.62849652 -33.19656086 50.84826374 C-33.22263629 46.77104433 -33.25799537 42.69434927 -33.31469727 38.61743164 C-33.36909253 34.68165637 -33.398936 30.74638488 -33.41188622 26.81026268 C-33.42111281 25.3099188 -33.4391309 23.80960198 -33.46615028 22.30947304 C-33.50254452 20.20481804 -33.50744161 18.10223435 -33.50512695 15.99731445 C-33.51623001 14.80040482 -33.52733307 13.60349518 -33.53877258 12.37031555 C-32.76064187 8.25130762 -31.11669417 6.82615955 -27.9375 4.1875 C-18.9017883 -1.78021217 -10.24862309 -4.30375185 0 0 Z M11.0625 12.1875 C12.0625 14.1875 12.0625 14.1875 12.0625 14.1875 Z " fill="#7DBD07" transform="translate(788.9375,1.8125)"/>
<path d="M0 0 C1.45244923 0.0201031 2.90492544 0.03834712 4.35742188 0.0546875 C7.88468334 0.09836494 11.41091499 0.16717893 14.9375 0.25 C14.9375 0.91 14.9375 1.57 14.9375 2.25 C19.2275 2.25 23.5175 2.25 27.9375 2.25 C27.9375 2.58 27.9375 2.91 27.9375 3.25 C24.3075 3.25 20.6775 3.25 16.9375 3.25 C16.9375 8.53 16.9375 13.81 16.9375 19.25 C16.2775 19.25 15.6175 19.25 14.9375 19.25 C14.89625 20.260625 14.855 21.27125 14.8125 22.3125 C14.1346271 27.06729422 11.540664 30.19514356 7.9375 33.25 C5.3125 34.0625 5.3125 34.0625 2.9375 34.25 C2.36773437 34.57613281 1.79796875 34.90226562 1.2109375 35.23828125 C-4.25353521 37.6700655 -11.98362049 37.20567667 -17.6171875 35.45703125 C-19.55150668 34.5044703 -21.29601079 33.48295567 -23.0625 32.25 C-23.805 31.755 -24.5475 31.26 -25.3125 30.75 C-25.89 30.255 -26.4675 29.76 -27.0625 29.25 C-28.08730469 28.40695313 -28.08730469 28.40695313 -29.1328125 27.546875 C-32.28127468 23.79931273 -31.73054013 20.23705669 -31.56640625 15.51953125 C-30.80622604 10.58719918 -29.02625301 7.29523627 -25.0625 4.25 C-17.2926432 -0.84338305 -8.89514735 -0.21524612 0 0 Z M-30.0625 22.25 C-29.0625 24.25 -29.0625 24.25 -29.0625 24.25 Z " fill="#9945F9" transform="translate(348.0625,95.75)"/>
<path d="M0 0 C1.61237549 0.02320312 1.61237549 0.02320312 3.25732422 0.046875 C6.41888685 0.09909627 9.57922012 0.17264398 12.7401123 0.25531006 C15.23191365 0.31836893 17.72381285 0.3739255 20.21582031 0.42822266 C32.14486338 0.68830544 44.07260488 0.98576967 56 1.3125 C56 1.6425 56 1.9725 56 2.3125 C43.13 2.3125 30.26 2.3125 17 2.3125 C17 7.5925 17 12.8725 17 18.3125 C16.34 18.3125 15.68 18.3125 15 18.3125 C14.9071875 19.9521875 14.9071875 19.9521875 14.8125 21.625 C14 25.3125 14 25.3125 11.75 27 C10.8425 27.433125 9.935 27.86625 9 28.3125 C8.236875 28.9725 7.47375 29.6325 6.6875 30.3125 C1.33054218 34.29907326 -4.30403858 36.12063327 -11 35.3125 C-16.73696994 33.55352337 -21.51564228 31.37644918 -26 27.3125 C-26.66 26.9825 -27.32 26.6525 -28 26.3125 C-27.34 24.9925 -26.68 23.6725 -26 22.3125 C-26.66 21.9825 -27.32 21.6525 -28 21.3125 C-28.10547193 14.80337517 -26.63722813 11.02393707 -22.375 6.13671875 C-15.3279869 0.72396362 -8.69276791 -0.25669544 0 0 Z " fill="#90D141" transform="translate(194,96.6875)"/>
<path d="M0 0 C1.24716797 0.00322266 2.49433594 0.00644531 3.77929688 0.00976562 C5.07287109 0.01814453 6.36644531 0.02652344 7.69921875 0.03515625 C9.66858398 0.04192383 9.66858398 0.04192383 11.67773438 0.04882812 C14.91410885 0.06059676 18.15039053 0.07703865 21.38671875 0.09765625 C21.38671875 0.75765625 21.38671875 1.41765625 21.38671875 2.09765625 C38.54671875 2.09765625 55.70671875 2.09765625 73.38671875 2.09765625 C73.38671875 2.42765625 73.38671875 2.75765625 73.38671875 3.09765625 C56.88671875 3.09765625 40.38671875 3.09765625 23.38671875 3.09765625 C23.38671875 4.74765625 23.38671875 6.39765625 23.38671875 8.09765625 C27.67671875 8.09765625 31.96671875 8.09765625 36.38671875 8.09765625 C36.38671875 8.42765625 36.38671875 8.75765625 36.38671875 9.09765625 C31.43671875 9.09765625 26.48671875 9.09765625 21.38671875 9.09765625 C21.38671875 9.75765625 21.38671875 10.41765625 21.38671875 11.09765625 C20.49476807 11.09652832 19.60281738 11.09540039 18.68383789 11.09423828 C15.33373323 11.10423924 11.98604557 11.14105013 8.63647461 11.1953125 C7.19451056 11.21333906 5.7523757 11.22106547 4.31030273 11.21777344 C-3.64797918 11.20673942 -10.46640789 11.2593041 -16.97827148 16.45361328 C-19.12834276 18.61556341 -20.4976616 20.66037062 -21.67578125 23.47265625 C-22.25005859 24.78363281 -22.25005859 24.78363281 -22.8359375 26.12109375 C-23.09246094 26.77335937 -23.34898437 27.425625 -23.61328125 28.09765625 C-23.94328125 28.09765625 -24.27328125 28.09765625 -24.61328125 28.09765625 C-25.64578433 11.09959634 -25.64578433 11.09959634 -22.05078125 6.72265625 C-15.75944971 1.14355092 -8.16159453 -0.03726755 0 0 Z M21.38671875 3.09765625 C21.38671875 4.74765625 21.38671875 6.39765625 21.38671875 8.09765625 C21.71671875 8.09765625 22.04671875 8.09765625 22.38671875 8.09765625 C22.38671875 6.44765625 22.38671875 4.79765625 22.38671875 3.09765625 C22.05671875 3.09765625 21.72671875 3.09765625 21.38671875 3.09765625 Z " fill="#A63DE9" transform="translate(341.61328125,44.90234375)"/>
<path d="M0 0 C0.33 0 0.66 0 1 0 C1 32.67 1 65.34 1 99 C0.67 99 0.34 99 0 99 C0 66.33 0 33.66 0 0 Z " fill="#E8D500" transform="translate(802,16)"/>
<path d="M0 0 C0.33 0 0.66 0 1 0 C1 32.67 1 65.34 1 99 C0.67 99 0.34 99 0 99 C0 66.33 0 33.66 0 0 Z " fill="#97C900" transform="translate(754,16)"/>
<path d="M0 0 C0.33 0 0.66 0 1 0 C1 32.34 1 64.68 1 98 C0.67 98 0.34 98 0 98 C0 65.66 0 33.32 0 0 Z " fill="#00BEC5" transform="translate(608,17)"/>
<path d="M0 0 C0.33 0 0.66 0 1 0 C1 32.34 1 64.68 1 98 C0.67 98 0.34 98 0 98 C0 65.66 0 33.32 0 0 Z " fill="#BBDB00" transform="translate(162,16)"/>
<path d="M0 0 C0.33 0 0.66 0 1 0 C1 31.02 1 62.04 1 94 C0.67 94 0.34 94 0 94 C0 62.98 0 31.96 0 0 Z " fill="#DF009E" transform="translate(315,20)"/>
<path d="M0 0 C0.33 0 0.66 0 1 0 C1 18.81 1 37.62 1 57 C0.67 57 0.34 57 0 57 C0 38.19 0 19.38 0 0 Z " fill="#003F7F" transform="translate(133,18)"/>
<path d="M0 0 C0.33 0 0.66 0 1 0 C1 16.5 1 33 1 50 C0.67 50 0.34 50 0 50 C0 33.5 0 17 0 0 Z " fill="#00DFEA" transform="translate(84,22)"/>
<path d="M0 0 C6 4.5 6 4.5 12 9 C5.90218999 9.22084624 0.78357065 9.01167675 -5 7 C-5 6.34 -5 5.68 -5 5 C-2.36 5 0.28 5 3 5 C2.2575 4.319375 2.2575 4.319375 1.5 3.625 C0 2 0 2 0 0 Z " fill="#04E5EC" transform="translate(51,123)"/>
<path d="M0 0 C1.09697758 3.52097017 1.08559179 6.73687274 1.02734375 10.41015625 C1.01509766 11.64701172 1.00285156 12.88386719 0.99023438 14.15820312 C0.95502462 16.76502884 0.91595034 19.37180518 0.87304688 21.97851562 C0.86208984 23.21408203 0.85113281 24.44964844 0.83984375 25.72265625 C0.82300537 26.85453369 0.80616699 27.98641113 0.78881836 29.15258789 C0.7804799 32.20332974 0.7804799 32.20332974 3 35 C1.68 35.99 0.36 36.98 -1 38 C-1.02471455 33.0703976 -1.04286691 28.14083126 -1.05493164 23.21118164 C-1.05996113 21.53409192 -1.06678548 19.85700658 -1.07543945 18.17993164 C-1.08756559 15.769683 -1.09324215 13.35949232 -1.09765625 10.94921875 C-1.10281754 10.19912033 -1.10797882 9.44902191 -1.11329651 8.67619324 C-1.11363785 5.51048768 -1.00887343 3.02662028 0 0 Z " fill="#E5249C" transform="translate(318,70)"/>
<path d="M0 0 C4.95 0.99 9.9 1.98 15 3 C15 3.33 15 3.66 15 4 C8.73 4 2.46 4 -4 4 C-3.01 3.67 -2.02 3.34 -1 3 C-0.67 2.01 -0.34 1.02 0 0 Z " fill="#05A97F" transform="translate(677,128)"/>
<path d="M0 0 C9.9 0 19.8 0 30 0 C30 0.33 30 0.66 30 1 C20.1 1 10.2 1 0 1 C0 0.67 0 0.34 0 0 Z " fill="#FFBE00" transform="translate(214,53)"/>
<path d="M0 0 C2.31 0.66 4.62 1.32 7 2 C7 2.33 7 2.66 7 3 C3.7 3.33 0.4 3.66 -3 4 C-3.66 3.01 -4.32 2.02 -5 1 C-3.35 1 -1.7 1 0 1 C0 0.67 0 0.34 0 0 Z " fill="#1E4198" transform="translate(902,128)"/>
<path d="M0 0 C0 0.33 0 0.66 0 1 C-4.62 1.66 -9.24 2.32 -14 3 C-14 2.34 -14 1.68 -14 1 C-8.83430559 -0.79217969 -5.48946087 -1.12029814 0 0 Z " fill="#95C045" transform="translate(532,129)"/>
<path d="M0 0 C6.875 2.75 6.875 2.75 8 5 C7.67 5.66 7.34 6.32 7 7 C5 6 5 6 3 4 C2.01 3.34 1.02 2.68 0 2 C0 1.34 0 0.68 0 0 Z " fill="#08BEE8" transform="translate(612,122)"/>
<path d="M0 0 C0.33 0 0.66 0 1 0 C1 5.94 1 11.88 1 18 C0.67 18 0.34 18 0 18 C0 12.06 0 6.12 0 0 Z " fill="#FF0075" transform="translate(826,57)"/>
<path d="M0 0 C0.33 0 0.66 0 1 0 C1 5.61 1 11.22 1 17 C0.67 17 0.34 17 0 17 C0 11.39 0 5.78 0 0 Z " fill="#FFE400" transform="translate(292,40)"/>
<path d="M0 0 C0.33 0 0.66 0 1 0 C1 4.29 1 8.58 1 13 C0.67 13 0.34 13 0 13 C0 8.71 0 4.42 0 0 Z " fill="#8FD434" transform="translate(582,59)"/>
<path d="M0 0 C0.33 0 0.66 0 1 0 C1 4.29 1 8.58 1 13 C0.67 13 0.34 13 0 13 C0 8.71 0 4.42 0 0 Z " fill="#F56100" transform="translate(446,59)"/>
<path d="M0 0 C3.96 0 7.92 0 12 0 C12 0.33 12 0.66 12 1 C8.04 1 4.08 1 0 1 C0 0.67 0 0.34 0 0 Z " fill="#BB13B4" transform="translate(888,84)"/>
<path d="M0 0 C0.33 0 0.66 0 1 0 C1 3.63 1 7.26 1 11 C0.67 11 0.34 11 0 11 C0 7.37 0 3.74 0 0 Z " fill="#00608C" transform="translate(727,104)"/>
<path d="M0 0 C3.63 0 7.26 0 11 0 C11 0.33 11 0.66 11 1 C7.37 1 3.74 1 0 1 C0 0.67 0 0.34 0 0 Z " fill="#2A528E" transform="translate(889,47)"/>
<path d="M0 0 C0.33 0 0.66 0 1 0 C1 3.3 1 6.6 1 10 C0.67 10 0.34 10 0 10 C0 6.7 0 3.4 0 0 Z " fill="#FF008C" transform="translate(875,61)"/>
<path d="M0 0 C0.33 0 0.66 0 1 0 C1 3.3 1 6.6 1 10 C0.67 10 0.34 10 0 10 C0 6.7 0 3.4 0 0 Z " fill="#FF00A1" transform="translate(436,18)"/>
<path d="M0 0 C2.97 0 5.94 0 9 0 C9 0.33 9 0.66 9 1 C6.03 1 3.06 1 0 1 C0 0.67 0 0.34 0 0 Z " fill="#004B8F" transform="translate(61,85)"/>
<path d="M0 0 C2.64 0 5.28 0 8 0 C8 0.33 8 0.66 8 1 C5.36 1 2.72 1 0 1 C0 0.67 0 0.34 0 0 Z " fill="#FF6400" transform="translate(510,84)"/>
<path d="M0 0 C0.33 0 0.66 0 1 0 C1 2.64 1 5.28 1 8 C0.67 8 0.34 8 0 8 C0 5.36 0 2.72 0 0 Z " fill="#FF0094" transform="translate(395,72)"/>
<path d="M0 0 C0.33 0 0.66 0 1 0 C1 2.64 1 5.28 1 8 C0.67 8 0.34 8 0 8 C0 5.36 0 2.72 0 0 Z " fill="#79DF3C" transform="translate(533,62)"/>
<path d="M0 0 C0.33 0 0.66 0 1 0 C1 2.64 1 5.28 1 8 C0.67 8 0.34 8 0 8 C0 5.36 0 2.72 0 0 Z " fill="#FF6400" transform="translate(495,62)"/>
<path d="M0 0 C0 0.99 0 1.98 0 3 C-0.99 3 -1.98 3 -3 3 C-2.01 2.01 -1.02 1.02 0 0 Z " fill="#FFC500" transform="translate(796,124)"/>
<path d="M0 0 C0 0.99 0 1.98 0 3 C-0.99 3 -1.98 3 -3 3 C-2.01 2.01 -1.02 1.02 0 0 Z " fill="#002D51" transform="translate(943,111)"/>
<path d="M0 0 C0.33 0 0.66 0 1 0 C1 2.31 1 4.62 1 7 C0.67 7 0.34 7 0 7 C0 4.69 0 2.38 0 0 Z " fill="#FF4E00" transform="translate(447,72)"/>
<path d="M0 0 C0.66 0.33 1.32 0.66 2 1 C0.68 1.99 -0.64 2.98 -2 4 C-1.34 2.68 -0.68 1.36 0 0 Z " fill="#FF0054" transform="translate(323,5)"/>
<path d="M0 0 C0.33 0 0.66 0 1 0 C1 1.98 1 3.96 1 6 C0.67 6 0.34 6 0 6 C0 4.02 0 2.04 0 0 Z " fill="#FF008D" transform="translate(827,75)"/>
<path d="M0 0 C0.33 0 0.66 0 1 0 C1 1.98 1 3.96 1 6 C0.67 6 0.34 6 0 6 C0 4.02 0 2.04 0 0 Z " fill="#004391" transform="translate(132,75)"/>
<path d="M0 0 C0.33 0 0.66 0 1 0 C1 1.98 1 3.96 1 6 C0.67 6 0.34 6 0 6 C0 4.02 0 2.04 0 0 Z " fill="#94E949" transform="translate(581,73)"/>
<path d="M0 0 C0.33 0 0.66 0 1 0 C1 1.98 1 3.96 1 6 C0.67 6 0.34 6 0 6 C0 4.02 0 2.04 0 0 Z " fill="#E98600" transform="translate(447,53)"/>
<path d="M0 0 C0.33 0 0.66 0 1 0 C1 1.98 1 3.96 1 6 C0.67 6 0.34 6 0 6 C0 4.02 0 2.04 0 0 Z " fill="#6ADB31" transform="translate(581,52)"/>
<path d="M0 0 C1.65 0 3.3 0 5 0 C5 0.33 5 0.66 5 1 C3.35 1 1.7 1 0 1 C0 0.67 0 0.34 0 0 Z " fill="#4CE532" transform="translate(527,131)"/>
<path d="M0 0 C1.65 0 3.3 0 5 0 C5 0.33 5 0.66 5 1 C3.35 1 1.7 1 0 1 C0 0.67 0 0.34 0 0 Z " fill="#FF7F00" transform="translate(497,131)"/>
<path d="M0 0 C1.65 0 3.3 0 5 0 C5 0.33 5 0.66 5 1 C3.35 1 1.7 1 0 1 C0 0.67 0 0.34 0 0 Z " fill="#FFE500" transform="translate(250,97)"/>
<path d="M0 0 C0.99 0.33 1.98 0.66 3 1 C2.67 1.66 2.34 2.32 2 3 C1.34 2.01 0.68 1.02 0 0 Z " fill="#003B7B" transform="translate(719,92)"/>
<path d="M0 0 C0.33 0 0.66 0 1 0 C1 1.65 1 3.3 1 5 C0.67 5 0.34 5 0 5 C0 3.35 0 1.7 0 0 Z " fill="#FF00A1" transform="translate(827,52)"/>
<path d="M0 0 C1.65 0 3.3 0 5 0 C5 0.33 5 0.66 5 1 C3.35 1 1.7 1 0 1 C0 0.67 0 0.34 0 0 Z " fill="#76CC65" transform="translate(512,46)"/>
<path d="M0 0 C1.65 0 3.3 0 5 0 C5 0.33 5 0.66 5 1 C3.35 1 1.7 1 0 1 C0 0.67 0 0.34 0 0 Z " fill="#FF0087" transform="translate(415,46)"/>
<path d="M0 0 C4 1 4 1 4 1 Z " fill="#0054B9" transform="translate(909,131)"/>
<path d="M0 0 C4 1 4 1 4 1 Z " fill="#FF006A" transform="translate(875,131)"/>
<path d="M0 0 C4 1 4 1 4 1 Z " fill="#00AAE9" transform="translate(45,131)"/>
<path d="M0 0 C1 4 1 4 1 4 Z " fill="#5F3FFF" transform="translate(316,114)"/>
<path d="M0 0 C4 1 4 1 4 1 Z " fill="#FF00A9" transform="translate(376,97)"/>
<path d="M0 0 C4 1 4 1 4 1 Z " fill="#002F7F" transform="translate(70,84)"/>
<path d="M0 0 C1 4 1 4 1 4 Z " fill="#0035D9" transform="translate(959,82)"/>
<path d="M0 0 C1 4 1 4 1 4 Z " fill="#00447A" transform="translate(131,81)"/>
<path d="M0 0 C1 4 1 4 1 4 Z " fill="#A9FF44" transform="translate(580,79)"/>
<path d="M0 0 C1 4 1 4 1 4 Z " fill="#FF4A00" transform="translate(448,79)"/>
<path d="M0 0 C0 3 0 3 0 3 Z " fill="#003E70" transform="translate(81,77)"/>
<path d="M0 0 C1 4 1 4 1 4 Z " fill="#FFCF00" transform="translate(291,57)"/>
<path d="M0 0 C1 4 1 4 1 4 Z " fill="#FF5400" transform="translate(448,48)"/>
<path d="M0 0 C1 4 1 4 1 4 Z " fill="#9FD43A" transform="translate(580,48)"/>
<path d="M0 0 C1 4 1 4 1 4 Z " fill="#006ED0" transform="translate(959,46)"/>
<path d="M0 0 C4 1 4 1 4 1 Z " fill="#E97400" transform="translate(507,47)"/>
<path d="M0 0 C1 4 1 4 1 4 Z " fill="#FF009F" transform="translate(316,16)"/>
<path d="M0 0 C0.66 0.33 1.32 0.66 2 1 C1.01 1 0.02 1 -1 1 C-0.67 0.67 -0.34 0.34 0 0 Z " fill="#FF007F" transform="translate(851,13)"/>
<path d="M0 0 C0.66 0.33 1.32 0.66 2 1 C1.01 1 0.02 1 -1 1 C-0.67 0.67 -0.34 0.34 0 0 Z " fill="#EF7F00" transform="translate(472,12)"/>
<path d="M0 0 C4 1 4 1 4 1 Z " fill="#003A84" transform="translate(909,0)"/>
<path d="M0 0 C4 1 4 1 4 1 Z " fill="#FF009F" transform="translate(876,0)"/>
<path d="M0 0 C3 1 3 1 3 1 Z " fill="#0031B8" transform="translate(83,131)"/>
<path d="M0 0 C3 1 3 1 3 1 Z " fill="#0038C6" transform="translate(913,130)"/>
<path d="M0 0 C3 1 3 1 3 1 Z " fill="#FF0046" transform="translate(872,130)"/>
<path d="M0 0 C3 1 3 1 3 1 Z " fill="#C6FF38" transform="translate(532,130)"/>
<path d="M0 0 C3 1 3 1 3 1 Z " fill="#E94600" transform="translate(494,130)"/>
<path d="M0 0 C3 1 3 1 3 1 Z " fill="#0038C6" transform="translate(86,130)"/>
<path d="M0 0 C3 1 3 1 3 1 Z " fill="#0038C6" transform="translate(916,129)"/>
<path d="M0 0 C3 1 3 1 3 1 Z " fill="#AAE238" transform="translate(535,129)"/>
<path d="M0 0 C3 1 3 1 3 1 Z " fill="#FF3800" transform="translate(491,129)"/>
<path d="M0 0 C3 1 3 1 3 1 Z " fill="#FF0063" transform="translate(867,128)"/>
<path d="M0 0 C3 1 3 1 3 1 Z " fill="#00718D" transform="translate(91,128)"/>
<path d="M0 0 C3 1 3 1 3 1 Z " fill="#38FF1C" transform="translate(540,127)"/>
<path d="M0 0 C3 1 3 1 3 1 Z " fill="#AA4600" transform="translate(486,127)"/>
<path d="" fill="#FFD400" transform="translate(0,0)"/>
<path d="" fill="#0046E9" transform="translate(0,0)"/>
<path d="" fill="#A92AFF" transform="translate(0,0)"/>
<path d="" fill="#7F943F" transform="translate(0,0)"/>
<path d="" fill="#003FD4" transform="translate(0,0)"/>
<path d="M0 0 C3 1 3 1 3 1 Z " fill="#FFFF00" transform="translate(255,96)"/>
<path d="M0 0 C3 1 3 1 3 1 Z " fill="#FFE200" transform="translate(258,95)"/>
<path d="" fill="#0038C6" transform="translate(0,0)"/>
<path d="" fill="#FFA900" transform="translate(0,0)"/>
<path d="M0 0 C3 1 3 1 3 1 Z " fill="#0094E9" transform="translate(709,86)"/>
<path d="" fill="#0031B8" transform="translate(0,0)"/>
<path d="" fill="#7FFF69" transform="translate(0,0)"/>
<path d="" fill="#FF7100" transform="translate(0,0)"/>
<path d="M0 0 C3 1 3 1 3 1 Z " fill="#0031B8" transform="translate(58,84)"/>
<path d="M0 0 C3 1 3 1 3 1 Z " fill="#0038C6" transform="translate(900,83)"/>
<path d="M0 0 C3 1 3 1 3 1 Z " fill="#C6FF38" transform="translate(519,83)"/>
<path d="M0 0 C3 1 3 1 3 1 Z " fill="#FF8D00" transform="translate(507,83)"/>
<path d="" fill="#FF008D" transform="translate(0,0)"/>
<path d="" fill="#FF008D" transform="translate(0,0)"/>
<path d="" fill="#005454" transform="translate(0,0)"/>
<path d="" fill="#FFFF00" transform="translate(0,0)"/>
<path d="M0 0 C3 1 3 1 3 1 Z " fill="#FF00C6" transform="translate(378,54)"/>
<path d="" fill="#FF007F" transform="translate(0,0)"/>
<path d="M0 0 C3 1 3 1 3 1 Z " fill="#006AD4" transform="translate(900,48)"/>
<path d="M0 0 C3 1 3 1 3 1 Z " fill="#B8CD31" transform="translate(518,47)"/>
<path d="" fill="#71A231" transform="translate(0,0)"/>
<path d="" fill="#E99B00" transform="translate(0,0)"/>
<path d="" fill="#A9E93F" transform="translate(0,0)"/>
<path d="" fill="#FF4600" transform="translate(0,0)"/>
<path d="" fill="#FFE900" transform="translate(0,0)"/>
<path d="" fill="#FF00A9" transform="translate(0,0)"/>
<path d="" fill="#FF009B" transform="translate(0,0)"/>
<path d="" fill="#005B8D" transform="translate(0,0)"/>
<path d="" fill="#00E9A9" transform="translate(0,0)"/>
<path d="" fill="#00CDE2" transform="translate(0,0)"/>
<path d="" fill="#9BCD00" transform="translate(0,0)"/>
<path d="M0 0 C0.99 0.495 0.99 0.495 2 1 C1.01 1.495 1.01 1.495 0 2 C0 1.34 0 0.68 0 0 Z " fill="#0078AA" transform="translate(4,6)"/>
<path d="M0 0 C3 1 3 1 3 1 Z " fill="#FF00A9" transform="translate(870,2)"/>
<path d="M0 0 C3 1 3 1 3 1 Z " fill="#7FE915" transform="translate(537,2)"/>
<path d="M0 0 C3 1 3 1 3 1 Z " fill="#E96A00" transform="translate(489,2)"/>
<path d="M0 0 C3 1 3 1 3 1 Z " fill="#0038C6" transform="translate(913,1)"/>
<path d="M0 0 C3 1 3 1 3 1 Z " fill="#FF007F" transform="translate(873,1)"/>
<path d="M0 0 C3 1 3 1 3 1 Z " fill="#E95400" transform="translate(492,1)"/>
<path d="M0 0 C3 1 3 1 3 1 Z " fill="#FFFF00" transform="translate(259,1)"/>
<path d="M0 0 C3 1 3 1 3 1 Z " fill="#006363" transform="translate(640,0)"/>
<path d="M0 0 C3 1 3 1 3 1 Z " fill="#00637F" transform="translate(622,0)"/>
<path d="M0 0 C3 1 3 1 3 1 Z " fill="#71CD5B" transform="translate(531,0)"/>
<path d="M0 0 C3 1 3 1 3 1 Z " fill="#FF7100" transform="translate(495,0)"/>
<path d="M0 0 C3 1 3 1 3 1 Z " fill="#FFFF00" transform="translate(256,0)"/>
<path d="M0 0 C3 1 3 1 3 1 Z " fill="#006AD4" transform="translate(116,0)"/>
<path d="M0 0 C3 1 3 1 3 1 Z " fill="#00E9FF" transform="translate(29,0)"/>
<path d="M0 0 C2 1 2 1 2 1 Z " fill="#FFDF00" transform="translate(787,131)"/>
<path d="M0 0 C2 1 2 1 2 1 Z " fill="#FFDF00" transform="translate(768,131)"/>
<path d="M0 0 C2 1 2 1 2 1 Z " fill="#006A94" transform="translate(712,131)"/>
<path d="M0 0 C2 1 2 1 2 1 Z " fill="#003F5F" transform="translate(621,131)"/>
<path d="M0 0 C2 1 2 1 2 1 Z " fill="#BF1FFF" transform="translate(328,131)"/>
<path d="M0 0 C2 1 2 1 2 1 Z " fill="#AAD455" transform="translate(194,131)"/>
<path d="M0 0 C2 1 2 1 2 1 Z " fill="#7FDF5F" transform="translate(177,131)"/>
<path d="M0 0 C2 1 2 1 2 1 Z " fill="#FFFF00" transform="translate(789,130)"/>
<path d="M0 0 C2 1 2 1 2 1 Z " fill="#FFFF00" transform="translate(766,130)"/>
<path d="M0 0 C2 1 2 1 2 1 Z " fill="#007F7F" transform="translate(714,130)"/>
<path d="M0 0 C2 1 2 1 2 1 Z " fill="#3F3FFF" transform="translate(351,130)"/>
<path d="M0 0 C2 1 2 1 2 1 Z " fill="#2AD42A" transform="translate(196,130)"/>
<path d="M0 0 C2 1 2 1 2 1 Z " fill="#7FFF7F" transform="translate(175,130)"/>
<path d="M0 0 C2 1 2 1 2 1 Z " fill="#00DFFF" transform="translate(43,130)"/>
<path d="M0 0 C2 1 2 1 2 1 Z " fill="#FF007F" transform="translate(870,129)"/>
<path d="M0 0 C2 1 2 1 2 1 Z " fill="#BF3FFF" transform="translate(325,129)"/>
<path d="M0 0 C2 1 2 1 2 1 Z " fill="#AAD42A" transform="translate(198,129)"/>
<path d="M0 0 C2 1 2 1 2 1 Z " fill="#55FF2A" transform="translate(173,129)"/>
<path d="M0 0 C2 1 2 1 2 1 Z " fill="#006A94" transform="translate(89,129)"/>
<path d="M0 0 C2 1 2 1 2 1 Z " fill="#00DFFF" transform="translate(40,129)"/>
<path d="M0 0 C2 1 2 1 2 1 Z " fill="#005F7F" transform="translate(919,128)"/>
<path d="M0 0 C2 1 2 1 2 1 Z " fill="#94FF6A" transform="translate(538,128)"/>
<path d="M0 0 C2 1 2 1 2 1 Z " fill="#FF6A00" transform="translate(489,128)"/>
<path d="M0 0 C2 1 2 1 2 1 Z " fill="#00FFFF" transform="translate(38,128)"/>
<path d="M0 0 C2 1 2 1 2 1 Z " fill="#006A94" transform="translate(921,127)"/>
<path d="M0 0 C2 1 2 1 2 1 Z " fill="#FF00BF" transform="translate(865,127)"/>
<path d="M0 0 C2 1 2 1 2 1 Z " fill="#002A55" transform="translate(94,127)"/>
<path d="M0 0 C2 1 2 1 2 1 Z " fill="#00FFFF" transform="translate(36,127)"/>
<path d="M0 0 C2 1 2 1 2 1 Z " fill="#007F7F" transform="translate(923,126)"/>
<path d="M0 0 C2 1 2 1 2 1 Z " fill="#FF00BF" transform="translate(863,126)"/>
<path d="M0 0 C2 1 2 1 2 1 Z " fill="#55FF2A" transform="translate(543,126)"/>
<path d="M0 0 C2 1 2 1 2 1 Z " fill="#FF2A00" transform="translate(484,126)"/>
<path d="M0 0 C2 1 2 1 2 1 Z " fill="#00FFFF" transform="translate(34,126)"/>
<path d="M0 0 C2 1 2 1 2 1 Z " fill="#006A94" transform="translate(925,125)"/>
<path d="M0 0 C2 1 2 1 2 1 Z " fill="#FF003F" transform="translate(861,125)"/>
<path d="M0 0 C2 1 2 1 2 1 Z " fill="#00FFFF" transform="translate(32,125)"/>
<path d="M0 0 C2 1 2 1 2 1 Z " fill="#002AD4" transform="translate(927,124)"/>
<path d="M0 0 C2 1 2 1 2 1 Z " fill="#D42A00" transform="translate(481,124)"/>
<path d="M0 0 C2 1 2 1 2 1 Z " fill="#007FBF" transform="translate(99,124)"/>
<path d="M0 0 C2 1 2 1 2 1 Z " fill="#FF00D4" transform="translate(858,123)"/>
<path d="M0 0 C2 1 2 1 2 1 Z " fill="#6A942A" transform="translate(548,123)"/>
<path d="M0 0 C2 1 2 1 2 1 Z " fill="#FFAA00" transform="translate(479,123)"/>
<path d="M0 0 C2 1 2 1 2 1 Z " fill="#002AD4" transform="translate(930,122)"/>
<path d="M0 0 C2 1 2 1 2 1 Z " fill="#003FBF" transform="translate(102,122)"/>
<path d="M0 0 C2 1 2 1 2 1 Z " fill="#FF00AA" transform="translate(855,121)"/>
<path d="M0 0 C2 1 2 1 2 1 Z " fill="#7FBF3F" transform="translate(551,121)"/>
<path d="M0 0 C2 1 2 1 2 1 Z " fill="#FFBF00" transform="translate(476,121)"/>
<path d="M0 0 C2 1 2 1 2 1 Z " fill="#002AD4" transform="translate(105,120)"/>
<path d="" fill="#FFFF00" transform="translate(0,0)"/>
<path d="M0 0 C2 1 2 1 2 1 Z " fill="#FF00D4" transform="translate(851,118)"/>
<path d="M0 0 C2 1 2 1 2 1 Z " fill="#7F7F00" transform="translate(472,118)"/>
<path d="M0 0 C2 1 2 1 2 1 Z " fill="#00FFFF" transform="translate(22,118)"/>
<path d="" fill="#94D46A" transform="translate(0,0)"/>
<path d="" fill="#00AAD4" transform="translate(0,0)"/>
<path d="M0 0 C2 1 2 1 2 1 Z " fill="#FF0094" transform="translate(380,96)"/>
<path d="M0 0 C2 1 2 1 2 1 Z " fill="#FF0094" transform="translate(382,95)"/>
<path d="" fill="#00D4FF" transform="translate(0,0)"/>
<path d="M0 0 C2 1 2 1 2 1 Z " fill="#FFDF00" transform="translate(261,94)"/>
<path d="M0 0 C2 1 2 1 2 1 Z " fill="#FF00BF" transform="translate(385,93)"/>
<path d="M0 0 C2 1 2 1 2 1 Z " fill="#FFBF00" transform="translate(263,93)"/>
<path d="" fill="#00AAFF" transform="translate(0,0)"/>
<path d="M0 0 C2 1 2 1 2 1 Z " fill="#FFFF00" transform="translate(265,92)"/>
<path d="" fill="#004A94" transform="translate(0,0)"/>
<path d="" fill="#FF5500" transform="translate(0,0)"/>
<path d="M0 0 C2 1 2 1 2 1 Z " fill="#FFBF00" transform="translate(268,90)"/>
<path d="" fill="#004A94" transform="translate(0,0)"/>
<path d="M0 0 C2 1 2 1 2 1 Z " fill="#002AD4" transform="translate(714,88)"/>
<path d="M0 0 C2 1 2 1 2 1 Z " fill="#FFD400" transform="translate(271,88)"/>
<path d="M0 0 C2 1 2 1 2 1 Z " fill="#006A94" transform="translate(712,87)"/>
<path d="" fill="#FF007F" transform="translate(0,0)"/>
<path d="M0 0 C2 1 2 1 2 1 Z " fill="#FF007F" transform="translate(886,83)"/>
<path d="M0 0 C2 1 2 1 2 1 Z " fill="#0055AA" transform="translate(74,83)"/>
<path d="M0 0 C2 1 2 1 2 1 Z " fill="#001FBF" transform="translate(56,83)"/>
<path d="M0 0 C2 1 2 1 2 1 Z " fill="#006A94" transform="translate(903,82)"/>
<path d="M0 0 C2 1 2 1 2 1 Z " fill="#BFDF1F" transform="translate(522,82)"/>
<path d="M0 0 C2 1 2 1 2 1 Z " fill="#FF3F00" transform="translate(505,82)"/>
<path d="M0 0 C2 1 2 1 2 1 Z " fill="#003F5F" transform="translate(54,82)"/>
<path d="M0 0 C2 1 2 1 2 1 Z " fill="#FF004C" transform="translate(882,81)"/>
<path d="M0 0 C2 1 2 1 2 1 Z " fill="#BFFF1F" transform="translate(524,81)"/>
<path d="M0 0 C2 1 2 1 2 1 Z " fill="#FF3F00" transform="translate(503,81)"/>
<path d="M0 0 C2 1 2 1 2 1 Z " fill="#003FDF" transform="translate(77,81)"/>
<path d="" fill="#FFAA00" transform="translate(0,0)"/>
<path d="" fill="#FFD400" transform="translate(0,0)"/>
<path d="M0 0 C2 1 2 1 2 1 Z " fill="#FF00BF" transform="translate(384,57)"/>
<path d="M0 0 C2 1 2 1 2 1 Z " fill="#FF00BF" transform="translate(381,55)"/>
<path d="M0 0 C2 1 2 1 2 1 Z " fill="#D4EA00" transform="translate(244,52)"/>
<path d="M0 0 C2 1 2 1 2 1 Z " fill="#FF00BF" transform="translate(882,50)"/>
<path d="M0 0 C2 1 2 1 2 1 Z " fill="#006A94" transform="translate(903,49)"/>
<path d="M0 0 C2 1 2 1 2 1 Z " fill="#FF003F" transform="translate(884,49)"/>
<path d="M0 0 C2 1 2 1 2 1 Z " fill="#6AD46A" transform="translate(524,49)"/>
<path d="M0 0 C2 1 2 1 2 1 Z " fill="#FF6A00" transform="translate(503,49)"/>
<path d="M0 0 C2 1 2 1 2 1 Z " fill="#FF007F" transform="translate(886,48)"/>
<path d="M0 0 C2 1 2 1 2 1 Z " fill="#94FF6A" transform="translate(522,48)"/>
<path d="M0 0 C2 1 2 1 2 1 Z " fill="#FF6A00" transform="translate(505,48)"/>
<path d="M0 0 C2 1 2 1 2 1 Z " fill="#FF007F" transform="translate(420,45)"/>
<path d="M0 0 C2 1 2 1 2 1 Z " fill="#FF00D4" transform="translate(422,44)"/>
<path d="M0 0 C2 1 2 1 2 1 Z " fill="#FF00BF" transform="translate(425,42)"/>
<path d="" fill="#AAD455" transform="translate(0,0)"/>
<path d="" fill="#B46A00" transform="translate(0,0)"/>
<path d="" fill="#006A94" transform="translate(0,0)"/>
<path d="" fill="#DF5F00" transform="translate(0,0)"/>
<path d="" fill="#D45500" transform="translate(0,0)"/>
<path d="" fill="#FF007F" transform="translate(0,0)"/>
<path d="" fill="#FFFF00" transform="translate(0,0)"/>
<path d="" fill="#AAD400" transform="translate(0,0)"/>
<path d="" fill="#0055AA" transform="translate(0,0)"/>
<path d="" fill="#00DFFF" transform="translate(0,0)"/>
<path d="M0 0 C2 1 2 1 2 1 Z " fill="#003FBF" transform="translate(934,12)"/>
<path d="M0 0 C2 1 2 1 2 1 Z " fill="#FF0055" transform="translate(855,10)"/>
<path d="M0 0 C2 1 2 1 2 1 Z " fill="#002A55" transform="translate(930,9)"/>
<path d="M0 0 C2 1 2 1 2 1 Z " fill="#55FF2A" transform="translate(551,9)"/>
<path d="M0 0 C2 1 2 1 2 1 Z " fill="#5F3F00" transform="translate(476,9)"/>
<path d="M0 0 C2 1 2 1 2 1 Z " fill="#FF00D4" transform="translate(858,8)"/>
<path d="M0 0 C2 1 2 1 2 1 Z " fill="#FF00BF" transform="translate(860,7)"/>
<path d="M0 0 C2 1 2 1 2 1 Z " fill="#3F5F1F" transform="translate(548,7)"/>
<path d="M0 0 C2 1 2 1 2 1 Z " fill="#002AD4" transform="translate(925,6)"/>
<path d="M0 0 C2 1 2 1 2 1 Z " fill="#94942A" transform="translate(546,6)"/>
<path d="M0 0 C2 1 2 1 2 1 Z " fill="#FFAA00" transform="translate(481,6)"/>
<path d="M0 0 C2 1 2 1 2 1 Z " fill="#FFFF00" transform="translate(269,6)"/>
<path d="M0 0 C2 1 2 1 2 1 Z " fill="#006A94" transform="translate(923,5)"/>
<path d="M0 0 C2 1 2 1 2 1 Z " fill="#FF0055" transform="translate(863,5)"/>
<path d="M0 0 C2 1 2 1 2 1 Z " fill="#7FFF7F" transform="translate(544,5)"/>
<path d="M0 0 C2 1 2 1 2 1 Z " fill="#D46A00" transform="translate(483,5)"/>
<path d="M0 0 C2 1 2 1 2 1 Z " fill="#006A94" transform="translate(921,4)"/>
<path d="M0 0 C2 1 2 1 2 1 Z " fill="#FF0055" transform="translate(865,4)"/>
<path d="M0 0 C2 1 2 1 2 1 Z " fill="#6AD46A" transform="translate(542,4)"/>
<path d="M0 0 C2 1 2 1 2 1 Z " fill="#FF6A00" transform="translate(485,4)"/>
<path d="M0 0 C2 1 2 1 2 1 Z " fill="#FF5F00" transform="translate(266,4)"/>
<path d="M0 0 C2 1 2 1 2 1 Z " fill="#001FBF" transform="translate(919,3)"/>
<path d="M0 0 C2 1 2 1 2 1 Z " fill="#FF00AA" transform="translate(868,3)"/>
<path d="M0 0 C2 1 2 1 2 1 Z " fill="#2AD400" transform="translate(763,3)"/>
<path d="M0 0 C2 1 2 1 2 1 Z " fill="#94FF6A" transform="translate(540,3)"/>
<path d="M0 0 C2 1 2 1 2 1 Z " fill="#FF6A00" transform="translate(487,3)"/>
<path d="M0 0 C2 1 2 1 2 1 Z " fill="#FFFF00" transform="translate(264,3)"/>
<path d="M0 0 C2 1 2 1 2 1 Z " fill="#002A55" transform="translate(122,3)"/>
<path d="M0 0 C2 1 2 1 2 1 Z " fill="#0055AA" transform="translate(916,2)"/>
<path d="M0 0 C2 1 2 1 2 1 Z " fill="#555500" transform="translate(791,2)"/>
<path d="M0 0 C2 1 2 1 2 1 Z " fill="#007F7F" transform="translate(644,2)"/>
<path d="M0 0 C2 1 2 1 2 1 Z " fill="#007FBF" transform="translate(619,2)"/>
<path d="M0 0 C2 1 2 1 2 1 Z " fill="#FF0055" transform="translate(424,2)"/>
<path d="M0 0 C2 1 2 1 2 1 Z " fill="#FF007F" transform="translate(327,2)"/>
<path d="M0 0 C2 1 2 1 2 1 Z " fill="#FFDF00" transform="translate(262,2)"/>
<path d="M0 0 C2 1 2 1 2 1 Z " fill="#3FBF00" transform="translate(172,2)"/>
<path d="M0 0 C2 1 2 1 2 1 Z " fill="#002AD4" transform="translate(96,2)"/>
<path d="M0 0 C2 1 2 1 2 1 Z " fill="#00BFBF" transform="translate(9,2)"/>
<path d="M0 0 C2 1 2 1 2 1 Z " fill="#7FBF00" transform="translate(766,1)"/>
<path d="M0 0 C2 1 2 1 2 1 Z " fill="#7FDF5F" transform="translate(535,1)"/>
<path d="M0 0 C2 1 2 1 2 1 Z " fill="#FF007F" transform="translate(422,1)"/>
<path d="M0 0 C2 1 2 1 2 1 Z " fill="#FF0055" transform="translate(329,1)"/>
<path d="M0 0 C2 1 2 1 2 1 Z " fill="#002AD4" transform="translate(119,1)"/>
<path d="M0 0 C2 1 2 1 2 1 Z " fill="#007F7F" transform="translate(98,1)"/>
<path d="M0 0 C2 1 2 1 2 1 Z " fill="#00FFFF" transform="translate(32,1)"/>
<path d="M0 0 C2 1 2 1 2 1 Z " fill="#00D4FF" transform="translate(11,1)"/>
<path d="M0 0 C2 1 2 1 2 1 Z " fill="#D4FF00" transform="translate(787,0)"/>
<path d="M0 0 C2 1 2 1 2 1 Z " fill="#55AA00" transform="translate(768,0)"/>
<path d="M0 0 C2 1 2 1 2 1 Z " fill="#FF007F" transform="translate(420,0)"/>
<path d="M0 0 C2 1 2 1 2 1 Z " fill="#FF00AA" transform="translate(331,0)"/>
<path d="M0 0 C2 1 2 1 2 1 Z " fill="#94BF00" transform="translate(175,0)"/>
<path d="M0 0 C2 1 2 1 2 1 Z " fill="#004A94" transform="translate(100,0)"/>
<path d="M0 0 C2 1 2 1 2 1 Z " fill="#00AAFF" transform="translate(13,0)"/>
<path d="" fill="#AA55FF" transform="translate(0,0)"/>
<path d="" fill="#00AAAA" transform="translate(0,0)"/>
<path d="" fill="#AA55FF" transform="translate(0,0)"/>
<path d="" fill="#FFAA00" transform="translate(0,0)"/>
<path d="" fill="#FFFF00" transform="translate(0,0)"/>
<path d="" fill="#0055FF" transform="translate(0,0)"/>
<path d="" fill="#00AAFF" transform="translate(0,0)"/>
<path d="" fill="#7F3FBF" transform="translate(0,0)"/>
<path d="" fill="#FFBF00" transform="translate(0,0)"/>
<path d="" fill="#FFFF00" transform="translate(0,0)"/>
<path d="" fill="#AA55FF" transform="translate(0,0)"/>
<path d="" fill="#AAAA55" transform="translate(0,0)"/>
<path d="" fill="#7FFF7F" transform="translate(0,0)"/>
<path d="" fill="#00FFFF" transform="translate(0,0)"/>
<path d="" fill="#AA55FF" transform="translate(0,0)"/>
<path d="" fill="#7FBF3F" transform="translate(0,0)"/>
<path d="" fill="#AAFF55" transform="translate(0,0)"/>
<path d="" fill="#00FFFF" transform="translate(0,0)"/>
<path d="" fill="#7F3FFF" transform="translate(0,0)"/>
<path d="" fill="#7FBF3F" transform="translate(0,0)"/>
<path d="" fill="#7FBF3F" transform="translate(0,0)"/>
<path d="" fill="#0055AA" transform="translate(0,0)"/>
<path d="" fill="#AAFF55" transform="translate(0,0)"/>
<path d="" fill="#FF5500" transform="translate(0,0)"/>
<path d="" fill="#AA55FF" transform="translate(0,0)"/>
<path d="" fill="#7FBF3F" transform="translate(0,0)"/>
<path d="" fill="#7FBF3F" transform="translate(0,0)"/>
<path d="" fill="#0055AA" transform="translate(0,0)"/>
<path d="" fill="#FF00AA" transform="translate(0,0)"/>
<path d="" fill="#AAAA55" transform="translate(0,0)"/>
<path d="" fill="#7FBF3F" transform="translate(0,0)"/>
<path d="" fill="#AAFF55" transform="translate(0,0)"/>
<path d="" fill="#00BFBF" transform="translate(0,0)"/>
<path d="" fill="#0055AA" transform="translate(0,0)"/>
<path d="" fill="#FFBF00" transform="translate(0,0)"/>
<path d="" fill="#AAFF55" transform="translate(0,0)"/>
<path d="" fill="#003F7F" transform="translate(0,0)"/>
<path d="" fill="#00FFFF" transform="translate(0,0)"/>
<path d="" fill="#BF007F" transform="translate(0,0)"/>
<path d="" fill="#7FBF3F" transform="translate(0,0)"/>
<path d="" fill="#FF5500" transform="translate(0,0)"/>
<path d="" fill="#00BFFF" transform="translate(0,0)"/>
<path d="" fill="#0055AA" transform="translate(0,0)"/>
<path d="" fill="#003F7F" transform="translate(0,0)"/>
<path d="" fill="#FF00AA" transform="translate(0,0)"/>
<path d="" fill="#7FBF3F" transform="translate(0,0)"/>
<path d="" fill="#FF5500" transform="translate(0,0)"/>
<path d="" fill="#00BFFF" transform="translate(0,0)"/>
<path d="" fill="#FF007F" transform="translate(0,0)"/>
<path d="" fill="#BF7F00" transform="translate(0,0)"/>
<path d="" fill="#007F7F" transform="translate(0,0)"/>
<path d="" fill="#00BFFF" transform="translate(0,0)"/>
<path d="" fill="#0055AA" transform="translate(0,0)"/>
<path d="" fill="#0055AA" transform="translate(0,0)"/>
<path d="" fill="#003F7F" transform="translate(0,0)"/>
<path d="" fill="#FF007F" transform="translate(0,0)"/>
<path d="" fill="#AAFF55" transform="translate(0,0)"/>
<path d="" fill="#FF5500" transform="translate(0,0)"/>
<path d="" fill="#003FBF" transform="translate(0,0)"/>
<path d="" fill="#00FFFF" transform="translate(0,0)"/>
<path d="" fill="#007FBF" transform="translate(0,0)"/>
<path d="" fill="#FF00AA" transform="translate(0,0)"/>
<path d="" fill="#7FBF3F" transform="translate(0,0)"/>
<path d="" fill="#BF7F00" transform="translate(0,0)"/>
<path d="" fill="#007FBF" transform="translate(0,0)"/>
<path d="" fill="#00AAFF" transform="translate(0,0)"/>
<path d="" fill="#003F7F" transform="translate(0,0)"/>
<path d="" fill="#FF00AA" transform="translate(0,0)"/>
<path d="" fill="#7FFF3F" transform="translate(0,0)"/>
<path d="" fill="#FF7F00" transform="translate(0,0)"/>
<path d="" fill="#003FBF" transform="translate(0,0)"/>
<path d="" fill="#00FFFF" transform="translate(0,0)"/>
<path d="" fill="#FF007F" transform="translate(0,0)"/>
<path d="" fill="#7FFF3F" transform="translate(0,0)"/>
<path d="" fill="#FF7F00" transform="translate(0,0)"/>
<path d="" fill="#003F7F" transform="translate(0,0)"/>
<path d="" fill="#00BFFF" transform="translate(0,0)"/>
<path d="" fill="#FF007F" transform="translate(0,0)"/>
<path d="" fill="#7FFF3F" transform="translate(0,0)"/>
<path d="" fill="#FF7F00" transform="translate(0,0)"/>
<path d="" fill="#003F7F" transform="translate(0,0)"/>
<path d="" fill="#00BFBF" transform="translate(0,0)"/>
<path d="" fill="#FF007F" transform="translate(0,0)"/>
<path d="" fill="#7FFF3F" transform="translate(0,0)"/>
<path d="" fill="#FF7F00" transform="translate(0,0)"/>
<path d="" fill="#007FBF" transform="translate(0,0)"/>
<path d="" fill="#00FFFF" transform="translate(0,0)"/>
<path d="" fill="#FF00AA" transform="translate(0,0)"/>
<path d="" fill="#7FFF3F" transform="translate(0,0)"/>
<path d="" fill="#FF7F00" transform="translate(0,0)"/>
<path d="" fill="#007FBF" transform="translate(0,0)"/>
<path d="" fill="#00AAFF" transform="translate(0,0)"/>
<path d="" fill="#007FBF" transform="translate(0,0)"/>
<path d="" fill="#FF00AA" transform="translate(0,0)"/>
<path d="" fill="#7FFF3F" transform="translate(0,0)"/>
<path d="" fill="#FF7F00" transform="translate(0,0)"/>
<path d="" fill="#007FBF" transform="translate(0,0)"/>
<path d="" fill="#003FBF" transform="translate(0,0)"/>
<path d="" fill="#7FBF3F" transform="translate(0,0)"/>
<path d="" fill="#BF7F00" transform="translate(0,0)"/>
<path d="" fill="#003F7F" transform="translate(0,0)"/>
<path d="" fill="#0055AA" transform="translate(0,0)"/>
<path d="" fill="#AAFF55" transform="translate(0,0)"/>
<path d="" fill="#FF007F" transform="translate(0,0)"/>
<path d="" fill="#00AAFF" transform="translate(0,0)"/>
<path d="" fill="#003F7F" transform="translate(0,0)"/>
<path d="" fill="#7FBF3F" transform="translate(0,0)"/>
<path d="" fill="#003FBF" transform="translate(0,0)"/>
<path d="" fill="#FF00AA" transform="translate(0,0)"/>
<path d="" fill="#FF007F" transform="translate(0,0)"/>
<path d="" fill="#0055AA" transform="translate(0,0)"/>
<path d="" fill="#FF007F" transform="translate(0,0)"/>
<path d="" fill="#FFFF00" transform="translate(0,0)"/>
<path d="" fill="#003FBF" transform="translate(0,0)"/>
<path d="" fill="#0055AA" transform="translate(0,0)"/>
<path d="" fill="#FFBF00" transform="translate(0,0)"/>
<path d="" fill="#FFFF00" transform="translate(0,0)"/>
<path d="" fill="#FFFF00" transform="translate(0,0)"/>
<path d="" fill="#FFFF00" transform="translate(0,0)"/>
<path d="" fill="#FFFF00" transform="translate(0,0)"/>
<path d="" fill="#FFFF00" transform="translate(0,0)"/>
<path d="" fill="#FF00AA" transform="translate(0,0)"/>
<path d="" fill="#FFFF00" transform="translate(0,0)"/>
<path d="" fill="#0055AA" transform="translate(0,0)"/>
<path d="" fill="#003F7F" transform="translate(0,0)"/>
<path d="" fill="#FFFF00" transform="translate(0,0)"/>
<path d="" fill="#0055AA" transform="translate(0,0)"/>
<path d="" fill="#FF007F" transform="translate(0,0)"/>
<path d="" fill="#AAFF55" transform="translate(0,0)"/>
<path d="" fill="#FF5500" transform="translate(0,0)"/>
<path d="" fill="#FFBF00" transform="translate(0,0)"/>
<path d="" fill="#006699" transform="translate(0,0)"/>
<path d="" fill="#FF007F" transform="translate(0,0)"/>
<path d="" fill="#FF007F" transform="translate(0,0)"/>
<path d="" fill="#FF007F" transform="translate(0,0)"/>
<path d="" fill="#FF007F" transform="translate(0,0)"/>
<path d="" fill="#FF007F" transform="translate(0,0)"/>
<path d="" fill="#FF00AA" transform="translate(0,0)"/>
<path d="" fill="#FF00AA" transform="translate(0,0)"/>
<path d="" fill="#FF0099" transform="translate(0,0)"/>
<path d="" fill="#7FBF3F" transform="translate(0,0)"/>
<path d="" fill="#FF7F00" transform="translate(0,0)"/>
<path d="" fill="#FF007F" transform="translate(0,0)"/>
<path d="" fill="#AAFF55" transform="translate(0,0)"/>
<path d="" fill="#FF5500" transform="translate(0,0)"/>
<path d="" fill="#FF0099" transform="translate(0,0)"/>
<path d="" fill="#7FBF3F" transform="translate(0,0)"/>
<path d="" fill="#BF7F00" transform="translate(0,0)"/>
<path d="" fill="#003FBF" transform="translate(0,0)"/>
<path d="" fill="#99CC33" transform="translate(0,0)"/>
<path d="" fill="#CC6600" transform="translate(0,0)"/>
<path d="" fill="#99CC00" transform="translate(0,0)"/>
<path d="" fill="#FF00AA" transform="translate(0,0)"/>
<path d="" fill="#FF007F" transform="translate(0,0)"/>
<path d="" fill="#FF00AA" transform="translate(0,0)"/>
<path d="" fill="#FF00AA" transform="translate(0,0)"/>
<path d="" fill="#FF00AA" transform="translate(0,0)"/>
<path d="" fill="#FF007F" transform="translate(0,0)"/>
<path d="" fill="#FF7F00" transform="translate(0,0)"/>
<path d="" fill="#0055AA" transform="translate(0,0)"/>
<path d="" fill="#003F7F" transform="translate(0,0)"/>
<path d="" fill="#007FBF" transform="translate(0,0)"/>
<path d="" fill="#AAAA55" transform="translate(0,0)"/>
<path d="" fill="#AA5500" transform="translate(0,0)"/>
<path d="" fill="#007FBF" transform="translate(0,0)"/>
<path d="" fill="#FF00AA" transform="translate(0,0)"/>
<path d="" fill="#7FBF3F" transform="translate(0,0)"/>
<path d="" fill="#FF5500" transform="translate(0,0)"/>
<path d="" fill="#007FBF" transform="translate(0,0)"/>
<path d="" fill="#FF00AA" transform="translate(0,0)"/>
<path d="" fill="#7FBF3F" transform="translate(0,0)"/>
<path d="" fill="#FF7F00" transform="translate(0,0)"/>
<path d="" fill="#007FBF" transform="translate(0,0)"/>
<path d="" fill="#FF00AA" transform="translate(0,0)"/>
<path d="" fill="#7FBF3F" transform="translate(0,0)"/>
<path d="" fill="#FF7F00" transform="translate(0,0)"/>
<path d="" fill="#FFFF00" transform="translate(0,0)"/>
<path d="" fill="#007FBF" transform="translate(0,0)"/>
<path d="" fill="#FF00AA" transform="translate(0,0)"/>
<path d="" fill="#7FBF3F" transform="translate(0,0)"/>
<path d="" fill="#FF7F00" transform="translate(0,0)"/>
<path d="" fill="#007FBF" transform="translate(0,0)"/>
<path d="" fill="#FF00AA" transform="translate(0,0)"/>
<path d="" fill="#7FBF3F" transform="translate(0,0)"/>
<path d="" fill="#BF7F00" transform="translate(0,0)"/>
<path d="" fill="#003FBF" transform="translate(0,0)"/>
<path d="" fill="#FF007F" transform="translate(0,0)"/>
<path d="" fill="#7FBF3F" transform="translate(0,0)"/>
<path d="" fill="#FF5500" transform="translate(0,0)"/>
<path d="" fill="#003F7F" transform="translate(0,0)"/>
<path d="" fill="#AAAA55" transform="translate(0,0)"/>
<path d="" fill="#FF7F00" transform="translate(0,0)"/>
<path d="" fill="#0055AA" transform="translate(0,0)"/>
<path d="" fill="#FF007F" transform="translate(0,0)"/>
<path d="" fill="#FFFF00" transform="translate(0,0)"/>
<path d="" fill="#003F7F" transform="translate(0,0)"/>
<path d="" fill="#FF007F" transform="translate(0,0)"/>
<path d="" fill="#7FBF3F" transform="translate(0,0)"/>
<path d="" fill="#BF7F00" transform="translate(0,0)"/>
<path d="" fill="#0055AA" transform="translate(0,0)"/>
<path d="" fill="#7FFF7F" transform="translate(0,0)"/>
<path d="" fill="#FF7F00" transform="translate(0,0)"/>
<path d="" fill="#FF00AA" transform="translate(0,0)"/>
<path d="" fill="#FFBF00" transform="translate(0,0)"/>
<path d="" fill="#0055AA" transform="translate(0,0)"/>
<path d="" fill="#00AAAA" transform="translate(0,0)"/>
<path d="" fill="#00AAFF" transform="translate(0,0)"/>
<path d="" fill="#AAAA55" transform="translate(0,0)"/>
<path d="" fill="#FF7F00" transform="translate(0,0)"/>
<path d="" fill="#FFBF00" transform="translate(0,0)"/>
<path d="" fill="#003F7F" transform="translate(0,0)"/>
<path d="" fill="#00BFFF" transform="translate(0,0)"/>
<path d="" fill="#003F7F" transform="translate(0,0)"/>
<path d="" fill="#00BF7F" transform="translate(0,0)"/>
<path d="" fill="#00BFFF" transform="translate(0,0)"/>
<path d="" fill="#BF7F00" transform="translate(0,0)"/>
<path d="" fill="#FF00AA" transform="translate(0,0)"/>
<path d="" fill="#FFFF00" transform="translate(0,0)"/>
<path d="" fill="#003FBF" transform="translate(0,0)"/>
<path d="" fill="#FF00AA" transform="translate(0,0)"/>
<path d="" fill="#55AA00" transform="translate(0,0)"/>
<path d="" fill="#00BF7F" transform="translate(0,0)"/>
<path d="" fill="#00BFFF" transform="translate(0,0)"/>
<path d="" fill="#FF007F" transform="translate(0,0)"/>
<path d="" fill="#AAFF00" transform="translate(0,0)"/>
<path d="" fill="#007F7F" transform="translate(0,0)"/>
<path d="" fill="#003F7F" transform="translate(0,0)"/>
<path d="" fill="#55AA00" transform="translate(0,0)"/>
<path d="" fill="#7FFF00" transform="translate(0,0)"/>
<path d="" fill="#00BF7F" transform="translate(0,0)"/>
<path d="" fill="#00BFBF" transform="translate(0,0)"/>
<path d="" fill="#FF007F" transform="translate(0,0)"/>
<path d="" fill="#FFAA00" transform="translate(0,0)"/>
<path d="" fill="#7FBF00" transform="translate(0,0)"/>
<path d="" fill="#007F7F" transform="translate(0,0)"/>
<path d="" fill="#003F7F" transform="translate(0,0)"/>
<path d="" fill="#00FFFF" transform="translate(0,0)"/>
<path d="" fill="#00AAFF" transform="translate(0,0)"/>
<path d="" fill="#55AA00" transform="translate(0,0)"/>
<path d="" fill="#7F7F00" transform="translate(0,0)"/>
<path d="" fill="#00BF7F" transform="translate(0,0)"/>
<path d="" fill="#00BFBF" transform="translate(0,0)"/>
<path d="" fill="#FF00AA" transform="translate(0,0)"/>
<path d="" fill="#FF007F" transform="translate(0,0)"/>
<path d="" fill="#7FBF00" transform="translate(0,0)"/>
<path d="" fill="#007F7F" transform="translate(0,0)"/>
<path d="" fill="#003F7F" transform="translate(0,0)"/>
<path d="" fill="#00BFFF" transform="translate(0,0)"/>
<path d="" fill="#7F7F00" transform="translate(0,0)"/>
<path d="" fill="#00AAAA" transform="translate(0,0)"/>
<path d="" fill="#00AAFF" transform="translate(0,0)"/>
<path d="" fill="#FF007F" transform="translate(0,0)"/>
<path d="" fill="#FF00AA" transform="translate(0,0)"/>
<path d="" fill="#55AA00" transform="translate(0,0)"/>
<path d="" fill="#0055AA" transform="translate(0,0)"/>
<path d="" fill="#00FFFF" transform="translate(0,0)"/>
<path d="" fill="#00AAFF" transform="translate(0,0)"/>
<path d="" fill="#AAFF00" transform="translate(0,0)"/>
<path d="" fill="#0055AA" transform="translate(0,0)"/>
<path d="" fill="#00AAFF" transform="translate(0,0)"/>
<path d="" fill="#55AA00" transform="translate(0,0)"/>
<path d="" fill="#00AAAA" transform="translate(0,0)"/>
<path d="" fill="#00AAAA" transform="translate(0,0)"/>
<path d="" fill="#AAAA00" transform="translate(0,0)"/>
</svg>
