<?xml version="1.0" encoding="UTF-8"?>
<!DOCTYPE svg PUBLIC "-//W3C//DTD SVG 1.1//EN" "http://www.w3.org/Graphics/SVG/1.1/DTD/svg11.dtd">
<svg xmlns="http://www.w3.org/2000/svg" version="1.1" width="456px" height="548px" style="shape-rendering:geometricPrecision; text-rendering:geometricPrecision; image-rendering:optimizeQuality; fill-rule:evenodd; clip-rule:evenodd" xmlns:xlink="http://www.w3.org/1999/xlink">
<g><path style="opacity:0.331" fill="#bababa" d="M 241.5,6.5 C 242.449,5.84761 243.615,5.51428 245,5.5C 247.221,5.39317 249.054,6.05984 250.5,7.5C 247.545,6.84128 244.545,6.50795 241.5,6.5 Z"/></g>
<g><path style="opacity:1" fill="#0b0b0b" d="M 241.5,6.5 C 244.545,6.50795 247.545,6.84128 250.5,7.5C 251.5,7.83333 252.167,8.5 252.5,9.5C 252.821,11.0481 253.821,11.7148 255.5,11.5C 256.167,11.8333 256.833,12.1667 257.5,12.5C 257.427,14.0269 258.094,15.0269 259.5,15.5C 261.207,23.2681 262.207,31.2681 262.5,39.5C 262.344,43.7643 263.011,47.7643 264.5,51.5C 265.341,53.3792 265.675,55.3792 265.5,57.5C 266.076,62.8094 267.409,67.8094 269.5,72.5C 270.301,74.0418 270.634,75.7085 270.5,77.5C 270.59,81.2142 271.59,84.5475 273.5,87.5C 274.407,89.6568 275.073,91.9902 275.5,94.5C 275.528,97.9164 276.528,100.916 278.5,103.5C 279.434,104.568 279.768,105.901 279.5,107.5C 279.345,110.716 280.345,113.383 282.5,115.5C 283.404,116.209 283.737,117.209 283.5,118.5C 283.12,120.698 283.787,122.365 285.5,123.5C 285.5,123.833 285.5,124.167 285.5,124.5C 285.12,126.698 285.787,128.365 287.5,129.5C 289.07,132.314 290.403,135.314 291.5,138.5C 291.402,140.553 292.069,142.22 293.5,143.5C 294.338,143.842 294.672,144.508 294.5,145.5C 294.427,147.027 295.094,148.027 296.5,148.5C 297.674,149.514 298.34,150.847 298.5,152.5C 298.427,154.027 299.094,155.027 300.5,155.5C 300.738,157.404 301.738,158.738 303.5,159.5C 303.427,161.027 304.094,162.027 305.5,162.5C 305.738,164.404 306.738,165.738 308.5,166.5C 308.894,168.71 310.227,170.043 312.5,170.5C 314.137,172.475 315.804,174.475 317.5,176.5C 320.167,181.167 323.833,184.833 328.5,187.5C 330.167,188.5 331.5,189.833 332.5,191.5C 332.973,192.906 333.973,193.573 335.5,193.5C 336.5,193.833 337.167,194.5 337.5,195.5C 338.035,197.446 339.368,198.446 341.5,198.5C 342.167,198.5 342.5,198.833 342.5,199.5C 342.973,200.906 343.973,201.573 345.5,201.5C 349.538,204.512 353.538,207.512 357.5,210.5C 358.035,212.446 359.368,213.446 361.5,213.5C 362.167,213.833 362.833,214.167 363.5,214.5C 364.035,216.446 365.368,217.446 367.5,217.5C 374.671,221.251 381.671,225.251 388.5,229.5C 389.659,231.25 391.326,232.25 393.5,232.5C 395.153,232.66 396.486,233.326 397.5,234.5C 398.514,235.674 399.847,236.34 401.5,236.5C 404.018,237.264 406.351,238.264 408.5,239.5C 410.426,241.293 412.759,242.293 415.5,242.5C 417.786,242.595 419.786,243.262 421.5,244.5C 422.78,245.931 424.447,246.598 426.5,246.5C 428.703,246.604 430.703,247.27 432.5,248.5C 434.181,250.008 436.181,251.008 438.5,251.5C 440.262,252.262 441.262,253.596 441.5,255.5C 441.5,258.5 441.5,261.5 441.5,264.5C 439.437,269.101 435.77,271.101 430.5,270.5C 426.613,270.646 422.946,271.313 419.5,272.5C 415.236,272.344 411.236,273.011 407.5,274.5C 405.958,275.301 404.292,275.634 402.5,275.5C 399.772,275.171 397.438,275.837 395.5,277.5C 392.785,279.072 389.785,280.072 386.5,280.5C 384.447,280.402 382.78,281.069 381.5,282.5C 379.351,283.736 377.018,284.736 374.5,285.5C 372.62,285.229 371.287,285.896 370.5,287.5C 365.698,290.403 360.698,293.07 355.5,295.5C 353.973,295.427 352.973,296.094 352.5,297.5C 351.035,298.737 349.368,299.737 347.5,300.5C 345.973,300.427 344.973,301.094 344.5,302.5C 343.205,303.488 341.872,304.488 340.5,305.5C 338.973,305.427 337.973,306.094 337.5,307.5C 334.149,310.848 330.482,313.848 326.5,316.5C 324.973,316.427 323.973,317.094 323.5,318.5C 321.833,320.833 319.833,322.833 317.5,324.5C 315.596,324.738 314.262,325.738 313.5,327.5C 310.5,331.167 307.167,334.5 303.5,337.5C 301.413,338.585 300.08,340.251 299.5,342.5C 297.833,344.833 295.833,346.833 293.5,348.5C 292.094,348.973 291.427,349.973 291.5,351.5C 283.416,361.575 275.75,371.908 268.5,382.5C 267.094,382.973 266.427,383.973 266.5,385.5C 260.559,396.382 254.892,407.382 249.5,418.5C 247.707,420.426 246.707,422.759 246.5,425.5C 246.405,427.786 245.738,429.786 244.5,431.5C 242.194,435.085 240.861,439.085 240.5,443.5C 240.5,444.167 240.5,444.833 240.5,445.5C 238.098,450.101 236.765,455.101 236.5,460.5C 236.675,462.621 236.341,464.621 235.5,466.5C 234.129,471.272 233.296,476.272 233,481.5C 232.5,496.496 232.333,511.496 232.5,526.5C 232.365,530.627 230.365,533.294 226.5,534.5C 223.5,534.5 220.5,534.5 217.5,534.5C 217.027,533.094 216.027,532.427 214.5,532.5C 213.166,520.714 211.5,509.047 209.5,497.5C 208.735,494.904 208.401,492.237 208.5,489.5C 208.344,483.884 207.344,478.551 205.5,473.5C 204.343,470.727 203.676,467.727 203.5,464.5C 203.741,462.102 203.074,460.102 201.5,458.5C 200.076,456.485 199.41,454.152 199.5,451.5C 198.943,446.835 197.61,442.502 195.5,438.5C 194.596,437.791 194.263,436.791 194.5,435.5C 194.139,431.085 192.806,427.085 190.5,423.5C 189.89,422.609 189.557,421.609 189.5,420.5C 189.472,417.084 188.472,414.084 186.5,411.5C 185.596,410.791 185.263,409.791 185.5,408.5C 185.856,405.224 184.856,402.557 182.5,400.5C 180.935,398.491 179.935,396.157 179.5,393.5C 179.598,391.447 178.931,389.78 177.5,388.5C 175.935,386.491 174.935,384.157 174.5,381.5C 174.008,379.181 173.008,377.181 171.5,375.5C 170.326,374.486 169.66,373.153 169.5,371.5C 169.25,369.326 168.25,367.659 166.5,366.5C 165.326,365.486 164.66,364.153 164.5,362.5C 164.25,360.326 163.25,358.659 161.5,357.5C 160.662,357.158 160.328,356.492 160.5,355.5C 160.446,353.368 159.446,352.035 157.5,351.5C 156.662,351.158 156.328,350.492 156.5,349.5C 156.176,346.181 154.509,343.848 151.5,342.5C 147.864,337.858 144.197,333.191 140.5,328.5C 140.167,326.167 138.833,324.833 136.5,324.5C 136.167,323.833 135.833,323.167 135.5,322.5C 134.5,320.833 133.167,319.5 131.5,318.5C 130.089,316.086 128.089,314.419 125.5,313.5C 124.415,311.413 122.749,310.08 120.5,309.5C 119.508,309.672 118.842,309.338 118.5,308.5C 118.027,307.094 117.027,306.427 115.5,306.5C 115.027,305.094 114.027,304.427 112.5,304.5C 111.508,304.672 110.842,304.338 110.5,303.5C 110.027,302.094 109.027,301.427 107.5,301.5C 100.765,298.462 94.0981,295.462 87.5,292.5C 84.3743,290.01 80.7076,288.677 76.5,288.5C 76.1667,288.5 75.8333,288.5 75.5,288.5C 72.5475,286.59 69.2142,285.59 65.5,285.5C 61.9601,285.247 58.6267,284.581 55.5,283.5C 51.4535,281.74 47.1201,280.74 42.5,280.5C 39.2727,280.324 36.2727,279.657 33.5,278.5C 32.4863,277.326 31.153,276.66 29.5,276.5C 27.8564,276.19 26.8564,275.19 26.5,273.5C 24.9622,269.286 25.2956,265.286 27.5,261.5C 28.5,261.167 29.1667,260.5 29.5,259.5C 31.1815,257.992 33.1815,256.992 35.5,256.5C 37.0269,256.573 38.0269,255.906 38.5,254.5C 39.9303,253.463 41.597,252.796 43.5,252.5C 46.491,252.834 48.8243,251.834 50.5,249.5C 51.5676,248.566 52.901,248.232 54.5,248.5C 58.6734,248.333 62.3401,247 65.5,244.5C 71.4228,242.215 77.4228,239.881 83.5,237.5C 86.3933,237.969 88.3933,236.969 89.5,234.5C 91.649,233.264 93.9823,232.264 96.5,231.5C 98.0269,231.573 99.0269,230.906 99.5,229.5C 100.209,228.596 101.209,228.263 102.5,228.5C 104.027,228.573 105.027,227.906 105.5,226.5C 105.842,225.662 106.508,225.328 107.5,225.5C 109.027,225.573 110.027,224.906 110.5,223.5C 111.514,222.326 112.847,221.66 114.5,221.5C 116.027,221.573 117.027,220.906 117.5,219.5C 117.842,218.662 118.508,218.328 119.5,218.5C 121.027,218.573 122.027,217.906 122.5,216.5C 124.027,216.573 125.027,215.906 125.5,214.5C 125.842,213.662 126.508,213.328 127.5,213.5C 129.404,213.262 130.738,212.262 131.5,210.5C 131.842,209.662 132.508,209.328 133.5,209.5C 135.404,209.262 136.738,208.262 137.5,206.5C 139.027,206.573 140.027,205.906 140.5,204.5C 142.749,203.92 144.415,202.587 145.5,200.5C 147.027,200.573 148.027,199.906 148.5,198.5C 150.749,197.92 152.415,196.587 153.5,194.5C 156.089,193.581 158.089,191.914 159.5,189.5C 159.833,188.5 160.5,187.833 161.5,187.5C 164.764,185.906 167.431,183.573 169.5,180.5C 172.5,179.5 174.5,177.5 175.5,174.5C 178.833,170.5 182.5,166.833 186.5,163.5C 189.573,161.431 191.906,158.764 193.5,155.5C 193.833,154.5 194.5,153.833 195.5,153.5C 197.914,152.089 199.581,150.089 200.5,147.5C 202.262,146.738 203.262,145.404 203.5,143.5C 205.262,142.738 206.262,141.404 206.5,139.5C 208.262,138.738 209.262,137.404 209.5,135.5C 210.906,135.027 211.573,134.027 211.5,132.5C 212.906,132.027 213.573,131.027 213.5,129.5C 213.328,128.508 213.662,127.842 214.5,127.5C 215.906,127.027 216.573,126.027 216.5,124.5C 217.906,124.027 218.573,123.027 218.5,121.5C 218.66,119.847 219.326,118.514 220.5,117.5C 222.008,115.819 223.008,113.819 223.5,111.5C 223.796,109.597 224.463,107.93 225.5,106.5C 227.915,103.66 229.248,100.327 229.5,96.5C 229.216,94.5853 229.549,92.9187 230.5,91.5C 231.761,88.7422 232.594,85.7422 233,82.5C 233.77,68.1171 233.27,53.7837 231.5,39.5C 231.334,33.8236 231.501,28.1569 232,22.5C 233.43,19.6473 234.263,16.6473 234.5,13.5C 234.328,12.5084 234.662,11.8417 235.5,11.5C 237.167,10.5 238.5,9.16667 239.5,7.5C 239.842,6.66175 240.508,6.32842 241.5,6.5 Z M 251.5,92.5 C 252.167,92.5 252.833,92.5 253.5,92.5C 253.232,94.099 253.566,95.4324 254.5,96.5C 254.723,100.162 255.723,103.495 257.5,106.5C 259.261,113.784 261.595,120.784 264.5,127.5C 264.402,129.553 265.069,131.22 266.5,132.5C 266.98,135.443 267.98,138.11 269.5,140.5C 269.402,142.553 270.069,144.22 271.5,145.5C 271.66,147.153 272.326,148.486 273.5,149.5C 273.461,152.089 274.461,154.089 276.5,155.5C 276.66,157.153 277.326,158.486 278.5,159.5C 278.427,161.027 279.094,162.027 280.5,162.5C 280.328,163.492 280.662,164.158 281.5,164.5C 282.026,166.23 283.026,167.564 284.5,168.5C 285.786,171.117 287.453,173.45 289.5,175.5C 289.738,177.404 290.738,178.738 292.5,179.5C 292.5,180.167 292.833,180.5 293.5,180.5C 293.427,182.027 294.094,183.027 295.5,183.5C 296.833,185.167 298.167,186.833 299.5,188.5C 299.973,189.906 300.973,190.573 302.5,190.5C 302.5,190.833 302.5,191.167 302.5,191.5C 306.892,196.894 311.892,201.561 317.5,205.5C 317.833,206.5 318.5,207.167 319.5,207.5C 320.585,209.587 322.251,210.92 324.5,211.5C 325.585,213.587 327.251,214.92 329.5,215.5C 330.585,217.587 332.251,218.92 334.5,219.5C 335.262,221.262 336.596,222.262 338.5,222.5C 338.973,223.906 339.973,224.573 341.5,224.5C 342.262,226.262 343.596,227.262 345.5,227.5C 345.973,228.906 346.973,229.573 348.5,229.5C 348.973,230.906 349.973,231.573 351.5,231.5C 352.262,233.262 353.596,234.262 355.5,234.5C 355.842,235.338 356.508,235.672 357.5,235.5C 357.973,236.906 358.973,237.573 360.5,237.5C 360.973,238.906 361.973,239.573 363.5,239.5C 364.514,240.674 365.847,241.34 367.5,241.5C 367.973,242.906 368.973,243.573 370.5,243.5C 371.514,244.674 372.847,245.34 374.5,245.5C 374.973,246.906 375.973,247.573 377.5,247.5C 382.081,250.622 387.081,252.956 392.5,254.5C 392.5,255.167 392.5,255.833 392.5,256.5C 389.848,256.41 387.515,257.076 385.5,258.5C 384.209,258.263 383.209,258.596 382.5,259.5C 379.557,259.98 376.89,260.98 374.5,262.5C 372.597,262.796 370.93,263.463 369.5,264.5C 368.508,264.328 367.842,264.662 367.5,265.5C 364.982,266.264 362.649,267.264 360.5,268.5C 359.508,268.328 358.842,268.662 358.5,269.5C 356.973,269.427 355.973,270.094 355.5,271.5C 353.181,271.992 351.181,272.992 349.5,274.5C 347.566,275.11 345.899,276.11 344.5,277.5C 343.508,277.328 342.842,277.662 342.5,278.5C 340.596,278.738 339.262,279.738 338.5,281.5C 337.508,281.328 336.842,281.662 336.5,282.5C 334.596,282.738 333.262,283.738 332.5,285.5C 330.973,285.427 329.973,286.094 329.5,287.5C 327.596,287.738 326.262,288.738 325.5,290.5C 323.596,290.738 322.262,291.738 321.5,293.5C 319.251,294.08 317.585,295.413 316.5,297.5C 313.911,298.419 311.911,300.086 310.5,302.5C 307.236,304.094 304.569,306.427 302.5,309.5C 295.5,314.5 289.5,320.5 284.5,327.5C 283.167,328.167 282.167,329.167 281.5,330.5C 279.086,331.911 277.419,333.911 276.5,336.5C 275.5,336.833 274.833,337.5 274.5,338.5C 272.413,339.585 271.08,341.251 270.5,343.5C 268.413,344.585 267.08,346.251 266.5,348.5C 264.738,349.262 263.738,350.596 263.5,352.5C 261.738,353.262 260.738,354.596 260.5,356.5C 259.094,356.973 258.427,357.973 258.5,359.5C 256.738,360.262 255.738,361.596 255.5,363.5C 254.662,363.842 254.328,364.508 254.5,365.5C 252.738,366.262 251.738,367.596 251.5,369.5C 250.662,369.842 250.328,370.508 250.5,371.5C 249.094,371.973 248.427,372.973 248.5,374.5C 247.094,374.973 246.427,375.973 246.5,377.5C 245.326,378.514 244.66,379.847 244.5,381.5C 243.094,381.973 242.427,382.973 242.5,384.5C 240.659,386.849 239.326,389.515 238.5,392.5C 237.094,392.973 236.427,393.973 236.5,395.5C 234.796,398.256 233.463,401.256 232.5,404.5C 230.707,406.426 229.707,408.759 229.5,411.5C 228.463,412.93 227.796,414.597 227.5,416.5C 226.069,417.78 225.402,419.447 225.5,421.5C 224.596,422.209 224.263,423.209 224.5,424.5C 222.928,427.215 221.928,430.215 221.5,433.5C 219.96,435.838 219.294,438.505 219.5,441.5C 218.313,439.928 217.313,438.261 216.5,436.5C 216.073,433.99 215.407,431.657 214.5,429.5C 213.739,425.216 212.405,421.216 210.5,417.5C 210.405,415.214 209.738,413.214 208.5,411.5C 208.405,409.214 207.738,407.214 206.5,405.5C 206.204,403.597 205.537,401.93 204.5,400.5C 204.396,398.297 203.73,396.297 202.5,394.5C 202.204,392.597 201.537,390.93 200.5,389.5C 200.672,388.508 200.338,387.842 199.5,387.5C 199.293,384.759 198.293,382.426 196.5,380.5C 194.678,374.864 192.345,369.531 189.5,364.5C 189.573,362.973 188.906,361.973 187.5,361.5C 186.674,358.515 185.341,355.849 183.5,353.5C 183.573,351.973 182.906,350.973 181.5,350.5C 181.672,349.508 181.338,348.842 180.5,348.5C 180.573,346.973 179.906,345.973 178.5,345.5C 178.573,343.973 177.906,342.973 176.5,342.5C 176.672,341.508 176.338,340.842 175.5,340.5C 175.262,338.596 174.262,337.262 172.5,336.5C 172.672,335.508 172.338,334.842 171.5,334.5C 171.573,332.973 170.906,331.973 169.5,331.5C 169.262,329.596 168.262,328.262 166.5,327.5C 165.92,325.251 164.587,323.585 162.5,322.5C 162.573,320.973 161.906,319.973 160.5,319.5C 160.5,318.167 159.833,317.5 158.5,317.5C 157.92,315.251 156.587,313.585 154.5,312.5C 150.833,308.167 146.833,304.167 142.5,300.5C 141.738,298.738 140.404,297.738 138.5,297.5C 135.373,294.102 131.707,291.435 127.5,289.5C 126.564,288.026 125.23,287.026 123.5,286.5C 123.158,285.662 122.492,285.328 121.5,285.5C 120.71,284.599 119.71,283.932 118.5,283.5C 113.93,280.384 108.93,278.05 103.5,276.5C 101.574,274.707 99.2406,273.707 96.5,273.5C 94.7857,272.262 92.7857,271.595 90.5,271.5C 87.9164,269.528 84.9164,268.528 81.5,268.5C 79.4006,267.388 77.0673,266.721 74.5,266.5C 73.5,265.833 72.5,265.167 71.5,264.5C 71.8333,264.5 72.1667,264.5 72.5,264.5C 74.5529,264.598 76.2196,263.931 77.5,262.5C 79.5529,262.598 81.2196,261.931 82.5,260.5C 85.1573,260.065 87.4907,259.065 89.5,257.5C 91.5529,257.598 93.2196,256.931 94.5,255.5C 105.809,250.848 116.475,245.182 126.5,238.5C 128.027,238.573 129.027,237.906 129.5,236.5C 131.434,235.89 133.101,234.89 134.5,233.5C 136.027,233.573 137.027,232.906 137.5,231.5C 139.027,231.573 140.027,230.906 140.5,229.5C 142.027,229.573 143.027,228.906 143.5,227.5C 145.027,227.573 146.027,226.906 146.5,225.5C 148.027,225.573 149.027,224.906 149.5,223.5C 151.23,222.974 152.564,221.974 153.5,220.5C 155.027,220.573 156.027,219.906 156.5,218.5C 160.146,216.183 163.48,213.516 166.5,210.5C 168.404,210.262 169.738,209.262 170.5,207.5C 175.46,204.208 179.793,200.208 183.5,195.5C 185.749,194.92 187.415,193.587 188.5,191.5C 191.167,189.5 193.5,187.167 195.5,184.5C 197.262,183.738 198.262,182.404 198.5,180.5C 199.833,180.5 200.5,179.833 200.5,178.5C 203.167,176.5 205.5,174.167 207.5,171.5C 208.906,171.027 209.573,170.027 209.5,168.5C 211.167,167.5 212.5,166.167 213.5,164.5C 214.906,164.027 215.573,163.027 215.5,161.5C 216.5,161.167 217.167,160.5 217.5,159.5C 218.906,159.027 219.573,158.027 219.5,156.5C 222.888,153.403 225.555,149.736 227.5,145.5C 228.906,145.027 229.573,144.027 229.5,142.5C 230.89,141.101 231.89,139.434 232.5,137.5C 233.906,137.027 234.573,136.027 234.5,134.5C 235.338,134.158 235.672,133.492 235.5,132.5C 237.25,131.341 238.25,129.674 238.5,127.5C 240.008,125.819 241.008,123.819 241.5,121.5C 243.293,119.574 244.293,117.241 244.5,114.5C 245.931,113.22 246.598,111.553 246.5,109.5C 248.472,106.916 249.472,103.916 249.5,100.5C 251.04,98.1617 251.706,95.4951 251.5,92.5 Z"/></g>
<g><path style="opacity:0.004" fill="#fefffe" d="M 401.5,7.5 C 402.833,8.16667 402.833,8.16667 401.5,7.5 Z"/></g>
<g><path style="opacity:0.004" fill="#fefffe" d="M 224.5,9.5 C 225.833,10.1667 225.833,10.1667 224.5,9.5 Z"/></g>
<g><path style="opacity:0.694" fill="#838383" d="M 239.5,7.5 C 238.5,9.16667 237.167,10.5 235.5,11.5C 235.833,9.16667 237.167,7.83333 239.5,7.5 Z"/></g>
<g><path style="opacity:0.812" fill="#888888" d="M 252.5,9.5 C 253.71,9.93205 254.71,10.5987 255.5,11.5C 253.821,11.7148 252.821,11.0481 252.5,9.5 Z"/></g>
<g><path style="opacity:0.004" fill="#fefffe" d="M 275.5,10.5 C 276.833,11.1667 276.833,11.1667 275.5,10.5 Z"/></g>
<g><path style="opacity:0.004" fill="#fefffe" d="M 221.5,14.5 C 222.833,15.1667 222.833,15.1667 221.5,14.5 Z"/></g>
<g><path style="opacity:0.243" fill="#c4c4c4" d="M 257.5,12.5 C 258.906,12.9731 259.573,13.9731 259.5,15.5C 258.094,15.0269 257.427,14.0269 257.5,12.5 Z"/></g>
<g><path style="opacity:0.004" fill="#fefffe" d="M 140.5,16.5 C 141.833,17.1667 141.833,17.1667 140.5,16.5 Z"/></g>
<g><path style="opacity:0.761" fill="#7d7d7d" d="M 234.5,13.5 C 234.263,16.6473 233.43,19.6473 232,22.5C 231.501,28.1569 231.334,33.8236 231.5,39.5C 230.518,36.0381 230.185,32.3714 230.5,28.5C 230.237,22.9744 231.57,17.9744 234.5,13.5 Z"/></g>
<g><path style="opacity:0.004" fill="#fefffe" d="M 200.5,19.5 C 201.833,20.1667 201.833,20.1667 200.5,19.5 Z"/></g>
<g><path style="opacity:0.022" fill="#d2d2d2" d="M 262.5,39.5 C 263.795,43.2671 264.461,47.2671 264.5,51.5C 263.011,47.7643 262.344,43.7643 262.5,39.5 Z"/></g>
<g><path style="opacity:0.122" fill="#c5c5c5" d="M 230.5,28.5 C 230.185,32.3714 230.518,36.0381 231.5,39.5C 233.27,53.7837 233.77,68.1171 233,82.5C 232.594,85.7422 231.761,88.7422 230.5,91.5C 231.886,84.246 232.553,76.9127 232.5,69.5C 231.913,57.8016 230.913,46.135 229.5,34.5C 229.505,32.3035 229.838,30.3035 230.5,28.5 Z"/></g>
<g><path style="opacity:0.004" fill="#fefffe" d="M 401.5,51.5 C 402.833,52.1667 402.833,52.1667 401.5,51.5 Z"/></g>
<g><path style="opacity:0.004" fill="#fefffe" d="M 194.5,53.5 C 195.833,54.1667 195.833,54.1667 194.5,53.5 Z"/></g>
<g><path style="opacity:0.004" fill="#fefffe" d="M 419.5,54.5 C 420.833,55.1667 420.833,55.1667 419.5,54.5 Z"/></g>
<g><path style="opacity:0.004" fill="#fefffe" d="M 281.5,59.5 C 282.833,60.1667 282.833,60.1667 281.5,59.5 Z"/></g>
<g><path style="opacity:0.388" fill="#b4b4b4" d="M 265.5,57.5 C 267.591,62.1906 268.924,67.1906 269.5,72.5C 267.409,67.8094 266.076,62.8094 265.5,57.5 Z"/></g>
<g><path style="opacity:0.718" fill="#959595" d="M 270.5,77.5 C 272.277,80.5046 273.277,83.8379 273.5,87.5C 271.59,84.5475 270.59,81.2142 270.5,77.5 Z"/></g>
<g><path style="opacity:0.004" fill="#fefffe" d="M 383.5,83.5 C 384.833,84.1667 384.833,84.1667 383.5,83.5 Z"/></g>
<g><path style="opacity:0.078" fill="#d5d5d5" d="M 253.5,92.5 C 252.833,92.5 252.167,92.5 251.5,92.5C 251.737,88.7113 252.404,88.7113 253.5,92.5 Z"/></g>
<g><path style="opacity:0.675" fill="#a6a6a6" d="M 275.5,94.5 C 277.072,97.2154 278.072,100.215 278.5,103.5C 276.528,100.916 275.528,97.9164 275.5,94.5 Z"/></g>
<g><path style="opacity:0.004" fill="#fefffe" d="M 356.5,97.5 C 357.833,98.1667 357.833,98.1667 356.5,97.5 Z"/></g>
<g><path style="opacity:0.004" fill="#fefffe" d="M 443.5,97.5 C 444.833,98.1667 444.833,98.1667 443.5,97.5 Z"/></g>
<g><path style="opacity:0.004" fill="#fefffe" d="M 38.5,99.5 C 39.8333,100.167 39.8333,100.167 38.5,99.5 Z"/></g>
<g><path style="opacity:0.008" fill="#c6c6c6" d="M 254.5,96.5 C 256.277,99.5046 257.277,102.838 257.5,106.5C 255.723,103.495 254.723,100.162 254.5,96.5 Z"/></g>
<g><path style="opacity:0.784" fill="#7f7f7f" d="M 229.5,96.5 C 229.248,100.327 227.915,103.66 225.5,106.5C 226.263,102.863 227.597,99.5299 229.5,96.5 Z"/></g>
<g><path style="opacity:0.035" fill="#c4c4c4" d="M 249.5,100.5 C 249.472,103.916 248.472,106.916 246.5,109.5C 246.928,106.215 247.928,103.215 249.5,100.5 Z"/></g>
<g><path style="opacity:0.004" fill="#fefffe" d="M 377.5,107.5 C 378.833,108.167 378.833,108.167 377.5,107.5 Z"/></g>
<g><path style="opacity:0.004" fill="#fefffe" d="M 389.5,107.5 C 390.833,108.167 390.833,108.167 389.5,107.5 Z"/></g>
<g><path style="opacity:0.847" fill="#7f7f7f" d="M 279.5,107.5 C 281.02,109.89 282.02,112.557 282.5,115.5C 280.345,113.383 279.345,110.716 279.5,107.5 Z"/></g>
<g><path style="opacity:0.004" fill="#fefffe" d="M 383.5,110.5 C 384.833,111.167 384.833,111.167 383.5,110.5 Z"/></g>
<g><path style="opacity:0.153" fill="#c2c2c2" d="M 223.5,111.5 C 223.008,113.819 222.008,115.819 220.5,117.5C 220.461,114.911 221.461,112.911 223.5,111.5 Z"/></g>
<g><path style="opacity:0.247" fill="#b8b8b8" d="M 244.5,114.5 C 244.293,117.241 243.293,119.574 241.5,121.5C 241.707,118.759 242.707,116.426 244.5,114.5 Z"/></g>
<g><path style="opacity:0.004" fill="#fefffe" d="M 146.5,118.5 C 147.833,119.167 147.833,119.167 146.5,118.5 Z"/></g>
<g><path style="opacity:0.847" fill="#8a8a8a" d="M 283.5,118.5 C 284.537,119.93 285.204,121.597 285.5,123.5C 283.787,122.365 283.12,120.698 283.5,118.5 Z"/></g>
<g><path style="opacity:0.404" fill="#9a9a9a" d="M 218.5,121.5 C 218.573,123.027 217.906,124.027 216.5,124.5C 216.427,122.973 217.094,121.973 218.5,121.5 Z"/></g>
<g><path style="opacity:0.208" fill="#c6c6c6" d="M 216.5,124.5 C 216.573,126.027 215.906,127.027 214.5,127.5C 214.427,125.973 215.094,124.973 216.5,124.5 Z"/></g>
<g><path style="opacity:0.89" fill="#777777" d="M 285.5,124.5 C 286.931,125.78 287.598,127.447 287.5,129.5C 285.787,128.365 285.12,126.698 285.5,124.5 Z"/></g>
<g><path style="opacity:0.231" fill="#bbbbbb" d="M 238.5,127.5 C 238.25,129.674 237.25,131.341 235.5,132.5C 235.75,130.326 236.75,128.659 238.5,127.5 Z"/></g>
<g><path style="opacity:0.349" fill="#ababab" d="M 264.5,127.5 C 265.931,128.78 266.598,130.447 266.5,132.5C 265.069,131.22 264.402,129.553 264.5,127.5 Z"/></g>
<g><path style="opacity:0.004" fill="#fefffe" d="M 368.5,130.5 C 369.833,131.167 369.833,131.167 368.5,130.5 Z"/></g>
<g><path style="opacity:0.4" fill="#9e9e9e" d="M 213.5,129.5 C 213.573,131.027 212.906,132.027 211.5,132.5C 211.427,130.973 212.094,129.973 213.5,129.5 Z"/></g>
<g><path style="opacity:0.4" fill="#a8a8a8" d="M 211.5,132.5 C 211.573,134.027 210.906,135.027 209.5,135.5C 209.427,133.973 210.094,132.973 211.5,132.5 Z"/></g>
<g><path style="opacity:0.004" fill="#fefffe" d="M 113.5,136.5 C 114.833,137.167 114.833,137.167 113.5,136.5 Z"/></g>
<g><path style="opacity:0.204" fill="#b6b6b6" d="M 234.5,134.5 C 234.573,136.027 233.906,137.027 232.5,137.5C 232.427,135.973 233.094,134.973 234.5,134.5 Z"/></g>
<g><path style="opacity:0.561" fill="#979797" d="M 209.5,135.5 C 209.262,137.404 208.262,138.738 206.5,139.5C 206.738,137.596 207.738,136.262 209.5,135.5 Z"/></g>
<g><path style="opacity:0.545" fill="#989898" d="M 206.5,139.5 C 206.262,141.404 205.262,142.738 203.5,143.5C 203.738,141.596 204.738,140.262 206.5,139.5 Z"/></g>
<g><path style="opacity:0.145" fill="#c7c7c7" d="M 291.5,138.5 C 292.931,139.78 293.598,141.447 293.5,143.5C 292.069,142.22 291.402,140.553 291.5,138.5 Z"/></g>
<g><path style="opacity:0.004" fill="#fefffe" d="M 170.5,142.5 C 171.833,143.167 171.833,143.167 170.5,142.5 Z"/></g>
<g><path style="opacity:0.024" fill="#cecece" d="M 229.5,142.5 C 229.573,144.027 228.906,145.027 227.5,145.5C 227.427,143.973 228.094,142.973 229.5,142.5 Z"/></g>
<g><path style="opacity:0.333" fill="#adadad" d="M 269.5,140.5 C 270.931,141.78 271.598,143.447 271.5,145.5C 270.069,144.22 269.402,142.553 269.5,140.5 Z"/></g>
<g><path style="opacity:0.776" fill="#858585" d="M 203.5,143.5 C 203.262,145.404 202.262,146.738 200.5,147.5C 200.738,145.596 201.738,144.262 203.5,143.5 Z"/></g>
<g><path style="opacity:0.267" fill="#b9b9b9" d="M 294.5,145.5 C 295.906,145.973 296.573,146.973 296.5,148.5C 295.094,148.027 294.427,147.027 294.5,145.5 Z"/></g>
<g><path style="opacity:0.655" fill="#898989" d="M 200.5,147.5 C 199.581,150.089 197.914,152.089 195.5,153.5C 196.419,150.911 198.086,148.911 200.5,147.5 Z"/></g>
<g><path style="opacity:0.18" fill="#b4b4b4" d="M 273.5,149.5 C 275.008,151.181 276.008,153.181 276.5,155.5C 274.461,154.089 273.461,152.089 273.5,149.5 Z"/></g>
<g><path style="opacity:0.475" fill="#959595" d="M 298.5,152.5 C 299.906,152.973 300.573,153.973 300.5,155.5C 299.094,155.027 298.427,154.027 298.5,152.5 Z"/></g>
<g><path style="opacity:0.004" fill="#fefffe" d="M 434.5,154.5 C 435.833,155.167 435.833,155.167 434.5,154.5 Z"/></g>
<g><path style="opacity:0.004" fill="#fefffe" d="M 134.5,156.5 C 135.833,157.167 135.833,157.167 134.5,156.5 Z"/></g>
<g><path style="opacity:0.004" fill="#d5d5d5" d="M 219.5,156.5 C 219.573,158.027 218.906,159.027 217.5,159.5C 217.427,157.973 218.094,156.973 219.5,156.5 Z"/></g>
<g><path style="opacity:0.482" fill="#a2a2a2" d="M 300.5,155.5 C 302.262,156.262 303.262,157.596 303.5,159.5C 301.738,158.738 300.738,157.404 300.5,155.5 Z"/></g>
<g><path style="opacity:0.667" fill="#959595" d="M 193.5,155.5 C 191.906,158.764 189.573,161.431 186.5,163.5C 188.094,160.236 190.427,157.569 193.5,155.5 Z"/></g>
<g><path style="opacity:0.118" fill="#cacaca" d="M 278.5,159.5 C 279.906,159.973 280.573,160.973 280.5,162.5C 279.094,162.027 278.427,161.027 278.5,159.5 Z"/></g>
<g><path style="opacity:0.416" fill="#a8a8a8" d="M 303.5,159.5 C 304.906,159.973 305.573,160.973 305.5,162.5C 304.094,162.027 303.427,161.027 303.5,159.5 Z"/></g>
<g><path style="opacity:0.012" fill="#d2d2d2" d="M 215.5,161.5 C 215.573,163.027 214.906,164.027 213.5,164.5C 213.427,162.973 214.094,161.973 215.5,161.5 Z"/></g>
<g><path style="opacity:0.776" fill="#888888" d="M 305.5,162.5 C 307.262,163.262 308.262,164.596 308.5,166.5C 306.738,165.738 305.738,164.404 305.5,162.5 Z"/></g>
<g><path style="opacity:0.89" fill="#808080" d="M 281.5,164.5 C 283.446,165.035 284.446,166.368 284.5,168.5C 283.026,167.564 282.026,166.23 281.5,164.5 Z"/></g>
<g><path style="opacity:0.906" fill="#838383" d="M 308.5,166.5 C 310.341,167.402 311.674,168.736 312.5,170.5C 310.227,170.043 308.894,168.71 308.5,166.5 Z"/></g>
<g><path style="opacity:0.004" fill="#fefffe" d="M 377.5,168.5 C 378.833,169.167 378.833,169.167 377.5,168.5 Z"/></g>
<g><path style="opacity:0.027" fill="#c0c0c0" d="M 209.5,168.5 C 209.573,170.027 208.906,171.027 207.5,171.5C 207.427,169.973 208.094,168.973 209.5,168.5 Z"/></g>
<g><path style="opacity:0.004" fill="#fefffe" d="M 395.5,169.5 C 396.833,170.167 396.833,170.167 395.5,169.5 Z"/></g>
<g><path style="opacity:0.067" fill="#c0c0c0" d="M 289.5,175.5 C 291.262,176.262 292.262,177.596 292.5,179.5C 290.738,178.738 289.738,177.404 289.5,175.5 Z"/></g>
<g><path style="opacity:0.765" fill="#969696" d="M 317.5,176.5 C 321.5,179.833 325.167,183.5 328.5,187.5C 323.833,184.833 320.167,181.167 317.5,176.5 Z"/></g>
<g><path style="opacity:0.867" fill="#525252" d="M 175.5,174.5 C 174.5,177.5 172.5,179.5 169.5,180.5C 171.167,178.167 173.167,176.167 175.5,174.5 Z"/></g>
<g><path style="opacity:0.004" fill="#c4c4c4" d="M 200.5,178.5 C 200.5,179.833 199.833,180.5 198.5,180.5C 198.833,179.5 199.5,178.833 200.5,178.5 Z"/></g>
<g><path style="opacity:0.016" fill="#cfcfcf" d="M 293.5,180.5 C 294.906,180.973 295.573,181.973 295.5,183.5C 294.094,183.027 293.427,182.027 293.5,180.5 Z"/></g>
<g><path style="opacity:0.004" fill="#fefffe" d="M 77.5,182.5 C 78.8333,183.167 78.8333,183.167 77.5,182.5 Z"/></g>
<g><path style="opacity:0.016" fill="#d1d1d1" d="M 198.5,180.5 C 198.262,182.404 197.262,183.738 195.5,184.5C 195.738,182.596 196.738,181.262 198.5,180.5 Z"/></g>
<g><path style="opacity:0.659" fill="#8e9090" d="M 169.5,180.5 C 167.431,183.573 164.764,185.906 161.5,187.5C 163.569,184.427 166.236,182.094 169.5,180.5 Z"/></g>
<g><path style="opacity:0.451" fill="#b6b6b6" d="M 299.5,188.5 C 301.027,188.427 302.027,189.094 302.5,190.5C 300.973,190.573 299.973,189.906 299.5,188.5 Z"/></g>
<g><path style="opacity:0.58" fill="#adadad" d="M 302.5,191.5 C 308.108,195.439 313.108,200.106 317.5,205.5C 311.892,201.561 306.892,196.894 302.5,191.5 Z"/></g>
<g><path style="opacity:0.008" fill="#c5c5c5" d="M 332.5,191.5 C 334.027,191.427 335.027,192.094 335.5,193.5C 333.973,193.573 332.973,192.906 332.5,191.5 Z"/></g>
<g><path style="opacity:0.824" fill="#6b6b6b" d="M 159.5,189.5 C 158.089,191.914 156.089,193.581 153.5,194.5C 154.911,192.086 156.911,190.419 159.5,189.5 Z"/></g>
<g><path style="opacity:0.004" fill="#d7d7d7" d="M 188.5,191.5 C 187.415,193.587 185.749,194.92 183.5,195.5C 184.585,193.413 186.251,192.08 188.5,191.5 Z"/></g>
<g><path style="opacity:0.89" fill="#656565" d="M 153.5,194.5 C 152.415,196.587 150.749,197.92 148.5,198.5C 149.585,196.413 151.251,195.08 153.5,194.5 Z"/></g>
<g><path style="opacity:0.604" fill="#8b8b8b" d="M 337.5,195.5 C 339.23,196.026 340.564,197.026 341.5,198.5C 339.368,198.446 338.035,197.446 337.5,195.5 Z"/></g>
<g><path style="opacity:0.004" fill="#fefffe" d="M 77.5,199.5 C 78.8333,200.167 78.8333,200.167 77.5,199.5 Z"/></g>
<g><path style="opacity:0.749" fill="#7f7f7f" d="M 148.5,198.5 C 148.027,199.906 147.027,200.573 145.5,200.5C 145.973,199.094 146.973,198.427 148.5,198.5 Z"/></g>
<g><path style="opacity:0.008" fill="#cbcbcb" d="M 342.5,199.5 C 344.027,199.427 345.027,200.094 345.5,201.5C 343.973,201.573 342.973,200.906 342.5,199.5 Z"/></g>
<g><path style="opacity:0.855" fill="#787878" d="M 145.5,200.5 C 144.415,202.587 142.749,203.92 140.5,204.5C 141.585,202.413 143.251,201.08 145.5,200.5 Z"/></g>
<g><path style="opacity:0.69" fill="#888888" d="M 140.5,204.5 C 140.027,205.906 139.027,206.573 137.5,206.5C 137.973,205.094 138.973,204.427 140.5,204.5 Z"/></g>
<g><path style="opacity:0.631" fill="#868686" d="M 137.5,206.5 C 136.738,208.262 135.404,209.262 133.5,209.5C 134.262,207.738 135.596,206.738 137.5,206.5 Z"/></g>
<g><path style="opacity:0.784" fill="#909090" d="M 319.5,207.5 C 321.749,208.08 323.415,209.413 324.5,211.5C 322.251,210.92 320.585,209.587 319.5,207.5 Z"/></g>
<g><path style="opacity:0.024" fill="#c5c5c5" d="M 170.5,207.5 C 169.738,209.262 168.404,210.262 166.5,210.5C 167.262,208.738 168.596,207.738 170.5,207.5 Z"/></g>
<g><path style="opacity:0.525" fill="#9a9a9a" d="M 131.5,210.5 C 130.738,212.262 129.404,213.262 127.5,213.5C 128.262,211.738 129.596,210.738 131.5,210.5 Z"/></g>
<g><path style="opacity:0.922" fill="#7c7c7c" d="M 357.5,210.5 C 359.23,211.026 360.564,212.026 361.5,213.5C 359.368,213.446 358.035,212.446 357.5,210.5 Z"/></g>
<g><path style="opacity:0.427" fill="#8c8c8c" d="M 324.5,211.5 C 326.749,212.08 328.415,213.413 329.5,215.5C 327.251,214.92 325.585,213.587 324.5,211.5 Z"/></g>
<g><path style="opacity:0.569" fill="#a5a5a5" d="M 125.5,214.5 C 125.027,215.906 124.027,216.573 122.5,216.5C 122.973,215.094 123.973,214.427 125.5,214.5 Z"/></g>
<g><path style="opacity:0.925" fill="#7d7d7d" d="M 363.5,214.5 C 365.23,215.026 366.564,216.026 367.5,217.5C 365.368,217.446 364.035,216.446 363.5,214.5 Z"/></g>
<g><path style="opacity:0.694" fill="#868686" d="M 122.5,216.5 C 122.027,217.906 121.027,218.573 119.5,218.5C 119.973,217.094 120.973,216.427 122.5,216.5 Z"/></g>
<g><path style="opacity:0.369" fill="#979797" d="M 329.5,215.5 C 331.749,216.08 333.415,217.413 334.5,219.5C 332.251,218.92 330.585,217.587 329.5,215.5 Z"/></g>
<g><path style="opacity:0.004" fill="#dbdbdb" d="M 156.5,218.5 C 156.027,219.906 155.027,220.573 153.5,220.5C 153.973,219.094 154.973,218.427 156.5,218.5 Z"/></g>
<g><path style="opacity:0.792" fill="#8b8b8b" d="M 334.5,219.5 C 336.404,219.738 337.738,220.738 338.5,222.5C 336.596,222.262 335.262,221.262 334.5,219.5 Z"/></g>
<g><path style="opacity:0.659" fill="#909090" d="M 117.5,219.5 C 117.027,220.906 116.027,221.573 114.5,221.5C 114.973,220.094 115.973,219.427 117.5,219.5 Z"/></g>
<g><path style="opacity:0.004" fill="#fefffe" d="M 8.5,221.5 C 9.83333,222.167 9.83333,222.167 8.5,221.5 Z"/></g>
<g><path style="opacity:0.702" fill="#8c8c8c" d="M 338.5,222.5 C 340.027,222.427 341.027,223.094 341.5,224.5C 339.973,224.573 338.973,223.906 338.5,222.5 Z"/></g>
<g><path style="opacity:0.639" fill="#a2a2a2" d="M 110.5,223.5 C 110.027,224.906 109.027,225.573 107.5,225.5C 107.973,224.094 108.973,223.427 110.5,223.5 Z"/></g>
<g><path style="opacity:0.004" fill="#dedede" d="M 149.5,223.5 C 149.027,224.906 148.027,225.573 146.5,225.5C 146.973,224.094 147.973,223.427 149.5,223.5 Z"/></g>
<g><path style="opacity:0.651" fill="#808080" d="M 341.5,224.5 C 343.404,224.738 344.738,225.738 345.5,227.5C 343.596,227.262 342.262,226.262 341.5,224.5 Z"/></g>
<g><path style="opacity:0.733" fill="#7f7f7f" d="M 105.5,226.5 C 105.027,227.906 104.027,228.573 102.5,228.5C 102.973,227.094 103.973,226.427 105.5,226.5 Z"/></g>
<g><path style="opacity:0.027" fill="#d1d1d1" d="M 143.5,227.5 C 143.027,228.906 142.027,229.573 140.5,229.5C 140.973,228.094 141.973,227.427 143.5,227.5 Z"/></g>
<g><path style="opacity:0.443" fill="#9b9b9b" d="M 345.5,227.5 C 347.027,227.427 348.027,228.094 348.5,229.5C 346.973,229.573 345.973,228.906 345.5,227.5 Z"/></g>
<g><path style="opacity:0.004" fill="#fefffe" d="M 71.5,230.5 C 72.8333,231.167 72.8333,231.167 71.5,230.5 Z"/></g>
<g><path style="opacity:0.569" fill="#a4a4a4" d="M 99.5,229.5 C 99.0269,230.906 98.0269,231.573 96.5,231.5C 96.9731,230.094 97.9731,229.427 99.5,229.5 Z"/></g>
<g><path style="opacity:0.561" fill="#878787" d="M 348.5,229.5 C 350.027,229.427 351.027,230.094 351.5,231.5C 349.973,231.573 348.973,230.906 348.5,229.5 Z"/></g>
<g><path style="opacity:0.239" fill="#b9b9b9" d="M 388.5,229.5 C 390.674,229.75 392.341,230.75 393.5,232.5C 391.326,232.25 389.659,231.25 388.5,229.5 Z"/></g>
<g><path style="opacity:0.016" fill="#d1d1d1" d="M 137.5,231.5 C 137.027,232.906 136.027,233.573 134.5,233.5C 134.973,232.094 135.973,231.427 137.5,231.5 Z"/></g>
<g><path style="opacity:0.506" fill="#999999" d="M 351.5,231.5 C 353.404,231.738 354.738,232.738 355.5,234.5C 353.596,234.262 352.262,233.262 351.5,231.5 Z"/></g>
<g><path style="opacity:0.216" fill="#b9b9b9" d="M 397.5,234.5 C 399.38,234.229 400.713,234.896 401.5,236.5C 399.847,236.34 398.514,235.674 397.5,234.5 Z"/></g>
<g><path style="opacity:0.969" fill="#686868" d="M 89.5,234.5 C 88.3933,236.969 86.3933,237.969 83.5,237.5C 85.1815,235.992 87.1815,234.992 89.5,234.5 Z"/></g>
<g><path style="opacity:0.443" fill="#969696" d="M 357.5,235.5 C 359.027,235.427 360.027,236.094 360.5,237.5C 358.973,237.573 357.973,236.906 357.5,235.5 Z"/></g>
<g><path style="opacity:0.02" fill="#d2d2d2" d="M 129.5,236.5 C 129.027,237.906 128.027,238.573 126.5,238.5C 126.973,237.094 127.973,236.427 129.5,236.5 Z"/></g>
<g><path style="opacity:0.231" fill="#bbbbbb" d="M 360.5,237.5 C 362.027,237.427 363.027,238.094 363.5,239.5C 361.973,239.573 360.973,238.906 360.5,237.5 Z"/></g>
<g><path style="opacity:0.275" fill="#afafaf" d="M 408.5,239.5 C 411.241,239.707 413.574,240.707 415.5,242.5C 412.759,242.293 410.426,241.293 408.5,239.5 Z"/></g>
<g><path style="opacity:0.298" fill="#aaaaaa" d="M 367.5,241.5 C 369.027,241.427 370.027,242.094 370.5,243.5C 368.973,243.573 367.973,242.906 367.5,241.5 Z"/></g>
<g><path style="opacity:0.329" fill="#b4b4b4" d="M 421.5,244.5 C 423.553,244.402 425.22,245.069 426.5,246.5C 424.447,246.598 422.78,245.931 421.5,244.5 Z"/></g>
<g><path style="opacity:0.812" fill="#7d7d7d" d="M 65.5,244.5 C 62.3401,247 58.6734,248.333 54.5,248.5C 57.9503,246.792 61.617,245.459 65.5,244.5 Z"/></g>
<g><path style="opacity:0.345" fill="#a4a4a4" d="M 374.5,245.5 C 376.027,245.427 377.027,246.094 377.5,247.5C 375.973,247.573 374.973,246.906 374.5,245.5 Z"/></g>
<g><path style="opacity:0.188" fill="#bcbcbc" d="M 432.5,248.5 C 435.089,248.461 437.089,249.461 438.5,251.5C 436.181,251.008 434.181,250.008 432.5,248.5 Z"/></g>
<g><path style="opacity:0.953" fill="#636363" d="M 50.5,249.5 C 48.8243,251.834 46.491,252.834 43.5,252.5C 45.4261,250.707 47.7594,249.707 50.5,249.5 Z"/></g>
<g><path style="opacity:0.655" fill="#959595" d="M 38.5,254.5 C 38.0269,255.906 37.0269,256.573 35.5,256.5C 35.9731,255.094 36.9731,254.427 38.5,254.5 Z"/></g>
<g><path style="opacity:0.137" fill="#bbbbbb" d="M 392.5,254.5 C 394.933,255.548 394.933,256.214 392.5,256.5C 392.5,255.833 392.5,255.167 392.5,254.5 Z"/></g>
<g><path style="opacity:0.235" fill="#b7b7b7" d="M 94.5,255.5 C 93.2196,256.931 91.5529,257.598 89.5,257.5C 90.7804,256.069 92.4471,255.402 94.5,255.5 Z"/></g>
<g><path style="opacity:0.835" fill="#717171" d="M 392.5,256.5 C 390.485,257.924 388.152,258.59 385.5,258.5C 387.515,257.076 389.848,256.41 392.5,256.5 Z"/></g>
<g><path style="opacity:0.812" fill="#7c7c7c" d="M 441.5,255.5 C 444.167,258.5 444.167,261.5 441.5,264.5C 441.5,261.5 441.5,258.5 441.5,255.5 Z"/></g>
<g><path style="opacity:0.282" fill="#c1c1c1" d="M 29.5,259.5 C 29.1667,260.5 28.5,261.167 27.5,261.5C 27.5,260.167 28.1667,259.5 29.5,259.5 Z"/></g>
<g><path style="opacity:0.004" fill="#fefffe" d="M 5.5,260.5 C 6.83333,261.167 6.83333,261.167 5.5,260.5 Z"/></g>
<g><path style="opacity:0.2" fill="#bbbbbb" d="M 82.5,260.5 C 81.2196,261.931 79.5529,262.598 77.5,262.5C 78.7804,261.069 80.4471,260.402 82.5,260.5 Z"/></g>
<g><path style="opacity:0.882" fill="#5f5f5f" d="M 382.5,259.5 C 380.383,261.655 377.716,262.655 374.5,262.5C 376.89,260.98 379.557,259.98 382.5,259.5 Z"/></g>
<g><path style="opacity:0.075" fill="#cecece" d="M 77.5,262.5 C 76.2196,263.931 74.5529,264.598 72.5,264.5C 73.7804,263.069 75.4471,262.402 77.5,262.5 Z"/></g>
<g><path style="opacity:0.925" fill="#757575" d="M 374.5,262.5 C 373.365,264.213 371.698,264.88 369.5,264.5C 370.93,263.463 372.597,262.796 374.5,262.5 Z"/></g>
<g><path style="opacity:0.533" fill="#969696" d="M 71.5,264.5 C 72.5,265.167 73.5,265.833 74.5,266.5C 72.712,266.785 71.0453,266.452 69.5,265.5C 69.9569,264.702 70.6236,264.369 71.5,264.5 Z"/></g>
<g><path style="opacity:0.278" fill="#c0c0c0" d="M 27.5,261.5 C 25.2956,265.286 24.9622,269.286 26.5,273.5C 25.8826,273.389 25.3826,273.056 25,272.5C 24.3333,269.5 24.3333,266.5 25,263.5C 25.7083,262.619 26.5416,261.953 27.5,261.5 Z"/></g>
<g><path style="opacity:0.91" fill="#5a5a5a" d="M 367.5,265.5 C 365.91,267.821 363.577,268.821 360.5,268.5C 362.649,267.264 364.982,266.264 367.5,265.5 Z"/></g>
<g><path style="opacity:0.031" fill="#bdbdbd" d="M 81.5,268.5 C 84.9164,268.528 87.9164,269.528 90.5,271.5C 87.2154,271.072 84.2154,270.072 81.5,268.5 Z"/></g>
<g><path style="opacity:0.592" fill="#9c9c9c" d="M 358.5,269.5 C 358.027,270.906 357.027,271.573 355.5,271.5C 355.973,270.094 356.973,269.427 358.5,269.5 Z"/></g>
<g><path style="opacity:0.102" fill="#bababa" d="M 430.5,270.5 C 427.124,272.082 423.458,272.749 419.5,272.5C 422.946,271.313 426.613,270.646 430.5,270.5 Z"/></g>
<g><path style="opacity:0.09" fill="#c1c1c1" d="M 419.5,272.5 C 415.733,273.795 411.733,274.461 407.5,274.5C 411.236,273.011 415.236,272.344 419.5,272.5 Z"/></g>
<g><path style="opacity:0.278" fill="#b1b2b2" d="M 96.5,273.5 C 99.2406,273.707 101.574,274.707 103.5,276.5C 100.759,276.293 98.4261,275.293 96.5,273.5 Z"/></g>
<g><path style="opacity:1" fill="#525252" d="M 349.5,274.5 C 348.656,276.759 346.989,277.759 344.5,277.5C 345.899,276.11 347.566,275.11 349.5,274.5 Z"/></g>
<g><path style="opacity:0.235" fill="#a9a9a9" d="M 402.5,275.5 C 400.401,276.612 398.067,277.279 395.5,277.5C 397.438,275.837 399.772,275.171 402.5,275.5 Z"/></g>
<g><path style="opacity:0.098" fill="#c9c9c9" d="M 29.5,276.5 C 31.153,276.66 32.4863,277.326 33.5,278.5C 31.6203,278.771 30.287,278.104 29.5,276.5 Z"/></g>
<g><path style="opacity:0.478" fill="#a0a0a0" d="M 342.5,278.5 C 341.738,280.262 340.404,281.262 338.5,281.5C 339.262,279.738 340.596,278.738 342.5,278.5 Z"/></g>
<g><path style="opacity:0.624" fill="#a9a9a9" d="M 42.5,280.5 C 47.1201,280.74 51.4535,281.74 55.5,283.5C 50.8799,283.26 46.5465,282.26 42.5,280.5 Z"/></g>
<g><path style="opacity:0.184" fill="#bbbbbb" d="M 386.5,280.5 C 385.22,281.931 383.553,282.598 381.5,282.5C 382.78,281.069 384.447,280.402 386.5,280.5 Z"/></g>
<g><path style="opacity:0.557" fill="#959595" d="M 336.5,282.5 C 335.738,284.262 334.404,285.262 332.5,285.5C 333.262,283.738 334.596,282.738 336.5,282.5 Z"/></g>
<g><path style="opacity:0.914" fill="#767676" d="M 118.5,283.5 C 119.71,283.932 120.71,284.599 121.5,285.5C 119.821,285.715 118.821,285.048 118.5,283.5 Z"/></g>
<g><path style="opacity:0.667" fill="#979797" d="M 65.5,285.5 C 69.2142,285.59 72.5475,286.59 75.5,288.5C 71.8835,288.101 68.5502,287.101 65.5,285.5 Z"/></g>
<g><path style="opacity:0.733" fill="#808080" d="M 332.5,285.5 C 332.027,286.906 331.027,287.573 329.5,287.5C 329.973,286.094 330.973,285.427 332.5,285.5 Z"/></g>
<g><path style="opacity:0.039" fill="#cecece" d="M 374.5,285.5 C 373.486,286.674 372.153,287.34 370.5,287.5C 371.287,285.896 372.62,285.229 374.5,285.5 Z"/></g>
<g><path style="opacity:0.922" fill="#818181" d="M 123.5,286.5 C 125.23,287.026 126.564,288.026 127.5,289.5C 125.368,289.446 124.035,288.446 123.5,286.5 Z"/></g>
<g><path style="opacity:0.851" fill="#7f7f7f" d="M 76.5,288.5 C 80.7076,288.677 84.3743,290.01 87.5,292.5C 83.6052,291.538 79.9385,290.204 76.5,288.5 Z"/></g>
<g><path style="opacity:0.608" fill="#8e8e8e" d="M 329.5,287.5 C 328.738,289.262 327.404,290.262 325.5,290.5C 326.262,288.738 327.596,287.738 329.5,287.5 Z"/></g>
<g><path style="opacity:0.651" fill="#848484" d="M 325.5,290.5 C 324.738,292.262 323.404,293.262 321.5,293.5C 322.262,291.738 323.596,290.738 325.5,290.5 Z"/></g>
<g><path style="opacity:0.847" fill="#6e6e6e" d="M 321.5,293.5 C 320.415,295.587 318.749,296.92 316.5,297.5C 317.585,295.413 319.251,294.08 321.5,293.5 Z"/></g>
<g><path style="opacity:0.016" fill="#d9d9d9" d="M 355.5,295.5 C 355.027,296.906 354.027,297.573 352.5,297.5C 352.973,296.094 353.973,295.427 355.5,295.5 Z"/></g>
<g><path style="opacity:0.004" fill="#cacaca" d="M 138.5,297.5 C 140.404,297.738 141.738,298.738 142.5,300.5C 140.596,300.262 139.262,299.262 138.5,297.5 Z"/></g>
<g><path style="opacity:0.004" fill="#fefffe" d="M 5.5,299.5 C 6.83333,300.167 6.83333,300.167 5.5,299.5 Z"/></g>
<g><path style="opacity:0.827" fill="#6b6b6b" d="M 316.5,297.5 C 315.089,299.914 313.089,301.581 310.5,302.5C 311.911,300.086 313.911,298.419 316.5,297.5 Z"/></g>
<g><path style="opacity:0.027" fill="#d0d0d0" d="M 347.5,300.5 C 347.027,301.906 346.027,302.573 344.5,302.5C 344.973,301.094 345.973,300.427 347.5,300.5 Z"/></g>
<g><path style="opacity:0.18" fill="#c7c7c7" d="M 107.5,301.5 C 109.027,301.427 110.027,302.094 110.5,303.5C 108.973,303.573 107.973,302.906 107.5,301.5 Z"/></g>
<g><path style="opacity:0.322" fill="#b1b1b1" d="M 112.5,304.5 C 114.027,304.427 115.027,305.094 115.5,306.5C 113.973,306.573 112.973,305.906 112.5,304.5 Z"/></g>
<g><path style="opacity:0.776" fill="#707070" d="M 310.5,302.5 C 308.431,305.573 305.764,307.906 302.5,309.5C 304.569,306.427 307.236,304.094 310.5,302.5 Z"/></g>
<g><path style="opacity:0.02" fill="#d2d2d2" d="M 340.5,305.5 C 340.027,306.906 339.027,307.573 337.5,307.5C 337.973,306.094 338.973,305.427 340.5,305.5 Z"/></g>
<g><path style="opacity:0.255" fill="#bcbcbc" d="M 115.5,306.5 C 117.027,306.427 118.027,307.094 118.5,308.5C 116.973,308.573 115.973,307.906 115.5,306.5 Z"/></g>
<g><path style="opacity:0.004" fill="#fefffe" d="M 413.5,310.5 C 414.833,311.167 414.833,311.167 413.5,310.5 Z"/></g>
<g><path style="opacity:0.349" fill="#9e9e9e" d="M 120.5,309.5 C 122.749,310.08 124.415,311.413 125.5,313.5C 123.251,312.92 121.585,311.587 120.5,309.5 Z"/></g>
<g><path style="opacity:0.827" fill="#8b8b8b" d="M 125.5,313.5 C 128.089,314.419 130.089,316.086 131.5,318.5C 128.911,317.581 126.911,315.914 125.5,313.5 Z"/></g>
<g><path style="opacity:0.733" fill="#959595" d="M 154.5,312.5 C 156.587,313.585 157.92,315.251 158.5,317.5C 156.413,316.415 155.08,314.749 154.5,312.5 Z"/></g>
<g><path style="opacity:0.004" fill="#fefffe" d="M 434.5,315.5 C 435.833,316.167 435.833,316.167 434.5,315.5 Z"/></g>
<g><path style="opacity:0.004" fill="#d1d1d1" d="M 158.5,317.5 C 159.833,317.5 160.5,318.167 160.5,319.5C 159.5,319.167 158.833,318.5 158.5,317.5 Z"/></g>
<g><path style="opacity:0.004" fill="#d7d7d7" d="M 326.5,316.5 C 326.027,317.906 325.027,318.573 323.5,318.5C 323.973,317.094 324.973,316.427 326.5,316.5 Z"/></g>
<g><path style="opacity:0.686" fill="#939494" d="M 302.5,309.5 C 296.833,315.833 290.833,321.833 284.5,327.5C 289.5,320.5 295.5,314.5 302.5,309.5 Z"/></g>
<g><path style="opacity:0.008" fill="#c1c1c1" d="M 131.5,318.5 C 133.167,319.5 134.5,320.833 135.5,322.5C 133.167,322.167 131.833,320.833 131.5,318.5 Z"/></g>
<g><path style="opacity:0.714" fill="#909090" d="M 160.5,319.5 C 161.906,319.973 162.573,320.973 162.5,322.5C 161.094,322.027 160.427,321.027 160.5,319.5 Z"/></g>
<g><path style="opacity:0.004" fill="#fefffe" d="M 353.5,320.5 C 354.833,321.167 354.833,321.167 353.5,320.5 Z"/></g>
<g><path style="opacity:0.514" fill="#b2b2b2" d="M 136.5,324.5 C 138.833,324.833 140.167,326.167 140.5,328.5C 138.833,327.5 137.5,326.167 136.5,324.5 Z"/></g>
<g><path style="opacity:0.031" fill="#d5d5d5" d="M 317.5,324.5 C 316.738,326.262 315.404,327.262 313.5,327.5C 314.262,325.738 315.596,324.738 317.5,324.5 Z"/></g>
<g><path style="opacity:0.369" fill="#929292" d="M 162.5,322.5 C 164.587,323.585 165.92,325.251 166.5,327.5C 164.413,326.415 163.08,324.749 162.5,322.5 Z"/></g>
<g><path style="opacity:0.522" fill="#a1a1a1" d="M 166.5,327.5 C 168.262,328.262 169.262,329.596 169.5,331.5C 167.738,330.738 166.738,329.404 166.5,327.5 Z"/></g>
<g><path style="opacity:0.322" fill="#afafaf" d="M 169.5,331.5 C 170.906,331.973 171.573,332.973 171.5,334.5C 170.094,334.027 169.427,333.027 169.5,331.5 Z"/></g>
<g><path style="opacity:0.682" fill="#888888" d="M 281.5,330.5 C 280.581,333.089 278.914,335.089 276.5,336.5C 277.419,333.911 279.086,331.911 281.5,330.5 Z"/></g>
<g><path style="opacity:0.592" fill="#8c8c8c" d="M 172.5,336.5 C 174.262,337.262 175.262,338.596 175.5,340.5C 173.738,339.738 172.738,338.404 172.5,336.5 Z"/></g>
<g><path style="opacity:0.043" fill="#c3c3c3" d="M 303.5,337.5 C 302.92,339.749 301.587,341.415 299.5,342.5C 300.08,340.251 301.413,338.585 303.5,337.5 Z"/></g>
<g><path style="opacity:0.49" fill="#a8a8a8" d="M 274.5,338.5 C 273.92,340.749 272.587,342.415 270.5,343.5C 271.08,341.251 272.413,339.585 274.5,338.5 Z"/></g>
<g><path style="opacity:0.463" fill="#959595" d="M 176.5,342.5 C 177.906,342.973 178.573,343.973 178.5,345.5C 177.094,345.027 176.427,344.027 176.5,342.5 Z"/></g>
<g><path style="opacity:0.98" fill="#5f5f5f" d="M 151.5,342.5 C 154.509,343.848 156.176,346.181 156.5,349.5C 154.478,347.469 152.811,345.135 151.5,342.5 Z"/></g>
<g><path style="opacity:0.275" fill="#b6b6b6" d="M 178.5,345.5 C 179.906,345.973 180.573,346.973 180.5,348.5C 179.094,348.027 178.427,347.027 178.5,345.5 Z"/></g>
<g><path style="opacity:0.341" fill="#a5a5a5" d="M 270.5,343.5 C 269.92,345.749 268.587,347.415 266.5,348.5C 267.08,346.251 268.413,344.585 270.5,343.5 Z"/></g>
<g><path style="opacity:0.027" fill="#c0c0c0" d="M 293.5,348.5 C 293.573,350.027 292.906,351.027 291.5,351.5C 291.427,349.973 292.094,348.973 293.5,348.5 Z"/></g>
<g><path style="opacity:0.569" fill="#969696" d="M 266.5,348.5 C 266.262,350.404 265.262,351.738 263.5,352.5C 263.738,350.596 264.738,349.262 266.5,348.5 Z"/></g>
<g><path style="opacity:0.843" fill="#858585" d="M 157.5,351.5 C 159.446,352.035 160.446,353.368 160.5,355.5C 159.026,354.564 158.026,353.23 157.5,351.5 Z"/></g>
<g><path style="opacity:0.29" fill="#b5b5b5" d="M 181.5,350.5 C 182.906,350.973 183.573,351.973 183.5,353.5C 182.094,353.027 181.427,352.027 181.5,350.5 Z"/></g>
<g><path style="opacity:0.541" fill="#9d9d9d" d="M 263.5,352.5 C 263.262,354.404 262.262,355.738 260.5,356.5C 260.738,354.596 261.738,353.262 263.5,352.5 Z"/></g>
<g><path style="opacity:0.451" fill="#9f9f9f" d="M 260.5,356.5 C 260.573,358.027 259.906,359.027 258.5,359.5C 258.427,357.973 259.094,356.973 260.5,356.5 Z"/></g>
<g><path style="opacity:0.196" fill="#bfbfbf" d="M 161.5,357.5 C 163.25,358.659 164.25,360.326 164.5,362.5C 162.75,361.341 161.75,359.674 161.5,357.5 Z"/></g>
<g><path style="opacity:0.004" fill="#fefffe" d="M 101.5,360.5 C 102.833,361.167 102.833,361.167 101.5,360.5 Z"/></g>
<g><path style="opacity:0.553" fill="#9a9a9a" d="M 258.5,359.5 C 258.262,361.404 257.262,362.738 255.5,363.5C 255.738,361.596 256.738,360.262 258.5,359.5 Z"/></g>
<g><path style="opacity:0.192" fill="#c3c3c3" d="M 187.5,361.5 C 188.906,361.973 189.573,362.973 189.5,364.5C 188.094,364.027 187.427,363.027 187.5,361.5 Z"/></g>
<g><path style="opacity:0.004" fill="#fefffe" d="M 362.5,364.5 C 363.833,365.167 363.833,365.167 362.5,364.5 Z"/></g>
<g><path style="opacity:0.584" fill="#949494" d="M 254.5,365.5 C 254.262,367.404 253.262,368.738 251.5,369.5C 251.738,367.596 252.738,366.262 254.5,365.5 Z"/></g>
<g><path style="opacity:0.188" fill="#c2c2c2" d="M 166.5,366.5 C 168.25,367.659 169.25,369.326 169.5,371.5C 167.75,370.341 166.75,368.674 166.5,366.5 Z"/></g>
<g><path style="opacity:0.004" fill="#fefffe" d="M 299.5,368.5 C 300.833,369.167 300.833,369.167 299.5,368.5 Z"/></g>
<g><path style="opacity:0.435" fill="#9f9f9f" d="M 250.5,371.5 C 250.573,373.027 249.906,374.027 248.5,374.5C 248.427,372.973 249.094,371.973 250.5,371.5 Z"/></g>
<g><path style="opacity:0.129" fill="#bebebe" d="M 171.5,375.5 C 173.008,377.181 174.008,379.181 174.5,381.5C 172.461,380.089 171.461,378.089 171.5,375.5 Z"/></g>
<g><path style="opacity:0.298" fill="#afafaf" d="M 248.5,374.5 C 248.573,376.027 247.906,377.027 246.5,377.5C 246.427,375.973 247.094,374.973 248.5,374.5 Z"/></g>
<g><path style="opacity:0.004" fill="#fefffe" d="M 287.5,377.5 C 288.833,378.167 288.833,378.167 287.5,377.5 Z"/></g>
<g><path style="opacity:0.957" fill="#737373" d="M 196.5,380.5 C 198.293,382.426 199.293,384.759 199.5,387.5C 197.166,385.824 196.166,383.491 196.5,380.5 Z"/></g>
<g><path style="opacity:0.341" fill="#a8a8a8" d="M 244.5,381.5 C 244.573,383.027 243.906,384.027 242.5,384.5C 242.427,382.973 243.094,381.973 244.5,381.5 Z"/></g>
<g><path style="opacity:0.004" fill="#fefffe" d="M 347.5,383.5 C 348.833,384.167 348.833,384.167 347.5,383.5 Z"/></g>
<g><path style="opacity:0.004" fill="#fefffe" d="M 368.5,383.5 C 369.833,384.167 369.833,384.167 368.5,383.5 Z"/></g>
<g><path style="opacity:0.188" fill="#bcbcbc" d="M 268.5,382.5 C 268.573,384.027 267.906,385.027 266.5,385.5C 266.427,383.973 267.094,382.973 268.5,382.5 Z"/></g>
<g><path style="opacity:0.004" fill="#fefffe" d="M 98.5,385.5 C 99.8333,386.167 99.8333,386.167 98.5,385.5 Z"/></g>
<g><path style="opacity:0.267" fill="#bdbdbd" d="M 177.5,388.5 C 178.931,389.78 179.598,391.447 179.5,393.5C 178.069,392.22 177.402,390.553 177.5,388.5 Z"/></g>
<g><path style="opacity:0.863" fill="#828282" d="M 200.5,389.5 C 201.537,390.93 202.204,392.597 202.5,394.5C 200.787,393.365 200.12,391.698 200.5,389.5 Z"/></g>
<g><path style="opacity:0.278" fill="#b5b5b5" d="M 238.5,392.5 C 238.573,394.027 237.906,395.027 236.5,395.5C 236.427,393.973 237.094,392.973 238.5,392.5 Z"/></g>
<g><path style="opacity:0.004" fill="#fefffe" d="M 170.5,399.5 C 171.833,400.167 171.833,400.167 170.5,399.5 Z"/></g>
<g><path style="opacity:1" fill="#666666" d="M 182.5,400.5 C 184.856,402.557 185.856,405.224 185.5,408.5C 183.98,406.11 182.98,403.443 182.5,400.5 Z"/></g>
<g><path style="opacity:0.918" fill="#757575" d="M 204.5,400.5 C 205.537,401.93 206.204,403.597 206.5,405.5C 204.787,404.365 204.12,402.698 204.5,400.5 Z"/></g>
<g><path style="opacity:0.004" fill="#fefffe" d="M 149.5,407.5 C 150.833,408.167 150.833,408.167 149.5,407.5 Z"/></g>
<g><path style="opacity:0.741" fill="#979797" d="M 206.5,405.5 C 207.738,407.214 208.405,409.214 208.5,411.5C 206.926,409.898 206.259,407.898 206.5,405.5 Z"/></g>
<g><path style="opacity:0.953" fill="#6a6a6a" d="M 232.5,404.5 C 232.834,407.491 231.834,409.824 229.5,411.5C 229.707,408.759 230.707,406.426 232.5,404.5 Z"/></g>
<g><path style="opacity:0.439" fill="#a7a7a7" d="M 186.5,411.5 C 188.472,414.084 189.472,417.084 189.5,420.5C 187.928,417.785 186.928,414.785 186.5,411.5 Z"/></g>
<g><path style="opacity:0.761" fill="#969696" d="M 208.5,411.5 C 209.738,413.214 210.405,415.214 210.5,417.5C 208.926,415.898 208.259,413.898 208.5,411.5 Z"/></g>
<g><path style="opacity:0.004" fill="#fefffe" d="M 182.5,416.5 C 183.833,417.167 183.833,417.167 182.5,416.5 Z"/></g>
<g><path style="opacity:0.89" fill="#7f7f7f" d="M 227.5,416.5 C 227.88,418.698 227.213,420.365 225.5,421.5C 225.402,419.447 226.069,417.78 227.5,416.5 Z"/></g>
<g><path style="opacity:0.808" fill="#989898" d="M 210.5,417.5 C 212.405,421.216 213.739,425.216 214.5,429.5C 212.194,425.915 210.861,421.915 210.5,417.5 Z"/></g>
<g><path style="opacity:0.239" fill="#b4b4b4" d="M 249.5,418.5 C 249.293,421.241 248.293,423.574 246.5,425.5C 246.707,422.759 247.707,420.426 249.5,418.5 Z"/></g>
<g><path style="opacity:0.004" fill="#fefffe" d="M 2.5,423.5 C 3.83333,424.167 3.83333,424.167 2.5,423.5 Z"/></g>
<g><path style="opacity:0.376" fill="#acacac" d="M 190.5,423.5 C 192.806,427.085 194.139,431.085 194.5,435.5C 192.595,431.784 191.261,427.784 190.5,423.5 Z"/></g>
<g><path style="opacity:0.004" fill="#fefffe" d="M 263.5,426.5 C 264.833,427.167 264.833,427.167 263.5,426.5 Z"/></g>
<g><path style="opacity:0.812" fill="#8b8b8b" d="M 224.5,424.5 C 224.472,427.916 223.472,430.916 221.5,433.5C 221.928,430.215 222.928,427.215 224.5,424.5 Z"/></g>
<g><path style="opacity:0.004" fill="#fefffe" d="M 332.5,428.5 C 333.833,429.167 333.833,429.167 332.5,428.5 Z"/></g>
<g><path style="opacity:0.431" fill="#9d9d9d" d="M 244.5,431.5 C 243.739,435.784 242.405,439.784 240.5,443.5C 240.861,439.085 242.194,435.085 244.5,431.5 Z"/></g>
<g><path style="opacity:0.91" fill="#808080" d="M 221.5,433.5 C 221.706,436.495 221.04,439.162 219.5,441.5C 219.294,438.505 219.96,435.838 221.5,433.5 Z"/></g>
<g><path style="opacity:0.004" fill="#fefffe" d="M 305.5,438.5 C 306.833,439.167 306.833,439.167 305.5,438.5 Z"/></g>
<g><path style="opacity:0.004" fill="#fefffe" d="M 128.5,439.5 C 129.833,440.167 129.833,440.167 128.5,439.5 Z"/></g>
<g><path style="opacity:0.718" fill="#9a9a9a" d="M 216.5,436.5 C 217.313,438.261 218.313,439.928 219.5,441.5C 219.154,443.705 218.487,443.872 217.5,442C 216.767,440.234 216.433,438.401 216.5,436.5 Z"/></g>
<g><path style="opacity:0.004" fill="#fefffe" d="M 266.5,443.5 C 267.833,444.167 267.833,444.167 266.5,443.5 Z"/></g>
<g><path style="opacity:0.463" fill="#ababab" d="M 195.5,438.5 C 197.61,442.502 198.943,446.835 199.5,451.5C 197.39,447.498 196.057,443.165 195.5,438.5 Z"/></g>
<g><path style="opacity:0.004" fill="#fefffe" d="M 410.5,446.5 C 411.833,447.167 411.833,447.167 410.5,446.5 Z"/></g>
<g><path style="opacity:0.322" fill="#b7b7b7" d="M 240.5,445.5 C 239.611,450.728 238.278,455.728 236.5,460.5C 236.765,455.101 238.098,450.101 240.5,445.5 Z"/></g>
<g><path style="opacity:0.541" fill="#979797" d="M 201.5,458.5 C 203.074,460.102 203.741,462.102 203.5,464.5C 202.262,462.786 201.595,460.786 201.5,458.5 Z"/></g>
<g><path style="opacity:0.004" fill="#fefffe" d="M 143.5,462.5 C 144.833,463.167 144.833,463.167 143.5,462.5 Z"/></g>
<g><path style="opacity:0.004" fill="#fefffe" d="M 272.5,470.5 C 273.833,471.167 273.833,471.167 272.5,470.5 Z"/></g>
<g><path style="opacity:0.004" fill="#fefffe" d="M 74.5,477.5 C 75.8333,478.167 75.8333,478.167 74.5,477.5 Z"/></g>
<g><path style="opacity:0.247" fill="#b7b7b7" d="M 205.5,473.5 C 207.344,478.551 208.344,483.884 208.5,489.5C 206.871,484.409 205.871,479.076 205.5,473.5 Z"/></g>
<g><path style="opacity:0.004" fill="#fefffe" d="M 47.5,488.5 C 48.8333,489.167 48.8333,489.167 47.5,488.5 Z"/></g>
<g><path style="opacity:0.235" fill="#c2c2c2" d="M 235.5,466.5 C 234.167,486.636 233.167,506.636 232.5,526.5C 232.333,511.496 232.5,496.496 233,481.5C 233.296,476.272 234.129,471.272 235.5,466.5 Z"/></g>
<g><path style="opacity:0.004" fill="#fefffe" d="M 299.5,504.5 C 300.833,505.167 300.833,505.167 299.5,504.5 Z"/></g>
<g><path style="opacity:0.004" fill="#fefffe" d="M 179.5,507.5 C 180.833,508.167 180.833,508.167 179.5,507.5 Z"/></g>
<g><path style="opacity:0.448" fill="#a0a0a0" d="M 209.5,497.5 C 211.5,509.047 213.166,520.714 214.5,532.5C 213.21,531.942 212.377,530.942 212,529.5C 211.495,518.8 210.662,508.133 209.5,497.5 Z"/></g>
<g><path style="opacity:0.49" fill="#969696" d="M 214.5,532.5 C 216.027,532.427 217.027,533.094 217.5,534.5C 215.973,534.573 214.973,533.906 214.5,532.5 Z"/></g>
<g><path style="opacity:0.004" fill="#fefffe" d="M 209.5,534.5 C 210.833,535.167 210.833,535.167 209.5,534.5 Z"/></g>
<g><path style="opacity:0.659" fill="#8c8c8c" d="M 217.5,534.5 C 220.5,534.5 223.5,534.5 226.5,534.5C 223.553,536.88 220.553,536.88 217.5,534.5 Z"/></g>
<g><path style="opacity:0.004" fill="#fefffe" d="M 32.5,536.5 C 33.8333,537.167 33.8333,537.167 32.5,536.5 Z"/></g>
</svg>
